<svg width="1919" height="296" viewBox="0 0 1919 296" fill="none" xmlns="http://www.w3.org/2000/svg">
<path fill-rule="evenodd" clip-rule="evenodd" d="M-1 42.6993L79 72.7809C159 102.862 319 163.026 479 144.977C639 126.928 799 30.6667 959 6.6014C1119 -17.4639 1279 30.6667 1439 48.7156C1599 66.7646 1759 54.7319 1839 48.7156L1919 42.6993V295.385H1839C1759 295.385 1599 295.385 1439 295.385C1279 295.385 1119 295.385 959 295.385C799 295.385 639 295.385 479 295.385C319 295.385 159 295.385 79 295.385H-1V42.6993Z" fill="#E6E9F5"/>
</svg>
