<svg width="600" height="613" viewBox="0 0 600 613" fill="none" xmlns="http://www.w3.org/2000/svg">
<rect x="0.144531" y="0.390137" width="599.594" height="599.594" rx="289" fill="url(#paint0_linear)"/>
<path d="M425.967 141.304C421.002 115.014 416.037 89.4645 411.072 63.1746C410.196 58.3609 409.32 53.5473 408.443 49.1039C407.859 45.4011 404.062 45.0308 401.726 43.1794C395.3 38.3657 386.246 32.4412 378.653 32.4412C371.935 32.4412 363.465 45.0308 358.792 49.8445C352.075 57.2501 348.862 67.9882 346.817 78.3561C344.773 88.3537 349.738 98.3513 346.233 109.089C342.729 119.087 334.259 126.863 326.373 130.566C309.141 138.712 291.033 139.082 274.093 130.195C266.499 126.493 258.321 120.198 253.648 111.311C248.975 101.314 251.312 90.2051 251.312 79.0966C251.312 67.6179 246.931 58.3609 241.382 49.8445C239.045 46.5119 235.248 42.0685 232.327 39.4766C230.575 37.9955 223.273 30.5898 221.229 30.5898C212.759 30.5898 204.581 34.6629 197.28 40.5874C196.403 41.328 189.978 45.4011 189.686 46.5119C188.81 50.9553 187.933 55.3987 187.349 59.842C184.429 76.1344 181.508 92.4268 178.587 109.089C177.419 115.754 176.251 122.79 174.79 129.455C174.498 131.306 172.454 136.86 173.038 138.712C173.622 140.934 178.879 144.636 180.34 146.118C185.889 151.672 191.438 157.226 196.987 162.78C200.2 166.113 208.086 177.591 212.467 177.591L344.189 176.851C363.465 176.851 382.45 176.481 401.434 176.481C406.399 176.481 406.399 176.851 409.612 171.667C413.409 165.372 416.621 158.707 420.418 152.042C422.463 148.709 425.383 145.007 425.967 141.304Z" fill="white" stroke="#333333"/>
<path d="M425.967 141.304C421.002 115.014 416.037 89.4645 411.072 63.1746C410.196 58.3609 409.32 53.5473 408.443 49.1039C407.859 45.4011 404.062 45.0308 401.726 43.1794C395.3 38.3657 386.246 32.4412 378.653 32.4412C371.935 32.4412 363.465 45.0308 358.792 49.8445C352.075 57.2501 348.862 67.9882 346.817 78.3561C344.773 88.3537 349.738 98.3513 346.233 109.089C342.729 119.087 334.259 126.863 326.373 130.566C309.141 138.712 291.033 139.082 274.093 130.195C266.499 126.493 258.321 120.198 253.648 111.311C248.975 101.314 251.312 90.2051 251.312 79.0966C251.312 67.6179 246.931 58.3609 241.382 49.8445C239.045 46.5119 235.248 42.0685 232.327 39.4766C230.575 37.9955 223.273 30.5898 221.229 30.5898C212.759 30.5898 204.581 34.6629 197.28 40.5874C196.403 41.328 189.978 45.4011 189.686 46.5119C188.81 50.9553 187.933 55.3987 187.349 59.842C184.429 76.1344 181.508 92.4268 178.587 109.089C177.419 115.754 176.251 122.79 174.79 129.455C174.498 131.306 172.454 136.86 173.038 138.712C173.622 140.934 178.879 144.636 180.34 146.118C185.889 151.672 191.438 157.226 196.987 162.78C200.2 166.113 208.086 177.591 212.467 177.591L344.189 176.851C362.881 176.851 381.865 176.481 400.558 176.481C404.354 176.481 405.815 177.591 407.859 173.889C413.701 163.521 419.25 153.153 425.091 142.785" fill="white"/>
<path d="M425.967 141.304C421.002 115.014 416.037 89.4645 411.072 63.1746C410.196 58.3609 409.32 53.5473 408.443 49.1039C407.859 45.4011 404.062 45.0308 401.726 43.1794C395.3 38.3657 386.246 32.4412 378.653 32.4412C371.935 32.4412 363.465 45.0308 358.792 49.8445C352.075 57.2501 348.862 67.9882 346.817 78.3561C344.773 88.3537 349.738 98.3513 346.233 109.089C342.729 119.087 334.259 126.863 326.373 130.566C309.141 138.712 291.033 139.082 274.093 130.195C266.499 126.493 258.321 120.198 253.648 111.311C248.975 101.314 251.312 90.2051 251.312 79.0966C251.312 67.6179 246.931 58.3609 241.382 49.8445C239.045 46.5119 235.248 42.0685 232.327 39.4766C230.575 37.9955 223.273 30.5898 221.229 30.5898C212.759 30.5898 204.581 34.6629 197.28 40.5874C196.403 41.328 189.978 45.4011 189.686 46.5119C188.81 50.9553 187.933 55.3987 187.349 59.842C184.429 76.1344 181.508 92.4268 178.587 109.089C177.419 115.754 176.251 122.79 174.79 129.455C174.498 131.306 172.454 136.86 173.038 138.712C173.622 140.934 178.879 144.636 180.34 146.118C185.889 151.672 191.438 157.226 196.987 162.78C200.2 166.113 208.086 177.591 212.467 177.591L344.189 176.851C362.881 176.851 381.865 176.481 400.558 176.481C404.354 176.481 405.815 177.591 407.859 173.889C413.701 163.521 419.25 153.153 425.091 142.785" stroke="#333333" stroke-miterlimit="10" stroke-linecap="square"/>
<path d="M291.91 203.141C284.9 195.365 272.342 195.735 263.58 197.216C253.649 198.697 242.551 197.216 232.328 197.216C222.106 197.216 211.592 196.846 201.662 196.105C196.404 195.735 172.455 193.143 182.093 180.924C172.747 186.848 147.921 187.219 149.382 166.853C141.496 169.815 133.318 170.926 125.14 169.075C119.591 167.964 103.819 161.669 110.245 151.301C102.359 150.931 62.0538 146.488 76.6571 125.382C68.7713 123.9 60.5935 120.568 53.5839 116.124C46.5743 111.681 38.3964 107.978 32.5551 100.943C29.6344 97.2401 26.4217 93.167 32.263 90.2048C37.2282 87.6128 41.6092 87.6128 46.8664 87.6128C56.7966 87.6128 66.1427 88.3534 75.7809 87.9831C111.997 86.1317 146.753 74.2827 179.172 53.5469C182.969 50.9549 187.058 48.7333 190.855 46.1413C185.014 55.7686 196.696 61.6931 201.954 62.804C208.379 63.9148 215.097 62.4337 221.23 59.8417C221.23 67.2473 220.938 73.1718 225.027 78.726C227.947 82.4289 234.373 83.91 238.17 81.6883C239.046 92.4265 239.922 104.275 244.303 113.903C249.268 124.641 255.402 132.047 263.58 138.341C275.554 147.969 296.875 151.671 309.142 149.08C323.161 146.488 344.482 139.082 351.492 120.938C355.873 109.459 358.209 99.0915 359.669 86.1317C360.253 80.9477 364.634 84.2803 367.847 83.1694C371.06 82.0586 375.733 78.726 376.609 74.2827C377.777 69.469 377.777 66.1365 377.193 60.9525C387.416 63.1742 412.825 68.7284 408.444 45.771C425.092 56.5092 441.448 66.1365 458.972 73.9124C475.912 81.6883 494.896 84.2803 512.712 86.502C521.766 87.6128 530.528 88.7236 539.582 88.3534C548.344 87.9831 558.859 85.7614 567.036 89.8345C576.967 94.6482 559.735 107.238 555.938 109.83C549.22 114.643 541.335 117.976 534.033 120.568C530.236 122.049 526.439 123.53 522.35 124.271C528.776 132.787 521.766 141.674 515.341 145.006C506.871 149.08 498.109 149.45 488.763 150.19C495.188 160.558 479.124 166.853 473.575 167.964C464.813 169.445 457.22 168.704 448.75 166.112C452.839 175.37 440.864 181.294 436.191 183.516C430.349 186.478 421.88 183.145 416.914 179.813C420.419 187.959 417.206 189.44 411.073 192.402C406.692 194.624 399.975 194.254 395.301 194.624C383.327 195.735 370.768 196.476 358.793 196.476C347.695 196.476 336.012 195.365 324.913 195.365C319.948 195.365 314.107 195.735 309.142 198.327C305.929 200.178 306.513 201.289 302.716 201.289C298.92 203.511 295.123 203.141 291.91 203.141Z" fill="white" stroke="#333333"/>
<path d="M291.91 203.141C284.9 195.365 272.342 195.735 263.58 197.216C253.649 198.697 242.551 197.216 232.328 197.216C222.106 197.216 211.592 196.846 201.662 196.105C196.404 195.735 172.455 193.143 182.093 180.924C172.747 186.848 147.921 187.219 149.382 166.853C141.496 169.815 133.318 170.926 125.14 169.075C119.591 167.964 103.819 161.669 110.245 151.301C102.359 150.931 62.0538 146.488 76.6571 125.382C68.7713 123.9 60.5935 120.568 53.5839 116.124C46.5743 111.681 38.3964 107.978 32.5551 100.943C29.6344 97.2401 26.4217 93.167 32.263 90.2048C37.2282 87.6128 41.6092 87.6128 46.8664 87.6128C56.7966 87.6128 66.1427 88.3534 75.7809 87.9831C111.997 86.1317 146.753 74.2827 179.172 53.5469C182.969 50.9549 187.058 48.7333 190.855 46.1413C185.014 55.7686 196.696 61.6931 201.954 62.804C208.379 63.9148 215.097 62.4337 221.23 59.8417C221.23 67.2473 220.938 73.1718 225.027 78.726C227.947 82.4289 234.373 83.91 238.17 81.6883C239.046 92.4265 239.922 104.275 244.303 113.903C249.268 124.641 255.402 132.047 263.58 138.341C275.554 147.969 296.875 151.671 309.142 149.08C323.161 146.488 344.482 139.082 351.492 120.938C355.873 109.459 358.209 99.0915 359.669 86.1317C360.253 80.9477 364.634 84.2803 367.847 83.1694C371.06 82.0586 375.733 78.726 376.609 74.2827C377.777 69.469 377.777 66.1365 377.193 60.9525C387.416 63.1742 412.825 68.7284 408.444 45.771C425.092 56.5092 441.448 66.1365 458.972 73.9124C475.912 81.6883 494.896 84.2803 512.712 86.502C521.766 87.6128 530.528 88.7236 539.582 88.3534C548.344 87.9831 558.859 85.7614 567.036 89.8345C576.967 94.6482 559.735 107.238 555.938 109.83C549.22 114.643 541.335 117.976 534.033 120.568C530.236 122.049 526.439 123.53 522.35 124.271C528.776 132.787 521.766 141.674 515.341 145.006C506.871 149.08 498.109 149.45 488.763 150.19C495.188 160.558 479.124 166.853 473.575 167.964C464.813 169.445 457.22 168.704 448.75 166.112C452.839 175.37 440.864 181.294 436.191 183.516C430.349 186.478 421.88 183.145 416.914 179.813C420.419 187.959 417.206 189.44 411.073 192.402C406.692 194.624 399.975 194.254 395.301 194.624C383.327 195.735 370.768 196.476 358.793 196.476C347.695 196.476 336.012 195.365 324.913 195.365C319.948 195.365 314.107 195.735 309.142 198.327C305.929 200.178 306.513 201.289 302.716 201.289C298.92 203.511 295.123 203.141 291.91 203.141Z" fill="white" stroke="#333333" stroke-miterlimit="10" stroke-linecap="square"/>
<path d="M287.821 469.373C290.449 469.743 291.618 463.819 293.37 461.227C296.291 457.524 299.796 454.562 303.3 451.599C309.726 446.045 316.443 440.121 323.161 435.677C330.755 430.864 337.472 426.79 343.021 418.644C344.774 416.423 354.996 392.725 350.031 392.725H333.383C326.374 392.725 329.002 392.725 325.497 399.39C321.116 409.017 314.399 416.052 306.805 421.236C291.618 431.604 278.183 441.231 270.297 461.227C267.668 467.892 268.544 475.297 268.544 482.703C274.97 478.26 281.687 474.186 288.113 469.743C288.405 469.743 288.113 469.743 287.821 469.373Z" fill="white" stroke="#333333"/>
<path d="M326.958 391.613C326.958 413.09 305.345 421.606 293.37 430.493C286.945 435.306 278.767 443.823 275.262 451.969C270.297 462.707 269.421 470.853 269.421 483.443" fill="white"/>
<path d="M326.958 391.613C326.958 413.09 305.345 421.606 293.37 430.493C286.945 435.306 278.767 443.823 275.262 451.969C270.297 462.707 269.421 470.853 269.421 483.443" stroke="#333333" stroke-miterlimit="10" stroke-linecap="square"/>
<path d="M287.821 469.373C290.45 469.743 291.618 463.819 293.371 461.227C295.999 457.524 299.504 454.932 302.717 452.34C309.142 447.156 315.568 440.861 322.285 436.418C336.888 427.161 351.2 415.312 351.2 392.725" fill="white"/>
<path d="M287.821 469.373C290.45 469.743 291.618 463.819 293.371 461.227C295.999 457.524 299.504 454.932 302.717 452.34C309.142 447.156 315.568 440.861 322.285 436.418C336.888 427.161 351.2 415.312 351.2 392.725" stroke="#333333" stroke-miterlimit="10" stroke-linecap="square"/>
<path d="M289.281 534.912C288.989 525.655 298.627 514.917 303.3 508.993C298.919 506.401 294.538 503.438 290.157 500.846C287.237 498.995 284.316 506.401 282.271 508.993C277.306 515.287 272.341 526.396 273.217 535.653C278.475 535.653 283.732 534.912 289.281 534.912Z" fill="white" stroke="#333333"/>
<path d="M289.281 534.912C288.989 525.655 298.627 514.917 303.3 508.993C298.919 506.401 294.538 503.438 290.157 500.846C287.237 498.995 284.316 506.401 282.271 508.993C277.306 515.287 272.341 526.396 273.217 535.653" fill="white"/>
<path d="M289.281 534.912C288.989 525.655 298.627 514.917 303.3 508.993C298.919 506.401 294.538 503.438 290.157 500.846C287.237 498.995 284.316 506.401 282.271 508.993C277.306 515.287 272.341 526.396 273.217 535.653" stroke="#333333" stroke-miterlimit="10" stroke-linecap="square"/>
<path d="M303.301 548.613C311.479 547.132 318.488 538.615 321.993 529.728C324.33 523.063 323.745 522.693 318.196 520.842C311.479 518.62 304.761 516.028 298.044 513.436C295.123 512.325 293.663 518.25 293.078 521.582C292.202 525.285 288.113 532.691 288.697 536.393C288.99 539.726 293.663 541.948 295.707 543.058C298.044 544.169 303.593 550.464 303.301 548.613Z" fill="white" stroke="#333333"/>
<path d="M303.3 548.613C310.894 547.502 325.497 534.172 323.744 522.693L303.3 548.613Z" fill="white"/>
<path d="M303.3 548.613C310.894 547.502 325.497 534.172 323.744 522.693" stroke="#333333" stroke-miterlimit="10" stroke-linecap="square"/>
<path d="M492.267 91.686C507.454 96.4997 524.686 99.0916 540.166 96.4997C543.086 96.1294 560.318 92.7969 562.363 95.3888C566.16 100.202 548.344 110.57 545.715 112.051C540.458 115.014 533.448 119.457 527.607 119.457H502.781C494.895 119.457 486.425 116.495 478.832 114.273C472.99 112.792 461.308 111.681 456.927 106.497" fill="white"/>
<path d="M492.267 91.686C507.454 96.4997 524.686 99.0916 540.166 96.4997C543.086 96.1294 560.318 92.7969 562.363 95.3888C566.16 100.202 548.344 110.57 545.715 112.051C540.458 115.014 533.448 119.457 527.607 119.457H502.781C494.895 119.457 486.425 116.495 478.832 114.273C472.99 112.792 461.308 111.681 456.927 106.497" stroke="#333333" stroke-miterlimit="10" stroke-linecap="square"/>
<path d="M436.189 122.419C443.491 131.306 457.802 135.009 467.148 139.452C477.663 144.636 489.93 145.007 501.32 145.007C505.993 145.007 512.127 142.044 516.216 138.712C522.057 133.528 517.092 127.233 511.835 127.233C499.568 127.233 488.469 123.901 476.203 121.309" fill="white"/>
<path d="M436.189 122.419C443.491 131.306 457.802 135.009 467.148 139.452C477.663 144.636 489.93 145.007 501.32 145.007C505.993 145.007 512.127 142.044 516.216 138.712C522.057 133.528 517.092 127.233 511.835 127.233C499.568 127.233 488.469 123.901 476.203 121.309" stroke="#333333" stroke-miterlimit="10" stroke-linecap="square"/>
<path d="M432.978 133.527C439.987 138.711 447.289 141.674 454.883 145.006C458.679 146.487 462.768 148.339 466.565 150.19C469.486 151.671 475.327 152.412 477.664 155.004C484.089 163.52 465.105 163.15 461.892 163.15C454.298 162.409 448.749 158.707 441.447 156.115" fill="white"/>
<path d="M432.978 133.527C439.987 138.711 447.289 141.674 454.883 145.006C458.679 146.487 462.768 148.339 466.565 150.19C469.486 151.671 475.327 152.412 477.664 155.004C484.089 163.52 465.105 163.15 461.892 163.15C454.298 162.409 448.749 158.707 441.447 156.115" stroke="#333333" stroke-miterlimit="10" stroke-linecap="square"/>
<path d="M408.152 143.525C413.701 147.228 447.289 161.299 439.403 174.259C434.73 181.664 421.879 176.851 416.622 174.629C409.028 171.667 402.018 167.594 395.009 163.521" fill="white"/>
<path d="M408.152 143.525C413.701 147.228 447.289 161.299 439.403 174.259C434.73 181.664 421.879 176.851 416.622 174.629C409.028 171.667 402.018 167.594 395.009 163.521" stroke="#333333" stroke-miterlimit="10" stroke-linecap="square"/>
<path d="M383.91 166.112C388.875 171.296 396.469 172.777 401.726 176.85C405.231 179.813 414.285 189.81 404.646 189.81C401.726 189.81 398.513 191.291 395.3 190.921C391.503 190.551 387.415 188.329 383.91 186.848C376.024 183.516 369.306 176.85 362.589 170.926" fill="white"/>
<path d="M383.91 166.112C388.875 171.296 396.469 172.777 401.726 176.85C405.231 179.813 414.285 189.81 404.646 189.81C401.726 189.81 398.513 191.291 395.3 190.921C391.503 190.551 387.415 188.329 383.91 186.848C376.024 183.516 369.306 176.85 362.589 170.926" stroke="#333333" stroke-miterlimit="10" stroke-linecap="square"/>
<path d="M423.63 62.0635C432.1 67.6177 441.446 70.9502 450.208 76.1341C456.342 79.4667 469.193 89.4642 454.881 92.0562C434.729 95.759 413.116 83.5398 394.716 74.2827" fill="white"/>
<path d="M423.63 62.0635C432.1 67.6177 441.446 70.9502 450.208 76.1341C456.342 79.4667 469.193 89.4642 454.881 92.0562C434.729 95.759 413.116 83.5398 394.716 74.2827" stroke="#333333" stroke-miterlimit="10" stroke-linecap="square"/>
<path d="M407.275 86.8721C413.992 91.6858 422.17 93.5372 429.18 97.6103C431.516 99.0914 437.942 101.313 439.402 104.646C441.154 108.349 438.526 107.978 435.313 109.459C426.843 113.162 418.373 106.867 410.78 103.535C402.31 99.832 394.132 93.5372 386.246 87.6126" fill="white"/>
<path d="M407.275 86.8721C413.992 91.6858 422.17 93.5372 429.18 97.6103C431.516 99.0914 437.942 101.313 439.402 104.646C441.154 108.349 438.526 107.978 435.313 109.459C426.843 113.162 418.373 106.867 410.78 103.535C402.31 99.832 394.132 93.5372 386.246 87.6126" stroke="#333333" stroke-miterlimit="10" stroke-linecap="square"/>
<path d="M376.024 90.9453C383.91 96.4995 392.672 100.202 399.973 106.497C403.77 109.83 419.542 116.495 418.666 123.9C417.789 132.787 402.31 126.862 398.805 124.641C390.335 119.087 383.033 111.311 374.271 106.127" fill="white"/>
<path d="M376.024 90.9453C383.91 96.4995 392.672 100.202 399.973 106.497C403.77 109.83 419.542 116.495 418.666 123.9C417.789 132.787 402.31 126.862 398.805 124.641C390.335 119.087 383.033 111.311 374.271 106.127" stroke="#333333" stroke-miterlimit="10" stroke-linecap="square"/>
<path d="M376.9 117.605C380.989 123.9 387.122 128.714 391.795 134.268C394.424 137.601 399.681 144.266 393.548 144.266C383.033 144.266 369.598 130.936 363.173 121.679" fill="white"/>
<path d="M376.9 117.605C380.989 123.9 387.122 128.714 391.795 134.268C394.424 137.601 399.681 144.266 393.548 144.266C383.033 144.266 369.598 130.936 363.173 121.679" stroke="#333333" stroke-miterlimit="10" stroke-linecap="square"/>
<path d="M355.872 126.493C357.916 130.936 378.069 149.82 374.272 154.634C369.015 161.299 357.624 149.82 352.951 146.118" fill="white"/>
<path d="M355.872 126.493C357.916 130.936 378.069 149.82 374.272 154.634C369.015 161.299 357.624 149.82 352.951 146.118" stroke="#333333" stroke-miterlimit="10" stroke-linecap="square"/>
<path d="M340.976 143.525C342.729 145.377 354.119 164.631 348.278 164.631C344.481 164.631 336.011 162.78 334.551 158.707" fill="white"/>
<path d="M340.976 143.525C342.729 145.377 354.119 164.631 348.278 164.631C344.481 164.631 336.011 162.78 334.551 158.707" stroke="#333333" stroke-miterlimit="10" stroke-linecap="square"/>
<path d="M321.408 155.375C323.16 159.448 326.957 162.41 326.957 167.223C326.957 172.778 323.16 174.629 319.071 175.37" fill="white"/>
<path d="M321.408 155.375C323.16 159.448 326.957 162.41 326.957 167.223C326.957 172.778 323.16 174.629 319.071 175.37" stroke="#333333" stroke-miterlimit="10" stroke-linecap="square"/>
<path d="M333.09 183.146C331.046 181.665 326.665 181.294 324.621 182.775C322.284 184.256 319.655 189.811 323.744 191.292" fill="white"/>
<path d="M333.09 183.146C331.046 181.665 326.665 181.294 324.621 182.775C322.284 184.256 319.655 189.811 323.744 191.292" stroke="#333333" stroke-miterlimit="10" stroke-linecap="square"/>
<path d="M343.897 168.334C341.56 169.815 337.763 168.334 336.011 171.296C334.55 173.518 335.427 177.221 337.763 178.702C339.808 179.813 340.976 182.034 343.312 183.145C346.525 184.626 350.03 184.256 353.827 184.256C359.668 184.256 369.306 186.478 360.836 177.221C355.871 172.037 350.906 169.075 344.481 169.075" fill="white"/>
<path d="M343.897 168.334C341.56 169.815 337.763 168.334 336.011 171.296C334.55 173.518 335.427 177.221 337.763 178.702C339.808 179.813 340.976 182.034 343.312 183.145C346.525 184.626 350.03 184.256 353.827 184.256C359.668 184.256 369.306 186.478 360.836 177.221C355.871 172.037 350.906 169.075 344.481 169.075" stroke="#333333" stroke-miterlimit="10" stroke-linecap="square"/>
<path d="M393.84 45.0304C387.415 45.4007 382.742 43.9196 376.608 47.2521C370.475 50.5847 366.386 57.2497 361.713 63.1743C365.51 55.7686 368.722 44.6602 374.856 40.5871C377.192 39.1059 381.865 36.8842 384.786 39.1059C387.123 39.8465 393.84 46.1413 393.84 45.0304Z" fill="white" stroke="#333333"/>
<path d="M105.28 90.9453C89.8008 96.4995 73.4452 95.759 57.3815 95.759C52.7085 95.759 38.3972 90.9453 35.1845 95.3887C31.6797 99.8321 50.3719 110.57 52.4164 111.681C66.7276 119.457 79.8706 119.457 95.3501 117.976C103.528 117.235 111.122 115.754 119.3 113.533C125.141 112.051 136.823 110.941 141.204 105.757" fill="white"/>
<path d="M105.28 90.9453C89.8008 96.4995 73.4452 95.759 57.3815 95.759C52.7085 95.759 38.3972 90.9453 35.1845 95.3887C31.6797 99.8321 50.3719 110.57 52.4164 111.681C66.7276 119.457 79.8706 119.457 95.3501 117.976C103.528 117.235 111.122 115.754 119.3 113.533C125.141 112.051 136.823 110.941 141.204 105.757" stroke="#333333" stroke-miterlimit="10" stroke-linecap="square"/>
<path d="M161.357 121.679C143.249 136.86 119.884 144.266 98.2708 144.266C93.3057 144.266 86.2961 141.304 82.4992 137.971C76.0737 132.417 81.623 127.233 86.5881 126.492C98.5628 124.641 110.538 123.16 122.512 120.568" fill="white"/>
<path d="M161.357 121.679C143.249 136.86 119.884 144.266 98.2708 144.266C93.3057 144.266 86.2961 141.304 82.4992 137.971C76.0737 132.417 81.623 127.233 86.5881 126.492C98.5628 124.641 110.538 123.16 122.512 120.568" stroke="#333333" stroke-miterlimit="10" stroke-linecap="square"/>
<path d="M164.569 132.417C157.267 136.86 150.257 140.563 142.664 143.896C138.867 145.377 134.778 147.599 130.981 149.08C128.645 150.19 121.635 151.672 119.883 153.893C114.041 162.41 134.194 162.41 137.115 161.669C140.035 160.558 144.416 161.299 147.337 159.448C149.965 157.966 153.762 156.115 156.683 155.004" fill="white"/>
<path d="M164.569 132.417C157.267 136.86 150.257 140.563 142.664 143.896C138.867 145.377 134.778 147.599 130.981 149.08C128.645 150.19 121.635 151.672 119.883 153.893C114.041 162.41 134.194 162.41 137.115 161.669C140.035 160.558 144.416 161.299 147.337 159.448C149.965 157.966 153.762 156.115 156.683 155.004" stroke="#333333" stroke-miterlimit="10" stroke-linecap="square"/>
<path d="M189.395 142.415C182.97 146.117 152.011 158.337 159.021 172.037C163.109 180.183 176.252 175.74 181.802 173.148C189.395 170.186 196.405 166.483 203.415 162.039" fill="white"/>
<path d="M189.395 142.415C182.97 146.117 152.011 158.337 159.021 172.037C163.109 180.183 176.252 175.74 181.802 173.148C189.395 170.186 196.405 166.483 203.415 162.039" stroke="#333333" stroke-miterlimit="10" stroke-linecap="square"/>
<path d="M213.638 165.372C207.796 168.705 201.663 172.037 196.406 176.11C192.901 179.072 183.555 189.07 193.485 189.07C200.787 189.07 206.92 189.44 214.514 185.738C222.4 181.664 229.117 176.851 234.958 169.075" fill="white"/>
<path d="M213.638 165.372C207.796 168.705 201.663 172.037 196.406 176.11C192.901 179.072 183.555 189.07 193.485 189.07C200.787 189.07 206.92 189.44 214.514 185.738C222.4 181.664 229.117 176.851 234.958 169.075" stroke="#333333" stroke-miterlimit="10" stroke-linecap="square"/>
<path d="M173.915 60.9526C170.411 64.6555 164.861 65.7663 161.065 68.7286C157.268 71.6908 152.011 72.4314 147.63 75.0234C144.417 77.2451 138.576 77.6153 137.115 82.7993C135.947 86.8724 139.452 90.9455 143.249 90.9455C164.277 90.9455 184.138 82.7993 203.706 73.1719" fill="white"/>
<path d="M173.915 60.9526C170.411 64.6555 164.861 65.7663 161.065 68.7286C157.268 71.6908 152.011 72.4314 147.63 75.0234C144.417 77.2451 138.576 77.6153 137.115 82.7993C135.947 86.8724 139.452 90.9455 143.249 90.9455C164.277 90.9455 184.138 82.7993 203.706 73.1719" stroke="#333333" stroke-miterlimit="10" stroke-linecap="square"/>
<path d="M190.272 85.7617C186.183 89.8348 177.129 93.1674 172.456 94.6485C167.199 96.4999 161.357 100.943 157.561 105.757C163.694 111.311 177.421 109.46 183.846 104.646C192.901 97.981 203.123 93.5377 212.177 86.8726" fill="white"/>
<path d="M190.272 85.7617C186.183 89.8348 177.129 93.1674 172.456 94.6485C167.199 96.4999 161.357 100.943 157.561 105.757C163.694 111.311 177.421 109.46 183.846 104.646C192.901 97.981 203.123 93.5377 212.177 86.8726" stroke="#333333" stroke-miterlimit="10" stroke-linecap="square"/>
<path d="M221.524 89.8345C214.806 96.4995 204.584 100.573 196.99 105.386C193.194 107.608 177.422 116.865 179.174 123.53C181.511 131.676 196.406 124.641 200.495 122.419C207.505 117.605 217.143 111.681 223.276 104.646" fill="white"/>
<path d="M221.524 89.8345C214.806 96.4995 204.584 100.573 196.99 105.386C193.194 107.608 177.422 116.865 179.174 123.53C181.511 131.676 196.406 124.641 200.495 122.419C207.505 117.605 217.143 111.681 223.276 104.646" stroke="#333333" stroke-miterlimit="10" stroke-linecap="square"/>
<path d="M220.648 116.495C216.559 122.419 210.718 126.492 206.629 132.417C205.168 134.639 198.743 143.155 204.292 143.155C216.267 143.155 227.657 129.084 235.543 119.457" fill="white"/>
<path d="M220.648 116.495C216.559 122.419 210.718 126.492 206.629 132.417C205.168 134.639 198.743 143.155 204.292 143.155C216.267 143.155 227.657 129.084 235.543 119.457" stroke="#333333" stroke-miterlimit="10" stroke-linecap="square"/>
<path d="M241.675 125.382C238.171 136.12 223.859 140.934 223.859 153.523C223.859 157.226 232.913 153.894 234.374 153.153C238.755 151.302 241.967 147.969 245.18 143.896" fill="white"/>
<path d="M241.675 125.382C238.171 136.12 223.859 140.934 223.859 153.523C223.859 157.226 232.913 153.894 234.374 153.153C238.755 151.302 241.967 147.969 245.18 143.896" stroke="#333333" stroke-miterlimit="10" stroke-linecap="square"/>
<path d="M256.57 142.415C254.818 146.117 244.887 159.818 248.684 163.521C251.897 166.483 260.951 159.077 263.58 157.596" fill="white"/>
<path d="M256.57 142.415C254.818 146.117 244.887 159.818 248.684 163.521C251.897 166.483 260.951 159.077 263.58 157.596" stroke="#333333" stroke-miterlimit="10" stroke-linecap="square"/>
<path d="M276.139 154.264C274.387 158.337 270.59 160.929 270.59 166.112C270.59 170.926 275.555 172.407 279.06 174.259" fill="white"/>
<path d="M276.139 154.264C274.387 158.337 270.59 160.929 270.59 166.112C270.59 170.926 275.555 172.407 279.06 174.259" stroke="#333333" stroke-miterlimit="10" stroke-linecap="square"/>
<path d="M264.457 182.035C267.378 180.924 270.006 179.073 272.927 180.924C276.14 183.146 277.308 186.478 273.803 189.811" fill="white"/>
<path d="M264.457 182.035C267.378 180.924 270.006 179.073 272.927 180.924C276.14 183.146 277.308 186.478 273.803 189.811" stroke="#333333" stroke-miterlimit="10" stroke-linecap="square"/>
<path d="M253.358 167.223C260.368 165.742 265.333 171.296 259.784 177.961C255.403 183.516 250.145 182.775 244.012 182.775C237.879 182.775 228.532 183.886 237.587 175.369C242.844 170.185 247.809 167.964 254.234 167.964" fill="white"/>
<path d="M253.358 167.223C260.368 165.742 265.333 171.296 259.784 177.961C255.403 183.516 250.145 182.775 244.012 182.775C237.879 182.775 228.532 183.886 237.587 175.369C242.844 170.185 247.809 167.964 254.234 167.964" stroke="#333333" stroke-miterlimit="10" stroke-linecap="square"/>
<path d="M203.414 43.9197C209.255 43.9197 215.681 41.698 221.23 45.0305C227.071 48.3631 231.452 55.7687 235.249 61.6932C232.329 54.2876 227.948 43.9197 222.69 39.106C216.265 32.8112 209.547 39.4763 203.414 43.9197Z" fill="white" stroke="#333333"/>
<path d="M247.808 310.152C245.764 289.046 273.51 283.492 285.193 282.751C306.222 281.64 326.666 279.789 347.695 277.197C364.927 274.975 384.203 267.199 396.178 250.907C407.568 234.985 397.054 202.4 382.159 195.365C365.511 187.218 349.447 180.183 332.8 192.032C329.879 194.254 324.33 196.476 323.453 200.919C321.993 206.103 327.834 209.435 331.339 210.176C340.393 212.027 349.155 212.398 358.209 211.287C366.095 210.546 378.07 213.508 379.53 225.357C380.99 238.317 373.105 247.204 364.635 251.647C357.041 255.35 345.943 255.35 338.057 256.831C329.003 258.683 320.241 259.794 311.479 260.534C303.301 261.645 294.831 260.904 286.653 261.645C277.891 262.756 269.713 263.126 260.951 265.348C242.551 270.162 225.611 287.194 225.611 312.003C232.913 311.633 240.507 311.263 247.808 310.152Z" fill="white" stroke="#333333"/>
<path d="M247.808 310.152C245.764 289.046 273.51 283.492 285.193 282.751C306.222 281.64 326.666 279.789 347.695 277.197C364.927 274.975 384.203 267.199 396.178 250.907C407.568 234.985 397.054 202.4 382.159 195.365C365.511 187.218 349.447 180.183 332.8 192.032C329.879 194.254 324.33 196.476 323.453 200.919C321.993 206.103 327.834 209.435 331.339 210.176C340.393 212.027 349.155 212.398 358.209 211.287C366.095 210.546 378.07 213.508 379.53 225.357C380.99 238.317 373.105 247.204 364.635 251.647C357.041 255.35 345.943 255.35 338.057 256.831C329.003 258.683 320.241 259.794 311.479 260.534C303.301 261.645 294.831 260.904 286.653 261.645C277.891 262.756 269.713 263.126 260.951 265.348C242.551 270.162 225.611 287.194 225.611 312.003" fill="white"/>
<path d="M247.808 310.152C245.764 289.046 273.51 283.492 285.193 282.751C306.222 281.64 326.666 279.789 347.695 277.197C364.927 274.975 384.203 267.199 396.178 250.907C407.568 234.985 397.054 202.4 382.159 195.365C365.511 187.218 349.447 180.183 332.8 192.032C329.879 194.254 324.33 196.476 323.453 200.919C321.993 206.103 327.834 209.435 331.339 210.176C340.393 212.027 349.155 212.398 358.209 211.287C366.095 210.546 378.07 213.508 379.53 225.357C380.99 238.317 373.105 247.204 364.635 251.647C357.041 255.35 345.943 255.35 338.057 256.831C329.003 258.683 320.241 259.794 311.479 260.534C303.301 261.645 294.831 260.904 286.653 261.645C277.891 262.756 269.713 263.126 260.951 265.348C242.551 270.162 225.611 287.194 225.611 312.003" stroke="#333333" stroke-miterlimit="10" stroke-linecap="square"/>
<path d="M285.484 316.447C284.316 239.428 282.856 162.04 281.688 85.021C292.786 85.3913 303.592 85.7616 314.399 86.1318C313.523 132.047 312.062 177.591 311.186 223.506C310.602 249.796 310.018 275.346 309.434 301.636C309.142 306.449 309.142 310.893 309.142 315.706C308.85 315.706 287.821 316.447 285.484 316.447Z" fill="white" stroke="#333333"/>
<path d="M285.484 316.447C284.316 239.428 282.856 162.04 281.688 85.021C292.786 85.3913 303.592 85.7616 314.399 86.1318C312.647 162.78 310.602 239.058 308.85 315.336" fill="white"/>
<path d="M285.484 316.447C284.316 239.428 282.856 162.04 281.688 85.021C292.786 85.3913 303.592 85.7616 314.399 86.1318C312.647 162.78 310.602 239.058 308.85 315.336" stroke="#333333" stroke-miterlimit="10" stroke-linecap="square"/>
<path d="M307.389 392.725C306.221 446.045 305.052 499.366 303.884 552.686C303.592 571.941 303.008 591.195 302.716 610.45C302.716 612.672 292.786 610.82 291.909 610.82C290.449 610.45 291.033 608.228 291.033 606.747C290.741 596.75 290.741 587.493 290.449 577.495C289.573 533.802 288.697 490.109 288.112 446.415C287.82 430.864 287.528 415.682 287.236 400.13C287.236 399.76 286.944 394.206 287.236 394.206C293.954 393.465 300.671 393.095 307.389 392.725Z" fill="white" stroke="#333333"/>
<path d="M307.389 392.725C306.221 446.045 305.052 499.366 303.884 552.686C303.592 571.941 303.008 591.195 302.716 610.45C302.716 612.672 292.786 610.82 291.909 610.82C290.449 610.45 291.033 608.228 291.033 606.747C290.741 596.75 290.741 587.492 290.449 577.495C289.573 516.028 288.113 455.302 287.236 393.835" fill="white"/>
<path d="M307.389 392.725C306.221 446.045 305.052 499.366 303.884 552.686C303.592 571.941 303.008 591.195 302.716 610.45C302.716 612.672 292.786 610.82 291.909 610.82C290.449 610.45 291.033 608.228 291.033 606.747C290.741 596.75 290.741 587.492 290.449 577.495C289.573 516.028 288.113 455.302 287.236 393.835" stroke="#333333" stroke-miterlimit="10" stroke-linecap="square"/>
<path d="M281.688 99.832C291.034 107.238 303.884 107.978 313.815 100.943L281.688 99.832Z" fill="white"/>
<path d="M281.688 99.832C291.034 107.238 303.884 107.978 313.815 100.943" stroke="#333333" stroke-miterlimit="10" stroke-linecap="square"/>
<path d="M298.043 92.7957C314.399 92.7957 327.542 77.2439 327.542 56.1378C327.542 33.5507 313.523 18.3691 295.999 18.3691C280.811 18.3691 265.624 38.3643 268.253 58.3595C269.421 67.2463 271.173 79.0953 277.891 84.2792C281.688 86.5009 295.123 97.9796 298.043 92.7957Z" fill="white" stroke="#333333"/>
<path d="M298.043 92.7968C314.399 92.7968 327.542 77.245 327.542 56.139C327.834 34.2924 314.399 18 297.459 18C281.688 18 267.961 35.0329 268.253 55.7687C268.545 78.3558 281.98 90.2048 297.751 93.5374" fill="white"/>
<path d="M298.043 92.7968C314.399 92.7968 327.542 77.245 327.542 56.139C327.834 34.2924 314.399 18 297.459 18C281.688 18 267.961 35.0329 268.253 55.7687C268.545 78.3558 281.98 90.2048 297.751 93.5374" stroke="#333333" stroke-miterlimit="10" stroke-linecap="square"/>
<path d="M317.612 497.144C326.666 482.703 328.418 460.857 319.364 445.305C308.85 427.531 289.866 424.569 278.475 407.906C272.05 398.649 267.084 388.652 277.015 379.765C284.901 372.359 295.707 370.878 304.761 368.657C321.701 364.213 339.517 359.77 353.828 346.44C361.714 339.034 367.555 331.258 371.06 319.409C374.857 306.449 371.644 297.563 366.679 285.714C359.085 267.94 333.968 260.535 319.656 260.535C303.301 260.535 285.485 260.535 269.129 257.572C259.199 255.351 249.268 253.499 239.338 252.018C231.16 250.907 222.106 243.872 219.77 233.504C212.76 202.4 248.392 213.139 260.659 210.547C266.5 209.436 281.396 205.733 272.634 195.365C267.669 189.441 255.986 184.627 249.268 184.627C231.452 184.627 214.513 192.033 203.414 209.806C198.157 218.323 195.528 229.801 198.449 240.169C201.662 252.759 208.671 258.683 217.725 264.608C251.021 286.825 292.786 273.494 327.834 285.714C334.26 287.935 348.279 292.008 349.447 302.747C350.907 316.817 344.482 323.853 336.304 331.999C322.285 346.069 300.088 347.18 283.148 351.624C272.342 354.586 255.402 363.102 250.729 377.173C244.595 394.576 248.1 413.831 261.243 424.569C272.05 433.456 283.148 441.602 293.955 450.118C299.212 454.562 301.84 459.005 305.929 464.559C308.558 467.892 305.637 484.925 305.637 489.739C307.974 489.368 317.028 497.514 317.612 497.144Z" fill="white" stroke="#333333"/>
<path d="M317.612 497.144C326.666 482.703 328.418 460.857 319.364 445.305C308.85 427.531 289.866 424.569 278.475 407.906C272.05 398.649 267.084 388.652 277.015 379.765C284.901 372.359 295.707 370.878 304.761 368.657C321.701 364.213 339.517 359.77 353.828 346.44C361.714 339.034 367.555 331.258 371.06 319.409C374.857 306.449 371.644 297.563 366.679 285.714C359.085 267.94 333.968 260.535 319.656 260.535C303.301 260.535 285.485 260.535 269.129 257.572C259.199 255.351 249.268 253.499 239.338 252.018C231.16 250.907 222.106 243.872 219.77 233.504C212.76 202.4 248.392 213.139 260.659 210.547C266.5 209.436 281.396 205.733 272.634 195.365C267.669 189.441 255.986 184.627 249.268 184.627C231.452 184.627 214.513 192.033 203.414 209.806C198.157 218.323 195.528 229.801 198.449 240.169C201.662 252.759 208.671 258.683 217.725 264.608C251.021 286.825 292.786 273.494 327.834 285.714C334.26 287.935 348.279 292.008 349.447 302.747C350.907 316.817 344.482 323.853 336.304 331.999C322.285 346.069 300.088 347.18 283.148 351.624C272.342 354.586 255.402 363.102 250.729 377.173C244.595 394.576 248.1 413.831 261.243 424.569C272.05 433.456 283.148 441.602 293.955 450.118C299.212 454.562 301.84 459.005 305.929 464.559C308.558 467.892 305.637 484.925 305.637 489.738C310.018 490.109 314.691 494.552 318.196 498.625" fill="white"/>
<path d="M317.612 497.144C326.666 482.703 328.418 460.857 319.364 445.305C308.85 427.531 289.866 424.569 278.475 407.906C272.05 398.649 267.084 388.652 277.015 379.765C284.901 372.359 295.707 370.878 304.761 368.657C321.701 364.213 339.517 359.77 353.828 346.44C361.714 339.034 367.555 331.258 371.06 319.409C374.857 306.449 371.644 297.563 366.679 285.714C359.085 267.94 333.968 260.535 319.656 260.535C303.301 260.535 285.485 260.535 269.129 257.572C259.199 255.351 249.268 253.499 239.338 252.018C231.16 250.907 222.106 243.872 219.77 233.504C212.76 202.4 248.392 213.139 260.659 210.547C266.5 209.436 281.396 205.733 272.634 195.365C267.669 189.441 255.986 184.627 249.268 184.627C231.452 184.627 214.513 192.033 203.414 209.806C198.157 218.323 195.528 229.801 198.449 240.169C201.662 252.759 208.671 258.683 217.725 264.608C251.021 286.824 292.786 273.494 327.834 285.714C334.26 287.935 348.279 292.008 349.447 302.747C350.907 316.817 344.482 323.853 336.304 331.999C322.285 346.069 300.088 347.18 283.148 351.624C272.342 354.586 255.402 363.102 250.729 377.173C244.595 394.576 248.1 413.831 261.243 424.569C272.05 433.456 283.148 441.602 293.955 450.118C299.212 454.562 301.84 459.005 305.929 464.559C308.558 467.892 305.637 484.925 305.637 489.738C310.018 490.109 314.691 494.552 318.196 498.625" stroke="#333333" stroke-miterlimit="10" stroke-linecap="square"/>
<path d="M303.3 600.452C307.389 603.414 312.646 597.12 312.646 591.565C312.646 584.53 311.77 580.087 306.805 576.013C298.627 568.978 290.741 563.794 283.44 554.537C281.687 559.351 278.767 565.275 278.767 570.459C278.767 577.865 279.935 579.716 283.148 585.641C284.316 587.863 290.741 591.195 293.078 592.306C296.583 594.528 300.087 597.49 303.3 600.452Z" fill="white" stroke="#333333"/>
<path d="M303.3 600.452C307.389 603.414 312.646 597.12 312.646 591.565C312.646 584.53 311.77 580.087 306.805 576.013C298.627 568.978 290.741 563.794 283.44 554.537C281.687 559.351 278.767 565.275 278.767 570.459C278.767 577.865 279.935 579.716 283.148 585.641C284.316 587.863 290.741 591.195 293.078 592.306C296.583 594.528 300.087 597.49 303.3 600.452Z" fill="white" stroke="#333333" stroke-miterlimit="10" stroke-linecap="square"/>
<path d="M250.436 193.143C250.728 193.513 250.144 194.254 251.312 194.254C255.109 188.7 245.471 190.551 249.56 194.254C250.728 194.624 250.144 193.884 250.436 193.143Z" fill="white" stroke="#333333"/>
<path d="M350.323 194.994C353.244 195.365 352.951 192.403 351.199 192.032C349.155 192.032 347.402 194.624 350.323 194.994Z" fill="white" stroke="#333333"/>
<path d="M318.196 56.8794C322.577 66.5067 309.726 80.5774 304.177 83.9099C310.31 82.7991 312.647 79.0963 316.736 73.9123C318.78 70.9501 321.701 59.1011 318.196 56.8794Z" fill="white" stroke="#333333"/>
<path d="M287.237 393.836L286.068 334.591C286.068 332.369 285.192 316.447 286.36 316.447C293.954 316.077 301.548 316.076 309.142 315.336C308.85 334.591 308.265 353.475 307.973 372.73C307.973 376.062 309.434 390.133 307.681 392.725C306.805 393.836 298.919 393.095 297.459 393.095C293.954 393.465 290.449 393.465 287.237 393.836Z" fill="white" stroke="#333333"/>
<path d="M308.85 314.225L307.39 392.725" stroke="#333333" stroke-miterlimit="10" stroke-linecap="square"/>
<path d="M287.237 393.836L285.484 316.447" stroke="#333333" stroke-miterlimit="10" stroke-linecap="square"/>
<path d="M351.2 391.614C345.651 356.437 314.692 350.142 291.034 344.958C277.891 341.996 268.253 338.293 257.447 327.555C255.986 326.444 247.224 310.152 247.516 310.152C239.923 310.892 232.621 311.263 225.027 312.374C226.78 320.89 228.24 327.555 232.913 334.59C237.294 341.255 242.259 346.069 248.101 351.253C258.907 360.51 273.218 364.953 285.777 367.916C296.876 370.508 310.895 371.618 320.241 380.505C322.577 382.727 324.914 384.208 326.082 387.911C326.958 391.614 326.666 393.095 329.879 393.095C333.092 392.725 350.032 394.946 351.2 391.614Z" fill="white" stroke="#333333"/>
<path d="M225.318 312.374C228.531 326.444 233.204 336.812 242.55 346.069C251.312 354.586 262.411 360.14 272.925 363.843C289.573 369.767 321.408 367.916 327.542 392.725" fill="white"/>
<path d="M225.318 312.374C228.531 326.444 233.204 336.812 242.55 346.069C251.312 354.586 262.411 360.14 272.925 363.843C289.573 369.767 321.408 367.916 327.542 392.725" stroke="#333333" stroke-miterlimit="10" stroke-linecap="square"/>
<path d="M351.198 391.614C341.268 327.925 265.623 366.435 248.099 310.152L351.198 391.614Z" fill="white"/>
<path d="M351.198 391.614C341.268 327.925 265.623 366.435 248.099 310.152" stroke="#333333" stroke-miterlimit="10" stroke-linecap="square"/>
<path d="M304.177 523.804C308.85 516.028 289.574 510.474 285.485 507.882C279.644 504.179 270.882 495.663 269.713 486.776C268.837 480.851 272.05 481.222 276.139 478.26C280.52 475.297 284.609 472.705 288.698 470.113C285.777 480.481 292.495 482.703 298.628 485.295C305.346 488.257 310.603 492.7 316.736 496.403C321.701 499.365 324.622 510.844 324.622 517.88C324.33 524.545 321.701 523.063 316.736 523.434C312.647 523.434 308.266 523.804 304.177 523.804Z" fill="white" stroke="#333333"/>
<path d="M323.745 523.064C329.587 510.474 317.32 497.514 310.602 492.33C305.637 488.627 300.672 486.776 294.831 484.184C289.282 481.962 286.361 477.519 288.405 470.113" fill="white"/>
<path d="M323.745 523.064C329.587 510.474 317.32 497.514 310.602 492.33C305.637 488.627 300.672 486.776 294.831 484.184C289.282 481.962 286.361 477.519 288.405 470.113" stroke="#333333" stroke-miterlimit="10" stroke-linecap="square"/>
<path d="M304.177 523.804C307.39 518.25 296.583 511.955 293.078 511.955C282.856 511.955 270.589 494.552 269.129 483.073" fill="white"/>
<path d="M304.177 523.804C307.39 518.25 296.583 511.955 293.078 511.955C282.856 511.955 270.589 494.552 269.129 483.073" stroke="#333333" stroke-miterlimit="10" stroke-linecap="square"/>
<path d="M272.925 535.653C275.261 556.018 295.706 568.978 308.849 577.124C310.017 571.57 312.646 569.348 312.646 563.054C312.646 555.648 306.22 551.575 301.547 548.242C296.874 544.91 293.662 540.096 289.865 536.393C287.528 534.172 286.944 534.542 283.439 534.912C279.934 535.283 276.43 535.653 272.925 535.653Z" fill="white" stroke="#333333"/>
<path d="M272.925 535.653C275.261 556.019 295.706 568.978 308.849 577.125C309.725 573.792 312.646 571.57 312.646 567.127C312.646 560.462 311.77 557.87 307.973 553.056C302.424 545.651 292.201 544.54 289.281 534.172" fill="white"/>
<path d="M272.925 535.653C275.261 556.019 295.706 568.978 308.849 577.125C309.725 573.792 312.646 571.57 312.646 567.127C312.646 560.462 311.77 557.87 307.973 553.056C302.424 545.651 292.201 544.54 289.281 534.172" stroke="#333333" stroke-miterlimit="10" stroke-linecap="square"/>
<defs>
<linearGradient id="paint0_linear" x1="398.32" y1="0.390126" x2="178.501" y2="585.5" gradientUnits="userSpaceOnUse">
<stop stop-color="#F5F6FC" stop-opacity="0"/>
<stop offset="1" stop-color="#F3F4F8"/>
</linearGradient>
</defs>
</svg>
