<svg width="1859" height="1607" viewBox="0 0 1859 1607" fill="none" xmlns="http://www.w3.org/2000/svg">
<path d="M1364.7 334.487C1348.32 264.127 1330.01 193.767 1313.62 123.407C1310.73 110.877 1306.87 97.3836 1304.95 84.8538C1303.02 75.2154 1290.49 73.2878 1281.82 68.4686C1259.65 54.9749 1228.81 39.5535 1202.78 39.5535C1179.65 39.5535 1150.74 73.2878 1134.35 86.7814C1111.22 106.058 1099.65 135.937 1092.91 163.888C1086.16 190.876 1103.51 218.827 1090.98 246.778C1079.41 273.765 1049.54 294.97 1023.51 304.608C964.719 326.776 902.071 327.74 844.242 303.644C818.219 293.042 789.304 276.657 773.883 252.561C757.498 225.574 766.172 194.731 766.172 165.816C766.172 134.973 751.715 109.913 732.439 86.7814C724.728 78.1069 711.235 65.5771 701.597 58.8302C694.85 54.9749 669.791 34.7344 664.008 34.7344C635.093 34.7344 607.142 46.3004 582.083 61.7217C578.228 63.6494 557.024 75.2154 556.06 78.1069C553.169 89.6729 550.277 102.203 548.349 113.769C538.711 158.105 529.073 201.478 518.471 246.778C514.616 265.091 509.797 283.404 505.941 301.717C504.978 306.536 498.231 321.957 500.158 326.776C502.086 333.523 519.435 343.161 525.218 346.053C544.494 361.474 562.807 375.932 582.083 391.353C593.649 400.028 619.672 430.87 635.093 430.87L1087.12 428.943C1152.66 428.943 1218.2 427.979 1283.74 427.979C1301.09 427.979 1301.09 428.943 1311.69 414.485C1324.22 397.136 1335.79 379.787 1348.32 361.474C1353.14 354.727 1362.78 344.125 1364.7 334.487Z" fill="white" stroke="#333333"/>
<path d="M1364.7 334.487C1348.32 264.127 1330.01 193.767 1313.62 123.407C1310.73 110.877 1306.87 97.3836 1304.95 84.8538C1303.02 75.2154 1290.49 73.2878 1281.82 68.4686C1259.65 54.9749 1228.81 39.5535 1202.78 39.5535C1179.65 39.5535 1150.74 73.2878 1134.35 86.7814C1111.22 106.058 1099.65 135.937 1092.91 163.888C1086.16 190.876 1103.51 218.827 1090.98 246.778C1079.41 273.765 1049.54 294.97 1023.51 304.608C964.719 326.776 902.071 327.74 844.242 303.644C818.219 293.042 789.304 276.657 773.883 252.561C757.498 225.574 766.172 194.731 766.172 165.816C766.172 134.973 751.715 109.913 732.439 86.7814C724.728 78.1069 711.235 65.5771 701.597 58.8302C694.85 54.9749 669.791 34.7344 664.008 34.7344C635.093 34.7344 607.142 46.3004 582.083 61.7217C578.228 63.6494 557.024 75.2154 556.06 78.1069C553.169 89.6729 550.277 102.203 548.349 113.769C538.711 158.105 529.073 201.478 518.471 246.778C514.616 265.091 509.797 283.404 505.941 301.717C504.978 306.536 498.231 321.957 500.158 326.776C502.086 333.523 519.435 343.161 525.218 346.053C544.494 361.474 562.807 375.932 582.083 391.353C593.649 400.028 619.672 430.87 635.093 430.87L1087.12 428.943C1151.7 428.943 1216.28 427.979 1280.85 427.979C1293.38 427.979 1299.16 430.87 1305.91 421.232C1325.19 393.281 1345.43 365.33 1365.67 337.378" fill="white"/>
<path d="M1364.7 334.487C1348.32 264.127 1330.01 193.767 1313.62 123.407C1310.73 110.877 1306.87 97.3836 1304.95 84.8538C1303.02 75.2154 1290.49 73.2878 1281.82 68.4686C1259.65 54.9749 1228.81 39.5535 1202.78 39.5535C1179.65 39.5535 1150.74 73.2878 1134.35 86.7814C1111.22 106.058 1099.65 135.937 1092.91 163.888C1086.16 190.876 1103.51 218.827 1090.98 246.778C1079.41 273.765 1049.54 294.97 1023.51 304.608C964.719 326.776 902.071 327.74 844.242 303.644C818.219 293.042 789.304 276.657 773.883 252.561C757.498 225.574 766.172 194.731 766.172 165.816C766.172 134.973 751.715 109.913 732.439 86.7814C724.728 78.1069 711.235 65.5771 701.597 58.8302C694.85 54.9749 669.791 34.7344 664.008 34.7344C635.093 34.7344 607.142 46.3004 582.083 61.7217C578.228 63.6494 557.024 75.2154 556.06 78.1069C553.169 89.6729 550.277 102.203 548.349 113.769C538.711 158.105 529.073 201.478 518.471 246.778C514.616 265.091 509.797 283.404 505.941 301.717C504.978 306.536 498.231 321.957 500.158 326.776C502.086 333.523 519.435 343.161 525.218 346.053C544.494 361.474 562.807 375.932 582.083 391.353C593.649 400.028 619.672 430.87 635.093 430.87L1087.12 428.943C1151.7 428.943 1216.28 427.979 1280.85 427.979C1293.38 427.979 1299.16 430.87 1305.91 421.232C1325.19 393.281 1345.43 365.33 1365.67 337.378" stroke="#333333" stroke-miterlimit="10" stroke-linecap="square"/>
<path d="M904.964 501.228C880.869 480.024 837.497 480.988 807.619 484.843C772.921 488.698 735.332 484.843 700.635 484.843C665.937 484.843 630.276 483.879 594.615 481.952C576.302 480.988 494.378 474.241 527.147 441.47C495.341 457.856 409.561 457.856 414.381 403.881C387.394 411.592 359.443 415.447 331.492 409.664C312.216 405.809 259.206 389.423 280.41 361.472C253.423 360.508 115.597 347.979 164.751 291.112C137.765 287.257 109.814 277.619 85.7184 266.053C61.6229 254.487 33.6721 244.848 13.432 224.608C2.82995 214.006 -7.77206 203.403 12.4681 195.693C28.8531 188.946 44.2742 188.946 62.5867 188.946C96.3204 188.946 128.126 190.874 161.86 189.91C286.193 185.091 405.706 153.284 516.545 96.4178C530.039 89.6709 543.532 82.9241 556.062 76.1772C536.786 102.201 575.338 118.586 594.615 121.477C615.819 125.333 639.914 120.514 660.154 113.767C660.154 133.043 659.191 150.393 673.648 164.85C683.286 174.488 705.454 179.308 718.947 173.525C722.803 202.44 724.73 234.246 740.151 260.27C756.536 289.185 777.74 309.425 805.691 326.774C847.135 352.798 919.422 362.436 962.793 355.689C1010.98 348.942 1084.23 328.702 1108.33 279.546C1123.75 248.704 1131.46 219.789 1136.28 186.054C1138.21 171.597 1152.67 181.235 1164.23 178.344C1175.8 175.452 1191.22 166.778 1194.11 154.248C1197.97 140.754 1197.97 132.08 1196.04 118.586C1230.74 124.369 1318.44 139.79 1303.02 78.1049C1359.89 107.02 1416.75 133.043 1476.51 154.248C1534.34 175.452 1599.88 182.199 1660.6 187.982C1691.44 190.874 1722.28 193.765 1753.12 192.801C1783 191.837 1818.66 186.054 1847.58 196.657C1881.31 210.15 1822.52 243.884 1809.99 251.595C1786.86 265.089 1759.87 272.799 1734.81 280.51C1721.32 284.365 1708.79 288.221 1695.3 291.112C1717.46 314.244 1693.37 338.34 1671.2 347.015C1642.29 358.581 1611.44 358.581 1580.6 361.472C1601.81 389.423 1547.83 406.772 1528.56 409.664C1498.68 413.519 1472.65 411.592 1443.74 404.845C1458.2 429.904 1416.75 446.29 1400.37 452.073C1381.09 459.783 1351.21 451.109 1333.86 442.434C1345.43 464.603 1334.83 468.458 1314.59 477.132C1299.17 483.879 1276.03 481.952 1259.65 483.879C1218.21 487.735 1175.8 488.698 1134.35 488.698C1095.8 488.698 1056.28 485.807 1018.69 485.807C1001.35 485.807 982.07 486.771 964.721 494.481C953.155 499.301 956.047 503.156 943.517 502.192C929.06 502.192 916.53 502.192 904.964 501.228Z" fill="white" stroke="#333333"/>
<path d="M904.964 501.228C880.869 480.024 837.497 480.988 807.619 484.843C772.921 488.698 735.332 484.843 700.635 484.843C665.937 484.843 630.276 483.879 594.615 481.952C576.302 480.988 494.378 474.241 527.147 441.47C495.341 457.856 409.561 457.856 414.381 403.881C387.394 411.592 359.443 415.447 331.492 409.664C312.216 405.809 259.206 389.423 280.41 361.472C253.423 360.508 115.597 347.979 164.751 291.112C137.765 287.257 109.814 277.619 85.7184 266.053C61.6229 254.487 33.6721 244.848 13.432 224.608C2.82995 214.006 -7.77206 203.403 12.4681 195.693C28.8531 188.946 44.2742 188.946 62.5867 188.946C96.3204 188.946 128.126 190.874 161.86 189.91C286.193 185.091 405.706 153.284 516.545 96.4178C530.039 89.6709 543.532 82.9241 556.062 76.1772C536.786 102.201 575.338 118.586 594.615 121.477C615.819 125.333 639.914 120.514 660.154 113.767C660.154 133.043 659.191 150.393 673.648 164.85C683.286 174.488 705.454 179.308 718.947 173.525C722.803 202.44 724.73 234.246 740.151 260.27C756.536 289.185 777.74 309.425 805.691 326.774C847.135 352.798 919.422 362.436 962.793 355.689C1010.98 348.942 1084.23 328.702 1108.33 279.546C1123.75 248.704 1131.46 219.789 1136.28 186.054C1138.21 171.597 1152.67 181.235 1164.23 178.344C1175.8 175.452 1191.22 166.778 1194.11 154.248C1197.97 140.754 1197.97 132.08 1196.04 118.586C1230.74 124.369 1318.44 139.79 1303.02 78.1049C1359.89 107.02 1416.75 133.043 1476.51 154.248C1534.34 175.452 1599.88 182.199 1660.6 187.982C1691.44 190.874 1722.28 193.765 1753.12 192.801C1783 191.837 1818.66 186.054 1847.58 196.657C1881.31 210.15 1822.52 243.884 1809.99 251.595C1786.86 265.089 1759.87 272.799 1734.81 280.51C1721.32 284.365 1708.79 288.221 1695.3 291.112C1717.46 314.244 1693.37 338.34 1671.2 347.015C1642.29 358.581 1611.44 358.581 1580.6 361.472C1601.81 389.423 1547.83 406.772 1528.56 409.664C1498.68 413.519 1472.65 411.592 1443.74 404.845C1458.2 429.904 1416.75 446.29 1400.37 452.073C1381.09 459.783 1351.21 451.109 1333.86 442.434C1345.43 464.603 1334.83 468.458 1314.59 477.132C1299.17 483.879 1276.03 481.952 1259.65 483.879C1218.21 487.735 1175.8 488.698 1134.35 488.698C1095.8 488.698 1056.28 485.807 1018.69 485.807C1001.35 485.807 982.07 486.771 964.721 494.481C953.155 499.301 956.047 503.156 943.517 502.192C929.06 502.192 916.53 502.192 904.964 501.228Z" fill="white" stroke="#333333" stroke-miterlimit="10" stroke-linecap="square"/>
<path d="M891.469 1221.21C900.143 1222.17 904.962 1205.79 910.745 1200.01C920.383 1189.4 932.913 1181.69 945.443 1173.98C967.61 1159.53 990.742 1142.18 1013.87 1130.61C1039.9 1118.08 1063.03 1106.51 1082.3 1084.35C1088.09 1077.6 1122.79 1013.99 1106.4 1013.99H1048.57C1024.48 1013.99 1033.15 1013.99 1021.58 1032.3C1006.16 1058.32 983.995 1077.6 957.008 1092.06C904.962 1120.01 858.699 1146.03 831.712 1200.01C823.038 1218.32 824.965 1238.56 824.965 1257.84C847.133 1246.27 869.301 1234.7 892.433 1223.14C892.433 1223.14 892.433 1222.17 891.469 1221.21Z" fill="white" stroke="#333333"/>
<path d="M1024.48 1012.07C1024.48 1069.9 950.264 1093.03 908.82 1117.12C887.616 1129.65 858.701 1153.75 846.171 1174.95C828.823 1203.87 825.931 1226.04 825.931 1259.77" fill="white"/>
<path d="M1024.48 1012.07C1024.48 1069.9 950.264 1093.03 908.82 1117.12C887.616 1129.65 858.701 1153.75 846.171 1174.95C828.823 1203.87 825.931 1226.04 825.931 1259.77" stroke="#333333" stroke-miterlimit="10" stroke-linecap="square"/>
<path d="M891.469 1221.22C900.143 1222.18 904.962 1205.79 910.745 1200.01C919.419 1190.37 931.949 1182.66 942.551 1175.92C963.755 1161.46 986.887 1144.11 1010.02 1133.51C1060.14 1108.45 1109.29 1076.64 1109.29 1014.96" fill="white"/>
<path d="M891.469 1221.22C900.143 1222.18 904.962 1205.79 910.745 1200.01C919.419 1190.37 931.949 1182.66 942.551 1175.92C963.755 1161.46 986.887 1144.11 1010.02 1133.51C1060.14 1108.45 1109.29 1076.64 1109.29 1014.96" stroke="#333333" stroke-miterlimit="10" stroke-linecap="square"/>
<path d="M896.287 1398.56C895.323 1373.5 928.093 1344.59 944.477 1328.2C929.056 1321.45 914.599 1313.74 899.178 1307C888.576 1302.18 879.902 1321.45 872.191 1329.16C855.806 1345.55 838.457 1376.39 840.385 1401.45C858.698 1400.49 877.01 1399.52 896.287 1398.56Z" fill="white" stroke="#333333"/>
<path d="M896.287 1398.56C895.323 1373.5 928.093 1344.59 944.477 1328.2C929.056 1321.45 914.599 1313.74 899.178 1307C888.576 1302.18 879.902 1321.45 872.191 1329.16C855.806 1345.55 838.457 1376.39 840.385 1401.45" fill="white"/>
<path d="M896.287 1398.56C895.323 1373.5 928.093 1344.59 944.477 1328.2C929.056 1321.45 914.599 1313.74 899.178 1307C888.576 1302.18 879.902 1321.45 872.191 1329.16C855.806 1345.55 838.457 1376.39 840.385 1401.45" stroke="#333333" stroke-miterlimit="10" stroke-linecap="square"/>
<path d="M944.479 1436.15C972.43 1432.3 996.525 1409.17 1009.06 1385.07C1017.73 1366.76 1014.84 1365.79 996.525 1360.97C973.394 1354.23 950.262 1347.48 927.131 1341.7C917.492 1338.81 911.709 1355.19 909.782 1363.87C906.89 1373.5 893.397 1393.75 894.361 1403.38C895.325 1412.06 910.746 1418.8 918.456 1421.7C925.203 1424.59 945.443 1440.97 944.479 1436.15Z" fill="white" stroke="#333333"/>
<path d="M944.479 1436.15C970.502 1432.3 1020.62 1396.64 1014.84 1365.79Z" fill="white"/>
<path d="M944.479 1436.15C970.502 1432.3 1020.62 1396.64 1014.84 1365.79" stroke="#333333" stroke-miterlimit="10" stroke-linecap="square"/>
<path d="M1592.17 200.516C1644.21 214.009 1703 220.756 1756.98 214.009C1767.58 213.045 1826.37 203.407 1833.12 211.118C1846.61 224.611 1784.93 252.563 1775.29 255.454C1756.98 263.165 1732.88 274.731 1712.64 274.731H1627.83C1600.84 274.731 1571.93 266.056 1544.94 260.273C1525.66 256.418 1485.18 253.527 1469.76 239.069" fill="white"/>
<path d="M1592.17 200.516C1644.21 214.009 1703 220.756 1756.98 214.009C1767.58 213.045 1826.37 203.407 1833.12 211.118C1846.61 224.611 1784.93 252.563 1775.29 255.454C1756.98 263.165 1732.88 274.731 1712.64 274.731H1627.83C1600.84 274.731 1571.93 266.056 1544.94 260.273C1525.66 256.418 1485.18 253.527 1469.76 239.069" stroke="#333333" stroke-miterlimit="10" stroke-linecap="square"/>
<path d="M1399.4 283.403C1424.46 307.499 1473.62 318.101 1505.42 329.667C1542.05 344.125 1583.49 345.089 1622.05 345.089C1638.43 345.089 1658.67 336.414 1673.13 327.74C1693.37 313.282 1676.02 296.897 1657.71 296.897C1615.3 296.897 1577.71 288.222 1536.27 280.512" fill="white"/>
<path d="M1399.4 283.403C1424.46 307.499 1473.62 318.101 1505.42 329.667C1542.05 344.125 1583.49 345.089 1622.05 345.089C1638.43 345.089 1658.67 336.414 1673.13 327.74C1693.37 313.282 1676.02 296.897 1657.71 296.897C1615.3 296.897 1577.71 288.222 1536.27 280.512" stroke="#333333" stroke-miterlimit="10" stroke-linecap="square"/>
<path d="M1388.8 313.286C1412.89 327.744 1437.95 335.454 1463.97 345.093C1477.47 348.948 1490.96 353.767 1503.49 359.55C1513.13 363.405 1533.37 365.333 1541.08 373.044C1563.25 396.176 1498.67 395.212 1487.11 394.248C1461.08 392.321 1441.81 382.682 1416.75 374.972" fill="white"/>
<path d="M1388.8 313.286C1412.89 327.744 1437.95 335.454 1463.97 345.093C1477.47 348.948 1490.96 353.767 1503.49 359.55C1513.13 363.405 1533.37 365.333 1541.08 373.044C1563.25 396.176 1498.67 395.212 1487.11 394.248C1461.08 392.321 1441.81 382.682 1416.75 374.972" stroke="#333333" stroke-miterlimit="10" stroke-linecap="square"/>
<path d="M1303.02 340.271C1322.3 349.91 1436.99 388.463 1410 423.161C1393.62 443.402 1350.25 429.908 1331.93 424.125C1305.91 415.451 1281.82 404.848 1257.72 394.246" fill="white"/>
<path d="M1303.02 340.271C1322.3 349.91 1436.99 388.463 1410 423.161C1393.62 443.402 1350.25 429.908 1331.93 424.125C1305.91 415.451 1281.82 404.848 1257.72 394.246" stroke="#333333" stroke-miterlimit="10" stroke-linecap="square"/>
<path d="M1220.13 401.96C1236.51 416.417 1262.54 420.273 1281.81 430.875C1293.38 438.586 1325.18 465.573 1292.41 465.573C1281.81 465.573 1271.21 469.428 1260.61 468.464C1247.11 467.501 1233.62 461.718 1221.09 456.898C1194.1 448.224 1170.97 429.911 1147.84 414.49" fill="white"/>
<path d="M1220.13 401.96C1236.51 416.417 1262.54 420.273 1281.81 430.875C1293.38 438.586 1325.18 465.573 1292.41 465.573C1281.81 465.573 1271.21 469.428 1260.61 468.464C1247.11 467.501 1233.62 461.718 1221.09 456.898C1194.1 448.224 1170.97 429.911 1147.84 414.49" stroke="#333333" stroke-miterlimit="10" stroke-linecap="square"/>
<path d="M1356.99 120.519C1385.91 134.977 1417.71 144.615 1447.59 158.109C1468.8 166.783 1512.17 194.734 1463.98 200.517C1394.58 210.156 1320.37 177.385 1257.72 152.326" fill="white"/>
<path d="M1356.99 120.519C1385.91 134.977 1417.71 144.615 1447.59 158.109C1468.8 166.783 1512.17 194.734 1463.98 200.517C1394.58 210.156 1320.37 177.385 1257.72 152.326" stroke="#333333" stroke-miterlimit="10" stroke-linecap="square"/>
<path d="M1300.13 187.027C1323.26 199.557 1351.21 205.34 1375.31 215.942C1383.98 219.797 1405.19 225.58 1410.01 235.219C1415.79 245.821 1406.15 243.893 1395.55 247.748C1366.63 257.387 1337.72 241.002 1311.7 231.363C1282.78 221.725 1253.87 204.376 1227.85 188.955" fill="white"/>
<path d="M1300.13 187.027C1323.26 199.557 1351.21 205.34 1375.31 215.942C1383.98 219.797 1405.19 225.58 1410.01 235.219C1415.79 245.821 1406.15 243.893 1395.55 247.748C1366.63 257.387 1337.72 241.002 1311.7 231.363C1282.78 221.725 1253.87 204.376 1227.85 188.955" stroke="#333333" stroke-miterlimit="10" stroke-linecap="square"/>
<path d="M1193.14 197.626C1220.13 212.083 1250.97 222.686 1276.03 240.035C1289.52 248.709 1343.5 267.022 1340.61 287.263C1336.75 311.358 1284.71 295.937 1272.18 289.19C1243.26 274.733 1217.24 252.565 1188.32 239.071" fill="white"/>
<path d="M1193.14 197.626C1220.13 212.083 1250.97 222.686 1276.03 240.035C1289.52 248.709 1343.5 267.022 1340.61 287.263C1336.75 311.358 1284.71 295.937 1272.18 289.19C1243.26 274.733 1217.24 252.565 1188.32 239.071" stroke="#333333" stroke-miterlimit="10" stroke-linecap="square"/>
<path d="M1196.04 270.874C1210.5 287.259 1230.74 300.753 1247.12 316.174C1255.79 324.849 1274.11 343.162 1252.9 343.162C1216.28 343.162 1170.98 307.5 1148.81 281.476" fill="white"/>
<path d="M1196.04 270.874C1210.5 287.259 1230.74 300.753 1247.12 316.174C1255.79 324.849 1274.11 343.162 1252.9 343.162C1216.28 343.162 1170.98 307.5 1148.81 281.476" stroke="#333333" stroke-miterlimit="10" stroke-linecap="square"/>
<path d="M1123.75 294.009C1130.5 305.575 1199.89 356.658 1186.4 370.152C1168.09 388.465 1128.57 356.658 1113.15 347.02" fill="white"/>
<path d="M1123.75 294.009C1130.5 305.575 1199.89 356.658 1186.4 370.152C1168.09 388.465 1128.57 356.658 1113.15 347.02" stroke="#333333" stroke-miterlimit="10" stroke-linecap="square"/>
<path d="M1072.67 340.271C1078.45 345.091 1117.97 397.138 1097.73 397.138C1084.23 397.138 1055.32 392.319 1050.5 380.753" fill="white"/>
<path d="M1072.67 340.271C1078.45 345.091 1117.97 397.138 1097.73 397.138C1084.23 397.138 1055.32 392.319 1050.5 380.753" stroke="#333333" stroke-miterlimit="10" stroke-linecap="square"/>
<path d="M1006.16 372.076C1012.91 383.642 1025.44 391.353 1025.44 403.883C1025.44 418.34 1011.94 424.123 998.45 425.087" fill="white"/>
<path d="M1006.16 372.076C1012.91 383.642 1025.44 391.353 1025.44 403.883C1025.44 418.34 1011.94 424.123 998.45 425.087" stroke="#333333" stroke-miterlimit="10" stroke-linecap="square"/>
<path d="M1045.68 447.255C1038.93 443.4 1023.51 442.436 1016.77 446.291C1008.09 450.147 1000.38 465.568 1013.88 469.423" fill="white"/>
<path d="M1045.68 447.255C1038.93 443.4 1023.51 442.436 1016.77 446.291C1008.09 450.147 1000.38 465.568 1013.88 469.423" stroke="#333333" stroke-miterlimit="10" stroke-linecap="square"/>
<path d="M1083.27 407.74C1074.59 411.596 1062.06 407.74 1056.28 416.415C1051.46 423.162 1054.35 432.8 1062.06 436.655C1068.81 440.511 1073.63 445.33 1081.34 448.221C1092.91 452.077 1104.47 451.113 1117 451.113C1136.28 451.113 1170.01 457.86 1141.1 431.836C1124.71 417.379 1106.4 410.632 1085.2 410.632" fill="white"/>
<path d="M1083.27 407.74C1074.59 411.596 1062.06 407.74 1056.28 416.415C1051.46 423.162 1054.35 432.8 1062.06 436.655C1068.81 440.511 1073.63 445.33 1081.34 448.221C1092.91 452.077 1104.47 451.113 1117 451.113C1136.28 451.113 1170.01 457.86 1141.1 431.836C1124.71 417.379 1106.4 410.632 1085.2 410.632" stroke="#333333" stroke-miterlimit="10" stroke-linecap="square"/>
<path d="M1254.83 74.2492C1233.62 75.213 1216.27 70.3938 1196.03 80.0322C1174.83 88.7067 1161.34 107.02 1144.95 122.441C1158.44 103.164 1169.05 72.3215 1190.25 60.7555C1197.96 56.9002 1214.35 51.1172 1223.98 56.9002C1230.73 59.7917 1253.86 77.1407 1254.83 74.2492Z" fill="white" stroke="#333333"/>
<path d="M264.991 197.617C211.981 213.039 157.043 211.111 101.142 211.111C84.7571 211.111 36.5661 198.581 25.0003 210.147C13.4345 221.713 77.0465 250.628 83.7933 254.483C132.948 275.688 177.284 275.688 230.294 270.869C258.244 268.941 285.231 264.122 313.182 259.303C332.458 255.447 372.939 252.556 388.36 238.098" fill="white"/>
<path d="M264.991 197.617C211.981 213.039 157.043 211.111 101.142 211.111C84.7571 211.111 36.5661 198.581 25.0003 210.147C13.4345 221.713 77.0465 250.628 83.7933 254.483C132.948 275.688 177.284 275.688 230.294 270.869C258.244 268.941 285.231 264.122 313.182 259.303C332.458 255.447 372.939 252.556 388.36 238.098" stroke="#333333" stroke-miterlimit="10" stroke-linecap="square"/>
<path d="M456.791 280.505C394.143 320.986 314.146 342.19 240.896 342.19C224.511 342.19 200.415 334.479 185.958 324.841C164.754 310.384 182.103 295.926 200.415 293.998C241.86 289.179 282.34 285.324 323.784 277.613" fill="white"/>
<path d="M456.791 280.505C394.143 320.986 314.146 342.19 240.896 342.19C224.511 342.19 200.415 334.479 185.958 324.841C164.754 310.384 182.103 295.926 200.415 293.998C241.86 289.179 282.34 285.324 323.784 277.613" stroke="#333333" stroke-miterlimit="10" stroke-linecap="square"/>
<path d="M468.357 310.388C443.298 321.954 419.202 332.556 393.179 342.194C379.686 346.05 366.192 351.833 353.663 356.652C344.988 359.543 321.857 363.399 316.074 370.146C296.797 393.278 365.229 393.278 374.867 391.35C385.469 388.458 399.926 390.386 409.564 384.603C418.239 380.748 430.768 375.928 441.37 373.037" fill="white"/>
<path d="M468.357 310.388C443.298 321.954 419.202 332.556 393.179 342.194C379.686 346.05 366.192 351.833 353.663 356.652C344.988 359.543 321.857 363.399 316.074 370.146C296.797 393.278 365.229 393.278 374.867 391.35C385.469 388.458 399.926 390.386 409.564 384.603C418.239 380.748 430.768 375.928 441.37 373.037" stroke="#333333" stroke-miterlimit="10" stroke-linecap="square"/>
<path d="M553.169 337.373C531.965 347.975 424.017 380.746 449.076 417.371C463.534 438.576 508.833 427.01 527.146 421.227C553.169 412.552 577.264 402.914 601.36 391.348" fill="white"/>
<path d="M553.169 337.373C531.965 347.975 424.017 380.746 449.076 417.371C463.534 438.576 508.833 427.01 527.146 421.227C553.169 412.552 577.264 402.914 601.36 391.348" stroke="#333333" stroke-miterlimit="10" stroke-linecap="square"/>
<path d="M637.028 399.062C617.752 407.736 596.548 417.374 578.235 427.977C566.669 435.687 533.899 462.675 567.633 462.675C592.692 462.675 613.896 463.638 639.92 454C666.906 442.434 690.038 429.904 710.278 409.664" fill="white"/>
<path d="M637.028 399.062C617.752 407.736 596.548 417.374 578.235 427.977C566.669 435.687 533.899 462.675 567.633 462.675C592.692 462.675 613.896 463.638 639.92 454C666.906 442.434 690.038 429.904 710.278 409.664" stroke="#333333" stroke-miterlimit="10" stroke-linecap="square"/>
<path d="M500.164 117.621C488.598 127.259 469.322 130.15 455.829 138.825C442.335 147.499 424.023 149.427 409.565 156.174C397.999 161.957 378.723 162.921 373.904 177.378C370.049 188.944 381.615 198.583 395.108 198.583C467.394 198.583 534.862 177.378 602.329 150.391" fill="white"/>
<path d="M500.164 117.621C488.598 127.259 469.322 130.15 455.829 138.825C442.335 147.499 424.023 149.427 409.565 156.174C397.999 161.957 378.723 162.921 373.904 177.378C370.049 188.944 381.615 198.583 395.108 198.583C467.394 198.583 534.862 177.378 602.329 150.391" stroke="#333333" stroke-miterlimit="10" stroke-linecap="square"/>
<path d="M556.069 184.128C541.611 195.694 511.733 203.405 494.384 208.224C476.072 213.043 455.831 224.609 443.302 238.103C464.506 253.524 511.733 248.705 533.901 235.212C564.743 216.899 599.44 205.333 631.246 187.02" fill="white"/>
<path d="M556.069 184.128C541.611 195.694 511.733 203.405 494.384 208.224C476.072 213.043 455.831 224.609 443.302 238.103C464.506 253.524 511.733 248.705 533.901 235.212C564.743 216.899 599.44 205.333 631.246 187.02" stroke="#333333" stroke-miterlimit="10" stroke-linecap="square"/>
<path d="M663.048 194.728C639.917 213.04 605.219 223.643 579.196 237.136C566.667 243.883 511.729 267.979 518.476 286.292C527.15 308.46 578.232 290.147 590.762 283.4C614.857 270.87 648.591 254.485 668.831 235.209" fill="white"/>
<path d="M663.048 194.728C639.917 213.04 605.219 223.643 579.196 237.136C566.667 243.883 511.729 267.979 518.476 286.292C527.15 308.46 578.232 290.147 590.762 283.4C614.857 270.87 648.591 254.485 668.831 235.209" stroke="#333333" stroke-miterlimit="10" stroke-linecap="square"/>
<path d="M660.156 267.976C645.699 284.361 626.423 294.963 611.965 310.384C607.146 316.167 584.979 339.299 604.255 339.299C645.699 339.299 684.252 301.71 711.239 274.722" fill="white"/>
<path d="M660.156 267.976C645.699 284.361 626.423 294.963 611.965 310.384C607.146 316.167 584.979 339.299 604.255 339.299C645.699 339.299 684.252 301.71 711.239 274.722" stroke="#333333" stroke-miterlimit="10" stroke-linecap="square"/>
<path d="M733.404 291.11C721.838 320.025 671.72 333.519 671.72 367.253C671.72 376.892 702.562 368.217 707.381 366.289C722.802 361.47 733.404 351.832 744.006 341.23" fill="white"/>
<path d="M733.404 291.11C721.838 320.025 671.72 333.519 671.72 367.253C671.72 376.892 702.562 368.217 707.381 366.289C722.802 361.47 733.404 351.832 744.006 341.23" stroke="#333333" stroke-miterlimit="10" stroke-linecap="square"/>
<path d="M783.525 337.373C776.778 347.975 744.008 384.601 756.538 394.239C768.104 402.914 798.946 382.673 807.62 377.854" fill="white"/>
<path d="M783.525 337.373C776.778 347.975 744.008 384.601 756.538 394.239C768.104 402.914 798.946 382.673 807.62 377.854" stroke="#333333" stroke-miterlimit="10" stroke-linecap="square"/>
<path d="M850.995 370.146C845.212 381.713 831.719 388.459 831.719 401.953C831.719 415.447 849.067 418.338 860.633 423.157" fill="white"/>
<path d="M850.995 370.146C845.212 381.713 831.719 388.459 831.719 401.953C831.719 415.447 849.067 418.338 860.633 423.157" stroke="#333333" stroke-miterlimit="10" stroke-linecap="square"/>
<path d="M810.513 444.356C821.115 440.501 829.79 436.646 839.428 441.465C850.994 447.248 853.885 456.886 842.319 465.561" fill="white"/>
<path d="M810.513 444.356C821.115 440.501 829.79 436.646 839.428 441.465C850.994 447.248 853.885 456.886 842.319 465.561" stroke="#333333" stroke-miterlimit="10" stroke-linecap="square"/>
<path d="M772.921 404.845C797.016 400.99 813.401 416.411 794.125 433.76C778.704 448.217 761.355 447.254 740.151 447.254C718.947 447.254 687.141 450.145 717.983 427.013C736.296 412.556 752.681 406.773 775.812 406.773" fill="white"/>
<path d="M772.921 404.845C797.016 400.99 813.401 416.411 794.125 433.76C778.704 448.217 761.355 447.254 740.151 447.254C718.947 447.254 687.141 450.145 717.983 427.013C736.296 412.556 752.681 406.773 775.812 406.773" stroke="#333333" stroke-miterlimit="10" stroke-linecap="square"/>
<path d="M601.363 71.3563C621.603 71.3563 643.771 64.6094 663.047 74.2478C682.324 82.9223 697.745 103.163 711.238 119.548C701.6 100.271 686.179 71.3563 668.83 57.8626C645.698 41.4774 622.567 58.8264 601.363 71.3563Z" fill="white" stroke="#333333"/>
<path d="M754.605 791.348C747.858 734.482 842.313 719.061 882.793 717.133C955.079 713.278 1025.44 708.458 1097.72 701.712C1156.52 695.929 1223.02 674.724 1263.5 630.388C1303.02 587.015 1267.36 499.306 1215.31 480.03C1158.45 458.825 1103.51 438.585 1045.68 471.355C1036.04 477.138 1016.76 482.921 1013.87 495.451C1009.05 509.909 1028.33 518.583 1040.86 520.511C1072.67 525.33 1101.58 526.294 1133.39 524.366C1160.37 522.439 1201.82 530.149 1205.67 561.956C1210.49 596.654 1184.47 620.75 1154.59 632.316C1128.57 642.918 1090.98 641.954 1063.03 646.773C1032.18 651.592 1002.31 654.484 971.464 657.375C943.513 660.267 914.599 658.339 886.648 660.267C856.77 663.158 828.819 664.122 798.941 670.869C736.292 683.399 677.5 730.627 677.5 797.131C702.559 795.204 728.582 793.276 754.605 791.348Z" fill="white" stroke="#333333"/>
<path d="M754.605 791.348C747.858 734.482 842.313 719.061 882.793 717.133C955.079 713.278 1025.44 708.458 1097.72 701.712C1156.52 695.929 1223.02 674.724 1263.5 630.388C1303.02 587.015 1267.36 499.306 1215.31 480.03C1158.45 458.825 1103.51 438.585 1045.68 471.355C1036.04 477.138 1016.76 482.921 1013.87 495.451C1009.05 509.909 1028.33 518.583 1040.86 520.511C1072.67 525.33 1101.58 526.294 1133.39 524.366C1160.37 522.439 1201.82 530.149 1205.67 561.956C1210.49 596.654 1184.47 620.75 1154.59 632.316C1128.57 642.918 1090.98 641.954 1063.03 646.773C1032.18 651.592 1002.31 654.484 971.464 657.375C943.513 660.267 914.599 658.339 886.648 660.267C856.77 663.158 828.819 664.122 798.941 670.869C736.292 683.399 677.5 730.627 677.5 797.131" fill="white"/>
<path d="M754.605 791.348C747.858 734.482 842.313 719.061 882.793 717.133C955.079 713.278 1025.44 708.458 1097.72 701.712C1156.52 695.929 1223.02 674.724 1263.5 630.388C1303.02 587.015 1267.36 499.306 1215.31 480.03C1158.45 458.825 1103.51 438.585 1045.68 471.355C1036.04 477.138 1016.76 482.921 1013.87 495.451C1009.05 509.909 1028.33 518.583 1040.86 520.511C1072.67 525.33 1101.58 526.294 1133.39 524.366C1160.37 522.439 1201.82 530.149 1205.67 561.956C1210.49 596.654 1184.47 620.75 1154.59 632.316C1128.57 642.918 1090.98 641.954 1063.03 646.773C1032.18 651.592 1002.31 654.484 971.464 657.375C943.513 660.267 914.599 658.339 886.648 660.267C856.77 663.158 828.819 664.122 798.941 670.869C736.292 683.399 677.5 730.627 677.5 797.131" stroke="#333333" stroke-miterlimit="10" stroke-linecap="square"/>
<path d="M882.796 807.728C878.941 599.54 874.122 390.387 869.303 182.199C906.892 183.163 944.481 184.127 982.07 185.091C978.214 308.462 974.359 432.796 970.504 556.167C968.576 626.527 966.648 696.887 963.757 767.247C962.793 779.777 962.793 792.307 962.793 804.836C963.757 805.8 890.507 807.728 882.796 807.728Z" fill="white" stroke="#333333"/>
<path d="M882.796 807.728C878.941 599.54 874.122 390.387 869.303 182.199C906.892 183.163 944.481 184.127 982.07 185.091C975.323 392.315 969.54 599.54 962.793 805.8" fill="white"/>
<path d="M882.796 807.728C878.941 599.54 874.122 390.387 869.303 182.199C906.892 183.163 944.481 184.127 982.07 185.091C975.323 392.315 969.54 599.54 962.793 805.8" stroke="#333333" stroke-miterlimit="10" stroke-linecap="square"/>
<path d="M957.975 1014.96C954.12 1158.57 950.265 1303.14 946.409 1446.75C945.446 1498.8 943.518 1550.85 942.554 1602.89C942.554 1608.68 907.857 1603.86 905.929 1603.86C901.11 1602.89 903.038 1597.11 903.038 1592.29C902.074 1565.3 902.074 1540.24 901.11 1513.26C898.218 1394.71 895.327 1277.12 892.436 1158.57C891.472 1116.16 890.508 1075.68 889.544 1033.27C889.544 1032.3 888.58 1016.88 889.544 1016.88C911.712 1015.92 934.844 1014.96 957.975 1014.96Z" fill="white" stroke="#333333"/>
<path d="M957.971 1014.96C954.115 1158.57 950.26 1303.14 946.405 1446.75C945.441 1498.8 943.513 1550.85 942.55 1602.89C942.55 1608.68 907.852 1603.86 905.924 1603.86C901.105 1602.9 903.033 1597.11 903.033 1592.29C902.069 1565.31 902.069 1540.25 901.105 1513.26C897.25 1347.48 893.395 1182.66 889.54 1016.88" fill="white"/>
<path d="M957.971 1014.96C954.115 1158.57 950.26 1303.14 946.405 1446.75C945.441 1498.8 943.513 1550.85 942.55 1602.89C942.55 1608.68 907.852 1603.86 905.924 1603.86C901.105 1602.9 903.033 1597.11 903.033 1592.29C902.069 1565.31 902.069 1540.25 901.105 1513.26C897.25 1347.48 893.395 1182.66 889.54 1016.88" stroke="#333333" stroke-miterlimit="10" stroke-linecap="square"/>
<path d="M869.303 221.722C901.109 240.998 945.444 243.89 979.178 224.613Z" fill="white"/>
<path d="M869.303 221.722C901.109 240.998 945.444 243.89 979.178 224.613" stroke="#333333" stroke-miterlimit="10" stroke-linecap="square"/>
<path d="M925.208 203.402C981.109 203.402 1026.41 160.993 1026.41 104.127C1026.41 42.4415 978.218 1.96045 918.461 1.96045C866.415 1.96045 814.369 55.9352 823.043 109.91C826.898 134.006 832.681 165.812 855.813 180.27C869.306 186.053 915.57 216.896 925.208 203.402Z" fill="white" stroke="#333333"/>
<path d="M925.202 203.405C981.104 203.405 1026.4 160.997 1026.4 104.13C1027.37 44.3726 981.104 1 923.275 1C869.301 1 822.074 47.264 823.037 103.166C824.001 163.888 870.265 196.658 924.238 205.333" fill="white"/>
<path d="M925.202 203.405C981.104 203.405 1026.4 160.997 1026.4 104.13C1027.37 44.3726 981.104 1 923.275 1C869.301 1 822.074 47.264 823.037 103.166C824.001 163.888 870.265 196.658 924.238 205.333" stroke="#333333" stroke-miterlimit="10" stroke-linecap="square"/>
<path d="M992.668 1296.4C1024.47 1256.88 1029.29 1198.09 998.451 1156.64C961.826 1108.45 898.214 1100.74 858.698 1056.4C836.53 1031.34 819.181 1004.36 853.879 980.26C880.865 960.983 917.491 956.164 949.297 950.381C1007.13 938.815 1068.81 926.285 1117 890.623C1143.99 871.346 1164.23 849.178 1175.79 817.371C1188.32 782.673 1177.72 757.614 1161.34 726.771C1135.31 678.579 1048.57 659.303 999.415 659.303C943.514 659.303 881.829 659.303 825.928 650.628C792.194 644.845 758.461 639.062 723.763 636.171C695.812 633.279 664.006 614.002 656.296 586.051C632.2 502.198 754.605 531.113 797.013 523.402C817.253 519.547 867.372 509.908 837.494 481.957C820.145 465.572 779.665 453.042 757.497 453.042C696.776 453.042 637.983 473.283 600.394 521.474C582.082 544.606 573.407 575.449 583.045 603.4C594.611 638.098 617.743 653.52 648.585 668.941C762.316 728.699 905.925 693.037 1026.4 725.807C1048.57 731.59 1096.76 742.192 1100.62 772.071C1105.44 809.661 1084.23 828.937 1056.28 851.106C1008.09 888.695 931.948 892.551 874.119 904.117C837.494 911.827 778.701 935.923 763.28 973.513C742.076 1020.74 754.605 1072.79 799.905 1101.7C836.53 1125.8 875.083 1147.97 911.708 1171.1C930.02 1182.66 938.695 1195.19 953.152 1210.62C961.826 1219.29 952.188 1265.55 952.188 1279.05C960.862 1276.16 991.705 1297.36 992.668 1296.4Z" fill="white" stroke="#333333"/>
<path d="M992.668 1296.4C1024.47 1256.88 1029.29 1198.09 998.451 1156.64C961.826 1108.45 898.214 1100.74 858.698 1056.4C836.53 1031.34 819.181 1004.36 853.879 980.259C880.865 960.983 917.491 956.164 949.297 950.381C1007.13 938.815 1068.81 926.285 1117 890.623C1143.99 871.346 1164.23 849.178 1175.79 817.371C1188.32 782.673 1177.72 757.614 1161.34 726.771C1135.31 678.579 1048.57 659.303 999.415 659.303C943.514 659.303 881.829 659.303 825.928 650.628C792.194 644.845 758.461 639.062 723.763 636.171C695.812 633.279 664.006 614.002 656.296 586.051C632.2 502.198 754.605 531.113 797.013 523.402C817.253 519.547 867.372 509.908 837.494 481.957C820.145 465.572 779.665 453.042 757.497 453.042C696.776 453.042 637.983 473.283 600.394 521.474C582.082 544.606 573.407 575.449 583.045 603.4C594.611 638.098 617.743 653.52 648.585 668.941C762.316 728.699 905.925 693.037 1026.4 725.807C1048.57 731.59 1096.76 742.192 1100.62 772.071C1105.44 809.661 1084.23 828.937 1056.28 851.106C1008.09 888.695 931.948 892.55 874.119 904.116C837.494 911.827 778.701 935.923 763.28 973.513C742.076 1020.74 754.605 1072.79 799.905 1101.7C836.53 1125.8 875.083 1147.97 911.708 1171.1C930.02 1182.66 938.695 1195.19 953.152 1210.62C961.826 1219.29 952.188 1265.55 952.188 1279.05C967.609 1280.01 983.994 1292.54 994.596 1303.14" fill="white"/>
<path d="M992.668 1296.4C1024.47 1256.88 1029.29 1198.09 998.451 1156.64C961.826 1108.45 898.214 1100.74 858.698 1056.4C836.53 1031.34 819.181 1004.36 853.879 980.259C880.865 960.983 917.491 956.164 949.297 950.381C1007.13 938.815 1068.81 926.285 1117 890.623C1143.99 871.346 1164.23 849.178 1175.79 817.371C1188.32 782.673 1177.72 757.614 1161.34 726.771C1135.31 678.579 1048.57 659.303 999.415 659.303C943.514 659.303 881.829 659.303 825.928 650.628C792.194 644.845 758.461 639.062 723.763 636.171C695.812 633.279 664.006 614.002 656.296 586.051C632.2 502.198 754.605 531.113 797.013 523.402C817.253 519.547 867.372 509.908 837.494 481.957C820.145 465.572 779.665 453.042 757.497 453.042C696.776 453.042 637.983 473.283 600.394 521.474C582.082 544.606 573.407 575.449 583.045 603.4C594.611 638.098 617.743 653.52 648.585 668.941C762.316 728.699 905.925 693.037 1026.4 725.807C1048.57 731.59 1096.76 742.192 1100.62 772.071C1105.44 809.661 1084.23 828.937 1056.28 851.106C1008.09 888.695 931.948 892.55 874.119 904.116C837.494 911.827 778.701 935.923 763.28 973.513C742.076 1020.74 754.605 1072.79 799.905 1101.7C836.53 1125.8 875.083 1147.97 911.708 1171.1C930.02 1182.66 938.695 1195.19 953.152 1210.62C961.826 1219.29 952.188 1265.55 952.188 1279.05C967.609 1280.01 983.994 1292.54 994.596 1303.14" stroke="#333333" stroke-miterlimit="10" stroke-linecap="square"/>
<path d="M944.477 1575.9C958.934 1583.62 976.283 1567.23 976.283 1551.81C976.283 1532.53 973.392 1520.97 957.007 1509.4C929.056 1490.12 902.069 1476.63 877.01 1451.57C870.263 1464.1 860.625 1480.49 860.625 1493.98C860.625 1513.26 864.48 1519.04 875.082 1535.42C878.938 1542.17 901.105 1549.88 908.816 1553.74C921.346 1560.48 932.911 1568.19 944.477 1575.9Z" fill="white" stroke="#333333"/>
<path d="M944.477 1575.9C958.934 1583.62 976.283 1567.23 976.283 1551.81C976.283 1532.53 973.392 1520.97 957.007 1509.4C929.056 1490.12 902.069 1476.63 877.01 1451.57C870.263 1464.1 860.625 1480.49 860.625 1493.98C860.625 1513.26 864.48 1519.04 875.082 1535.42C878.938 1542.17 901.105 1549.88 908.816 1553.74C921.346 1560.48 932.911 1568.19 944.477 1575.9Z" fill="white" stroke="#333333" stroke-miterlimit="10" stroke-linecap="square"/>
<path d="M762.316 474.24C763.28 475.203 761.352 478.095 765.207 477.131C778.701 462.674 744.967 466.529 759.424 477.131C763.28 478.095 762.316 476.167 762.316 474.24Z" fill="white" stroke="#333333"/>
<path d="M1105.44 479.063C1116.04 480.027 1114.11 472.316 1108.33 470.389C1101.58 471.353 1095.8 479.063 1105.44 479.063Z" fill="white" stroke="#333333"/>
<path d="M995.559 106.062C1010.98 132.085 966.645 169.675 947.369 178.349C968.573 175.458 976.283 164.855 990.74 151.362C997.487 143.651 1007.13 111.845 995.559 106.062Z" fill="white" stroke="#333333"/>
<path d="M888.577 1017.85L884.722 857.849C884.722 852.066 880.866 808.693 885.686 808.693C911.709 807.729 937.732 807.729 963.755 805.802C962.791 857.849 960.863 908.932 959.9 960.979C959.9 969.654 964.719 1008.21 958.936 1015.92C955.081 1019.77 929.057 1016.88 924.238 1016.88C911.709 1015.92 900.143 1016.88 888.577 1017.85Z" fill="white" stroke="#333333"/>
<path d="M963.758 801.943L957.976 1014.95" stroke="#333333" stroke-miterlimit="10" stroke-linecap="square"/>
<path d="M888.583 1017.84L882.8 807.723" stroke="#333333" stroke-miterlimit="10" stroke-linecap="square"/>
<path d="M1108.33 1012.06C1089.05 916.643 983.033 899.294 902.073 885.8C857.737 878.09 824.003 867.488 787.378 838.573C782.559 834.717 752.681 791.345 753.645 791.345C727.621 793.272 702.562 795.2 676.539 797.128C683.286 820.26 688.105 838.573 703.526 856.885C718.947 875.198 735.332 888.692 755.572 901.222C792.197 926.281 841.352 937.848 884.724 946.522C922.313 953.269 970.504 956.16 1003.27 981.22C1010.98 987.003 1019.66 990.858 1022.55 1000.5C1025.44 1010.13 1024.48 1014.95 1035.08 1014.95C1046.65 1014.95 1104.47 1019.77 1108.33 1012.06Z" fill="white" stroke="#333333"/>
<path d="M676.539 797.124C688.105 835.677 703.526 863.629 735.332 888.688C765.21 911.82 803.763 926.278 839.424 936.88C896.29 953.265 1005.2 948.446 1026.41 1014.95" fill="white"/>
<path d="M676.539 797.124C688.105 835.677 703.526 863.629 735.332 888.688C765.21 911.82 803.763 926.278 839.424 936.88C896.29 953.265 1005.2 948.446 1026.41 1014.95" stroke="#333333" stroke-miterlimit="10" stroke-linecap="square"/>
<path d="M1108.33 1012.06C1073.63 839.536 815.33 944.594 755.574 791.345Z" fill="white"/>
<path d="M1108.33 1012.06C1073.63 839.536 815.33 944.594 755.574 791.345" stroke="#333333" stroke-miterlimit="10" stroke-linecap="square"/>
<path d="M947.372 1369.64C963.757 1348.44 897.254 1333.98 882.797 1327.24C862.557 1316.63 832.678 1294.47 827.859 1270.37C824.968 1253.98 835.57 1254.95 849.063 1247.24C863.52 1239.53 877.978 1231.82 892.435 1225.07C882.797 1253.02 904.964 1258.8 927.132 1266.51C950.264 1274.22 968.576 1285.79 989.78 1296.39C1006.17 1305.07 1016.77 1335.91 1016.77 1354.22C1015.8 1372.54 1007.13 1368.68 989.78 1368.68C976.287 1367.72 960.866 1369.64 947.372 1369.64Z" fill="white" stroke="#333333"/>
<path d="M1014.83 1366.75C1034.11 1332.05 993.63 1297.36 969.535 1283.86C952.186 1273.26 934.837 1269.41 915.561 1262.66C896.285 1255.91 886.647 1244.35 894.357 1225.07" fill="white"/>
<path d="M1014.83 1366.75C1034.11 1332.05 993.63 1297.36 969.535 1283.86C952.186 1273.26 934.837 1269.41 915.561 1262.66C896.285 1255.91 886.647 1244.35 894.357 1225.07" stroke="#333333" stroke-miterlimit="10" stroke-linecap="square"/>
<path d="M947.369 1369.64C958.935 1355.18 921.346 1337.83 908.816 1337.83C874.119 1337.83 831.711 1290.61 826.892 1259.76" fill="white"/>
<path d="M947.369 1369.64C958.935 1355.18 921.346 1337.83 908.816 1337.83C874.119 1337.83 831.711 1290.61 826.892 1259.76" stroke="#333333" stroke-miterlimit="10" stroke-linecap="square"/>
<path d="M840.388 1401.45C849.063 1456.39 918.457 1492.05 963.757 1514.22C967.612 1499.76 977.25 1493.01 977.25 1475.66C977.25 1455.42 955.083 1443.86 939.661 1436.15C924.24 1427.47 912.675 1413.98 900.145 1404.34C892.434 1398.56 890.507 1399.52 877.977 1400.48C864.484 1399.52 851.954 1400.48 840.388 1401.45Z" fill="white" stroke="#333333"/>
<path d="M840.388 1401.46C849.063 1456.39 918.457 1492.06 963.757 1514.22C966.648 1505.55 977.25 1498.8 977.25 1487.24C977.25 1468.92 973.395 1462.18 960.865 1448.68C941.589 1429.41 906.892 1425.55 896.29 1397.6" fill="white"/>
<path d="M840.388 1401.46C849.063 1456.39 918.457 1492.06 963.757 1514.22C966.648 1505.55 977.25 1498.8 977.25 1487.24C977.25 1468.92 973.395 1462.18 960.865 1448.68C941.589 1429.41 906.892 1425.55 896.29 1397.6" stroke="#333333" stroke-miterlimit="10" stroke-linecap="square"/>
</svg>
