<svg width="486" height="278" viewBox="0 0 486 278" fill="none" xmlns="http://www.w3.org/2000/svg">
<g clip-path="url(#clip0)">
<path d="M0 3H486V278H0V3Z" fill="#FBCCCC"/>
<path d="M353.577 112.093L365.698 110.594C367.501 110.294 368.102 105.995 368.803 100.497C369.504 94.9994 368.102 85.0029 368.102 85.0029L355.781 88.7016L353.577 112.093Z" fill="#FF78B9"/>
<path d="M386.132 81.304C380.823 75.5061 354.078 55.5132 354.078 55.5132L348.268 64.3101C348.268 64.3101 357.183 73.9067 363.594 80.3044C351.073 81.304 328.434 84.303 328.434 84.303C312.207 81.1041 305.395 79.5047 305.395 79.5047L321.422 63.9102L315.011 54.8135C315.011 54.8135 299.585 64.51 290.87 71.4076C282.156 78.3051 281.054 87.002 289.668 93.4997C298.283 99.9974 301.188 101.997 301.188 101.997L355.781 107.595C371.608 103.196 381.024 98.298 386.633 93.2997C392.243 88.3015 391.442 87.102 386.132 81.304Z" fill="#FFC619"/>
<path d="M295.979 78.7051C297.883 79.005 301.288 79.9046 301.288 79.9046" stroke="black" stroke-width="1.99929" stroke-linecap="round" stroke-linejoin="round"/>
<path d="M350.772 52.7144L345.563 61.8111L351.874 68.2088C353.878 65.9097 355.681 62.011 354.879 56.1131C352.575 54.3138 350.772 52.7144 350.772 52.7144Z" fill="black"/>
<path d="M316.614 92.5001C309.001 83.6033 306.197 79.6047 304.594 75.1063C302.991 70.6079 310.003 73.8068 318.518 76.3059C327.032 78.805 325.83 81.2041 316.614 92.5001Z" fill="#FF78B9"/>
<path d="M305.696 79.3047C298.183 87.9016 298.283 98.5978 299.686 113.293C299.686 113.293 286.664 126.788 288.968 138.484C291.272 150.179 309.703 155.178 330.438 154.978C347.167 154.878 348.97 150.879 350.172 143.082C350.973 137.884 351.474 131.986 351.774 127.388C352.138 122.589 353.219 117.872 354.98 113.393C364.496 89.601 355.982 81.0041 355.982 81.0041L328.335 83.3033L305.696 79.3047Z" fill="#FF78B9"/>
<path d="M311.406 66.9087C304.995 71.807 306.598 79.1044 316.214 89.2008L320.421 93.2993L347.067 88.9009C355.381 78.3047 353.378 71.2072 350.172 66.7088C354.279 59.5114 354.479 54.6131 354.279 50.1147C353.979 42.6174 346.766 30.8216 329.537 31.0216C320.121 31.1215 312.007 34.7202 309.403 46.616C308.501 50.8145 308.401 57.5121 311.406 66.9087Z" fill="#FFE75C"/>
<path d="M343.761 40.7183C343.971 40.731 344.177 40.785 344.367 40.8775C344.556 40.9699 344.726 41.0986 344.865 41.2566C345.005 41.4144 345.112 41.5982 345.18 41.7976C345.248 41.9968 345.276 42.2075 345.263 42.4177L344.662 52.714C344.488 55.0223 343.457 57.1827 341.771 58.7726C340.085 60.3626 337.865 61.2676 335.547 61.3109H333.443C330.989 61.3412 328.607 60.4892 326.731 58.9107C324.854 57.3321 323.61 55.1325 323.226 52.714L322.625 49.2152C322.553 48.8183 322.343 48.4595 322.031 48.2031C321.719 47.9467 321.325 47.8094 320.922 47.8157C320.513 47.8149 320.12 47.9697 319.822 48.2483C319.524 48.527 319.344 48.9085 319.319 49.3152L319.018 54.9132C318.891 56.7077 318.086 58.387 316.766 59.6117C315.445 60.8366 313.708 61.5153 311.906 61.5108C310.806 61.5408 309.713 61.3418 308.695 60.9265C307.677 60.5111 306.757 59.8884 305.993 59.0983C305.23 58.3082 304.64 57.3679 304.261 56.3376C303.882 55.3072 303.722 54.2093 303.792 53.1138L304.494 42.6176C304.519 42.2109 304.699 41.8294 304.997 41.5507C305.295 41.2721 305.688 41.1173 306.096 41.1181L343.761 40.7183Z" fill="black"/>
<path d="M344.762 41.1182L354.278 50.115L354.378 52.0143L344.962 45.6166L344.762 41.1182Z" fill="black"/>
<path d="M355.981 81.0038C351.576 76.9 346.402 73.7064 340.755 71.6072C335.646 69.8078 334.544 69.308 333.442 72.207C332.341 75.106 331.239 78.3048 330.838 79.3045C330.437 80.3041 325.128 84.1027 321.823 86.8018C318.517 89.5008 315.312 95.4987 315.312 95.4987L350.471 98.0977L355.981 81.0038Z" fill="#FF78B9"/>
<path d="M363.494 80.2041L368.101 85.0024C366.149 92.6252 365.007 100.432 364.696 108.294L346.865 109.594L355.981 81.0038L363.494 80.2041Z" fill="#FF78B9"/>
<path d="M305.695 79.305L302.289 78.7052C301.786 78.6558 301.277 78.7102 300.794 78.8649C300.312 79.0197 299.866 79.2715 299.486 79.6049C295.891 83.0652 293.503 87.5852 292.673 92.5002C291.872 98.3981 292.272 98.9979 299.084 102.497C303.692 104.996 307.999 94.2996 310.403 87.0022C310.643 86.1874 310.708 85.3318 310.596 84.4904C310.484 83.6489 310.197 82.84 309.754 82.1155C309.31 81.3909 308.721 80.7666 308.022 80.2827C307.323 79.7987 306.531 79.4657 305.695 79.305Z" fill="#FF78B9"/>
<path d="M303.893 51.5148L318.217 41.0186H312.808L304.193 47.4162L303.893 51.5148Z" fill="#5865F2"/>
<path d="M307.699 60.4116C308.943 61.2271 310.421 61.6133 311.906 61.5113C313.708 61.5157 315.445 60.8369 316.766 59.6121C318.086 58.3874 318.891 56.708 319.018 54.9135V52.0146L307.699 60.4116Z" fill="#5865F2"/>
<path d="M343.761 40.7183H337.65L323.025 51.6144L323.226 52.714C323.429 53.9071 323.835 55.0566 324.428 56.1128L344.762 41.1181C344.469 40.9002 344.123 40.7623 343.761 40.7183Z" fill="#5865F2"/>
<path d="M344.661 52.714L344.961 47.7158L328.333 60.0114C329.869 60.9429 331.648 61.3954 333.442 61.311H335.545C337.865 61.2677 340.084 60.3626 341.77 58.7727C343.456 57.1827 344.488 55.0223 344.661 52.714Z" fill="#5865F2"/>
<path d="M318.518 62.5109C320.562 62.0511 322.684 62.0511 324.728 62.5109" stroke="black" stroke-width="1.99929" stroke-linecap="round" stroke-linejoin="round"/>
<path d="M320.221 26.4236C319.319 29.1792 319.284 32.1444 320.121 34.9205C320.284 35.405 320.593 35.8276 321.004 36.1315C321.417 36.4354 321.912 36.6058 322.425 36.6199H327.133C328.155 36.5791 329.122 36.15 329.837 35.4204C332.542 32.3215 337.651 31.6217 341.758 33.3211L344.062 29.8224C344.306 29.4882 344.411 29.0724 344.355 28.6623C344.299 28.2521 344.087 27.8796 343.761 27.6231C341.405 25.4194 338.604 23.744 335.546 22.7095C332.488 21.6751 329.243 21.3054 326.031 21.6253C324.701 21.7776 323.444 22.3122 322.412 23.164C321.381 24.0158 320.62 25.1482 320.221 26.4236Z" fill="#FF8C19"/>
<path d="M364.997 104.696C364.696 108.295 365.397 109.594 366.199 108.095C366.751 106.796 367.056 105.407 367.1 103.996L364.997 104.696Z" fill="black"/>
<path d="M354.979 81.2041C348.368 82.1038 344.762 83.2034 341.557 84.8028" stroke="black" stroke-width="1.99929" stroke-linecap="round" stroke-linejoin="round"/>
<path d="M368.604 85.8022C369.405 86.7019 370.607 87.7016 371.508 88.6012" stroke="black" stroke-width="1.99929" stroke-linecap="round" stroke-linejoin="round"/>
<path d="M352.676 112.993L347.066 117.392" stroke="black" stroke-width="1.99929" stroke-linecap="round" stroke-linejoin="round"/>
<path d="M321.722 93.1995C321.622 96.6983 321.421 102.296 321.421 102.296H317.314C317.524 99.3411 317.925 96.4025 318.517 93.4994C318.612 92.9945 318.817 92.5168 319.118 92.0999C320.097 90.8217 321.243 89.6788 322.523 88.7012L329.435 83.503C331.362 82.0091 332.822 79.9979 333.642 77.7051C334.266 75.4316 335.105 73.2225 336.147 71.1074" stroke="#F551A0" stroke-width="1.99929" stroke-linecap="round" stroke-linejoin="round"/>
<path d="M364.096 80.8042C361.091 88.9013 357.985 102.696 360.89 109.294C361.199 109.897 361.567 110.466 361.992 110.993H363.495C362.862 110.42 362.38 109.698 362.092 108.894C359.488 103.096 362.092 90.3008 364.997 81.9038L364.096 80.8042Z" fill="#F551A0"/>
<path d="M293.575 99.0975L294.777 99.9971C295.278 91.0003 298.684 83.503 304.193 79.0046L302.591 78.8047C297.482 83.3031 294.176 90.6005 293.575 99.0975Z" fill="#F551A0"/>
<path d="M355.681 112.493L347.167 113.493" stroke="black" stroke-width="1.99929" stroke-linecap="round" stroke-linejoin="round"/>
<path d="M346.866 149.98C342.982 145.048 337.423 141.706 331.24 140.583C318.435 138.051 305.291 137.713 292.373 139.583C292.191 139.622 292.023 139.707 291.883 139.83C291.742 139.952 291.635 140.108 291.572 140.283C290.877 142.005 290.308 143.776 289.869 145.581C308.301 145.581 329.637 144.182 338.151 150.979L346.165 157.477C346.657 155.009 346.891 152.496 346.866 149.98Z" fill="black"/>
<path d="M305.796 138.384L303.692 145.481C308.3 145.481 312.808 145.481 317.115 145.681L319.219 138.884C314.758 138.45 310.276 138.283 305.796 138.384Z" fill="white"/>
<path d="M647.478 132.985H504.234V259.54H649.681C654.969 259.54 660.038 261.636 663.776 265.367C667.515 269.098 669.615 274.157 669.615 279.433C669.615 284.709 667.515 289.768 663.776 293.499C660.038 297.23 654.969 299.326 649.681 299.326H281.154L243.29 326.016V384.196H642.67C655.421 384.196 667.651 379.141 676.668 370.142C685.686 361.143 690.751 348.938 690.751 336.213V176.17C690.725 164.725 686.158 153.756 678.048 145.663C669.938 137.57 658.946 133.011 647.478 132.985Z" fill="#96D9FA"/>
<path d="M140.916 287.431H152.135L163.955 259.541H140.916V287.431Z" fill="black"/>
<path d="M92.0322 287.431H103.351L115.172 259.541H92.0322V287.431Z" fill="#0C1AAD"/>
<path d="M115.472 259.541L113.769 263.539H92.0322V259.541H115.472Z" fill="black"/>
<path d="M89.1278 189.166H152.436V259.54H92.0327C88.8354 259.54 85.7676 258.28 83.4974 256.033C81.2271 253.786 79.9386 250.736 79.9121 247.545V198.362C79.9121 195.923 80.8831 193.584 82.6113 191.86C84.3395 190.134 86.6836 189.166 89.1278 189.166Z" fill="white"/>
<path d="M103.353 234.249H152.436V189.166H112.568C110.124 189.166 107.78 190.134 106.052 191.86C104.323 193.584 103.353 195.923 103.353 198.362V234.249Z" fill="#B0E5FF"/>
<path d="M158.846 132.986H639.764C643.688 132.973 647.576 133.733 651.204 135.226C654.831 136.718 658.128 138.912 660.901 141.681C663.676 144.449 665.875 147.739 667.37 151.359C668.866 154.98 669.628 158.859 669.615 162.775V259.54H122.284L147.026 142.582C147.599 139.874 149.085 137.445 151.236 135.699C153.387 133.952 156.073 132.995 158.846 132.986Z" fill="white"/>
<path d="M514.251 132.985C511.478 132.994 508.793 133.952 506.641 135.698C504.49 137.445 503.004 139.874 502.431 142.582L483.098 234.249H480.093L499.426 142.582C499.999 139.874 501.485 137.445 503.636 135.698C505.788 133.952 508.473 132.994 511.246 132.985H514.251Z" fill="#DBF3FF"/>
<path d="M387.936 132.986C385.158 132.976 382.463 133.926 380.308 135.676C378.152 137.425 376.672 139.866 376.116 142.582L356.683 234.249H353.678L373.111 142.582C373.649 139.857 375.125 137.406 377.284 135.653C379.443 133.9 382.148 132.957 384.931 132.986H387.936Z" fill="#DBF3FF"/>
<path d="M261.521 132.985C258.748 132.994 256.062 133.952 253.911 135.698C251.759 137.445 250.274 139.874 249.701 142.582L230.268 234.249H227.263L246.696 142.582C247.252 139.866 248.732 137.425 250.888 135.675C253.043 133.926 255.738 132.975 258.516 132.985H261.521Z" fill="#DBF3FF"/>
<path d="M92.5333 234.25H585.872V249.544H92.5333C91.9753 249.544 91.4403 249.323 91.0458 248.929C90.6513 248.535 90.4297 248.002 90.4297 247.445V236.349C90.4297 235.792 90.6513 235.258 91.0458 234.864C91.4403 234.47 91.9753 234.25 92.5333 234.25Z" fill="#66BCFF"/>
<path d="M599.696 310.122C599.57 310.136 599.441 310.123 599.32 310.084C599.199 310.046 599.088 309.982 598.993 309.896C598.898 309.812 598.822 309.708 598.771 309.592C598.72 309.476 598.693 309.35 598.694 309.223V265.738C598.694 261.709 597.09 257.843 594.234 254.994C591.38 252.144 587.507 250.544 583.468 250.544H92.5331C92.4058 250.545 92.2797 250.519 92.1633 250.467C92.0469 250.416 91.9426 250.341 91.8574 250.246C91.7722 250.152 91.7081 250.04 91.6691 249.919C91.6302 249.798 91.6174 249.67 91.6315 249.544C91.6315 249.305 91.7265 249.076 91.8956 248.908C92.0647 248.739 92.294 248.644 92.5331 248.644H583.468C585.722 248.631 587.955 249.064 590.039 249.919C592.124 250.773 594.017 252.031 595.61 253.622C597.204 255.211 598.465 257.101 599.321 259.181C600.177 261.261 600.611 263.49 600.597 265.738V309.223C600.597 309.341 600.574 309.458 600.529 309.567C600.484 309.677 600.417 309.776 600.334 309.858C600.25 309.942 600.151 310.008 600.041 310.053C599.932 310.099 599.814 310.122 599.696 310.122Z" fill="black"/>
<path d="M582.467 132.985V189.165H639.765C647.682 189.165 655.274 192.304 660.873 197.89C666.471 203.477 669.616 211.054 669.616 218.955V279.433C669.616 284.709 667.516 289.768 663.778 293.499C660.039 297.23 654.969 299.326 649.682 299.326H268.533V319.019H647.478C658.956 319.019 669.962 314.47 678.077 306.37C686.193 298.271 690.752 287.287 690.752 275.834V176.17C690.726 164.725 686.158 153.756 678.048 145.663C669.938 137.57 658.947 133.011 647.478 132.985H582.467Z" fill="white"/>
<path d="M179.481 187.566C182.137 187.566 184.289 185.418 184.289 182.768C184.289 180.118 182.137 177.97 179.481 177.97C176.826 177.97 174.673 180.118 174.673 182.768C174.673 185.418 176.826 187.566 179.481 187.566Z" fill="#FFD736"/>
<path d="M191.602 187.366C197.189 187.366 201.719 182.846 201.719 177.27C201.719 171.694 197.189 167.173 191.602 167.173C186.014 167.173 181.484 171.694 181.484 177.27C181.484 182.846 186.014 187.366 191.602 187.366Z" fill="#FFD736"/>
<path d="M238.281 156.477C227.362 160.276 225.359 160.076 216.344 196.863C203.422 193.264 196.61 194.164 195.508 205.36C194.406 216.556 208.23 216.756 220.35 216.955C232.471 217.155 236.578 209.458 244.992 186.666C253.407 163.874 238.281 156.477 238.281 156.477Z" fill="#459FF7"/>
<path d="M214.941 183.268C220.529 183.268 225.059 178.747 225.059 173.171C225.059 167.595 220.529 163.075 214.941 163.075C209.354 163.075 204.824 167.595 204.824 173.171C204.824 178.747 209.354 183.268 214.941 183.268Z" fill="#FFD736"/>
<path d="M203.222 177.27C208.809 177.27 213.339 172.75 213.339 167.174C213.339 161.598 208.809 157.077 203.222 157.077C197.634 157.077 193.104 161.598 193.104 167.174C193.104 172.75 197.634 177.27 203.222 177.27Z" fill="#FFD736"/>
<path d="M194.506 212.857C186.994 212.157 185.491 209.258 185.09 206.159C184.69 203.061 183.888 202.461 181.384 200.062C178.88 197.663 177.077 193.464 180.583 191.765C183.35 190.587 186.239 189.715 189.197 189.166L194.506 212.857Z" fill="#FF8CC4"/>
<path d="M194.506 212.857C186.994 212.157 185.491 209.258 185.09 206.159C185.09 205.96 184.99 205.76 184.99 205.46C184.843 204.133 184.241 202.897 183.287 201.961L181.384 200.062C178.88 197.563 177.077 193.464 180.683 191.765C183.414 190.58 186.269 189.708 189.197 189.166L190.299 194.164L190.7 196.163L194.506 212.857Z" fill="#FF8CC4"/>
<path d="M228.765 172.872C229.666 176.77 219.349 182.468 205.726 185.767C192.103 189.066 180.383 188.666 179.381 184.867C178.379 181.069 188.496 174.171 202.12 170.872C215.743 167.574 227.763 169.073 228.765 172.872Z" fill="white"/>
<path d="M228.764 173.171L179.48 185.067L193.504 215.556L230.267 206.659L228.764 173.171Z" fill="white"/>
<path d="M223.256 208.359L216.945 209.858L212.137 169.273C215.07 169.022 218.019 169.022 220.952 169.273L223.256 208.359Z" fill="#B0E5FF"/>
<path d="M207.329 212.157L202.12 213.457L186.994 176.67C189.269 175.375 191.647 174.272 194.106 173.371L207.329 212.157Z" fill="#B0E5FF"/>
<path d="M212.713 215.089C222.876 212.635 230.682 208.862 230.149 206.662C229.616 204.462 220.944 204.668 210.782 207.121C200.619 209.575 192.812 213.348 193.346 215.548C193.879 217.748 202.55 217.542 212.713 215.089Z" fill="black"/>
<path d="M196.109 195.863C193.304 189.266 191.601 187.866 189.998 187.366C188.396 186.867 185.591 186.867 179.48 192.565L191 210.158C190.599 209.359 192.202 206.56 194.907 204.86C197.611 203.161 198.813 202.461 196.109 195.863Z" fill="#FF8CC4"/>
<path d="M195.008 193.464L193.305 194.564L190.701 196.163C187.796 198.062 186.093 199.562 185.392 201.461C184.99 202.685 184.854 203.979 184.991 205.26V205.46C184.844 204.132 184.242 202.897 183.288 201.961C183.465 201.152 183.77 200.377 184.19 199.662C185.291 197.663 187.395 196.163 190.3 194.164L192.303 192.964L194.106 191.765C194.448 192.308 194.75 192.876 195.008 193.464Z" fill="black"/>
<path d="M181.986 194.064C177.678 192.864 177.578 190.865 177.578 189.165C177.578 187.466 178.68 182.968 180.082 181.368C181.485 179.769 183.087 181.668 183.588 184.067C184.089 186.466 184.089 187.566 181.986 194.064Z" fill="#FF8CC4"/>
<path d="M275.845 94.9992C277.117 94.9992 278.149 93.9699 278.149 92.7001C278.149 91.4302 277.117 90.4009 275.845 90.4009C274.573 90.4009 273.541 91.4302 273.541 92.7001C273.541 93.9699 274.573 94.9992 275.845 94.9992Z" fill="#FFD736"/>
<path d="M246.996 96.1989C249.572 92.9813 253.037 90.5868 256.962 89.3113C260.886 88.0358 265.099 87.9348 269.08 89.021C273.062 90.1072 276.637 92.3329 279.366 95.4235C282.095 98.5142 283.857 102.334 284.435 106.413C285.013 110.491 284.381 114.649 282.619 118.374C280.856 122.099 278.04 125.227 274.517 127.372C270.993 129.517 266.918 130.587 262.792 130.448C258.667 130.308 254.673 128.966 251.303 126.588C248.963 124.92 246.988 122.793 245.496 120.34C244.004 117.886 243.027 115.156 242.624 112.314C242.222 109.473 242.401 106.579 243.152 103.809C243.905 101.039 245.212 98.4498 246.996 96.1989Z" fill="#1D2CC2"/>
<path d="M236.278 101.597C226.06 88.9016 224.858 81.4042 235.376 78.9051C242 77.4106 248.872 77.3764 255.51 78.8052C258.15 79.4511 260.629 80.6261 262.8 82.2587C264.97 83.8913 266.784 85.9473 268.132 88.3018C276.045 101.997 277.047 106.695 277.047 106.695L236.278 101.597Z" fill="#FF78B9"/>
<path d="M244.492 94.4995C238.582 94.4995 238.682 96.4988 239.083 98.798C239.484 101.097 244.492 94.4995 244.492 94.4995Z" fill="black"/>
<path d="M236.278 101.597L277.047 106.695C277.047 106.695 276.045 101.997 268.132 88.3018C266.784 85.9473 264.97 83.8913 262.8 82.2587C260.629 80.6261 258.15 79.4511 255.51 78.8052C248.872 77.3764 242 77.4106 235.376 78.9051C224.858 81.4042 226.06 88.9016 236.278 101.597ZM236.077 81.0044C241.907 79.6603 247.963 79.6261 253.808 80.9044C258.61 81.9421 262.816 84.812 265.527 88.9016C273.541 101.097 274.843 105.396 274.843 105.396L237.68 100.697C228.965 88.3018 226.661 83.1036 236.077 81.0044Z" fill="#EB459F"/>
<path d="M286.363 138.484C283.058 131.486 282.857 124.888 283.058 119.091C283.156 115.559 282.531 112.044 281.222 108.761C279.913 105.478 277.947 102.496 275.445 99.9973C269.134 93.6996 262.122 92.7999 255.711 92.4C244.192 91.7003 220.651 101.497 228.665 140.783C233.674 165.074 240.886 193.364 240.886 193.364C240.886 193.364 216.645 233.55 264.626 233.55C300.588 233.55 309.503 233.25 314.01 220.654C317.246 211.746 317.281 201.995 314.111 193.064C302.491 158.976 294.277 155.278 286.363 138.484Z" fill="#459FF7"/>
<path d="M234.775 168.473C236.979 177.27 240.885 193.364 240.885 193.364C235.476 200.361 233.272 207.159 234.875 215.556" stroke="black" stroke-width="1.99929" stroke-linecap="round" stroke-linejoin="round"/>
<path d="M255.711 92.4004C261.521 92.8003 267.731 93.6 273.541 98.2983C245.393 104.296 245.193 110.894 234.074 102.497C240.485 94.4997 249.701 92.0006 255.711 92.4004Z" fill="#2A88E6"/>
<path d="M257.113 100.897C256.806 99.8942 256.671 98.8465 256.713 97.7983" stroke="black" stroke-width="1.99929" stroke-linecap="round" stroke-linejoin="round"/>
<path d="M256.212 101.197C255.572 100.324 255.096 99.3413 254.81 98.2979" stroke="black" stroke-width="1.99929" stroke-linecap="round" stroke-linejoin="round"/>
<path d="M256.111 101.197C255.089 100.897 254.112 100.459 253.206 99.8975" stroke="black" stroke-width="1.99929" stroke-linecap="round" stroke-linejoin="round"/>
<path d="M241.487 102.297C241.244 101.453 241.176 100.569 241.287 99.6978" stroke="black" stroke-width="1.99929" stroke-linecap="round" stroke-linejoin="round"/>
<path d="M240.485 102.496C240.034 101.751 239.697 100.942 239.483 100.097" stroke="black" stroke-width="1.99929" stroke-linecap="round" stroke-linejoin="round"/>
<path d="M240.485 102.396C239.651 102.188 238.868 101.814 238.181 101.297" stroke="black" stroke-width="1.99929" stroke-linecap="round" stroke-linejoin="round"/>
<path d="M259.271 108.155C260.343 104.27 259.354 100.609 257.06 99.9783C254.767 99.3479 252.038 101.987 250.966 105.872C249.894 109.758 250.883 113.418 253.176 114.049C255.47 114.68 258.199 112.041 259.271 108.155Z" fill="white"/>
<path d="M255.889 106.667C256.358 104.963 255.918 103.357 254.905 103.078C253.891 102.799 252.689 103.955 252.218 105.657C251.749 107.361 252.189 108.967 253.202 109.246C254.216 109.525 255.418 108.369 255.889 106.667Z" fill="black"/>
<path d="M242.236 108.65C243.702 104.955 243.473 101.399 241.724 100.707C239.975 100.017 237.369 102.452 235.902 106.148C234.436 109.844 234.665 113.401 236.414 114.091C238.163 114.782 240.77 112.347 242.236 108.65Z" fill="white"/>
<path d="M245.494 123.189C245.083 123.522 244.57 123.704 244.041 123.704C243.512 123.704 242.999 123.522 242.589 123.189C237.48 118.591 234.775 118.491 234.775 124.489C234.775 130.487 240.485 146.681 246.896 146.681C253.307 146.681 257.314 135.985 259.517 127.788C261.721 119.591 257.514 116.592 253.507 117.891C249.5 119.191 247.397 121.59 245.494 123.189Z" fill="black"/>
<path d="M250.502 134.685C249.49 134.057 248.303 133.767 247.114 133.857C245.926 133.947 244.796 134.411 243.891 135.185C242.088 136.585 239.784 139.384 242.188 141.883C244.592 144.382 249.4 143.182 251.804 140.783C254.208 138.384 256.312 136.685 255.911 134.985C255.511 133.286 253.908 132.886 250.502 134.685Z" fill="#FF78B9"/>
<path d="M240.654 107.108C241.268 105.567 241.182 104.087 240.462 103.801C239.741 103.515 238.659 104.532 238.045 106.072C237.431 107.613 237.517 109.093 238.238 109.379C238.958 109.665 240.04 108.648 240.654 107.108Z" fill="black"/>
<path d="M240.886 94.5995C240.886 89.9012 248.499 91.1008 252.506 91.3007C258.315 91.7005 267.03 92.1004 273.441 98.1982H273.541C268.833 93.9997 251.303 94.5995 240.886 94.5995Z" fill="#FF78B9"/>
<path d="M273.541 98.298C272.602 97.5158 271.511 96.937 270.336 96.5986L269.534 95.2991C269.534 94.0995 270.135 93.8996 270.736 94.1995C271.792 95.422 272.7 96.7641 273.441 98.1981L273.541 98.298Z" fill="#EB459F"/>
<path d="M250.702 133.685C248.116 134.917 245.878 136.772 244.191 139.083" stroke="black" stroke-width="1.99929" stroke-linecap="round" stroke-linejoin="round"/>
<path d="M246.395 208.559C225.359 207.259 211.335 206.06 204.724 214.857C198.112 223.653 199.916 238.948 201.518 261.44C202.62 278.034 206.927 275.935 214.04 275.935C223.556 275.935 227.663 274.235 227.663 265.638C227.663 257.042 227.062 234.25 227.062 234.25H258.515C265.828 220.455 269.434 210.058 246.395 208.559Z" fill="#3442D9"/>
<path d="M202.119 267.238C203.822 277.534 207.829 275.935 214.039 275.935C223.556 275.935 227.663 274.235 227.663 265.639C221.953 268.038 212.337 265.539 208.43 264.839C204.523 264.139 201.919 265.738 202.119 267.238Z" fill="#1D2CC2"/>
<path d="M215.242 274.935C219.149 273.835 219.75 271.436 219.149 261.54C218.548 251.643 218.949 237.248 219.349 229.651C219.75 222.054 222.655 222.853 232.071 223.353L260.018 225.153" stroke="#116BD9" stroke-width="1.99929" stroke-linecap="round" stroke-linejoin="round"/>
<path d="M274.643 275.935C287.164 275.935 289.468 271.536 289.869 267.638C290.27 263.739 286.163 254.442 278.349 234.25H306.597C310.526 229.072 313.448 223.207 315.212 216.956C292.674 208.659 275.645 204.66 257.714 205.06C239.784 205.46 240.685 218.955 246.595 234.25C252.505 249.544 254.509 255.642 258.115 265.738C261.721 275.835 267.431 275.935 274.643 275.935Z" fill="#3442D9"/>
<path d="M274.643 275.935C287.164 275.935 289.468 271.536 289.869 267.638C289.904 266.353 289.734 265.071 289.368 263.839C282.957 265.738 272.439 263.039 266.028 262.14C259.617 261.24 257.514 263.939 258.115 265.738C261.821 275.835 267.431 275.935 274.643 275.935Z" fill="#1D2CC2"/>
<path d="M277.247 274.935C280.152 270.137 280.653 267.038 277.247 256.642C273.841 246.245 268.432 230.951 266.629 226.452C264.826 221.954 266.93 218.255 271.738 219.255C276.546 220.255 303.392 225.952 303.392 225.952" stroke="#116BD9" stroke-width="1.99929" stroke-linecap="round" stroke-linejoin="round"/>
<path d="M262.322 273.735L259.918 272.935C256.392 271.948 252.676 271.845 249.1 272.636C245.995 273.335 245.594 275.335 245.894 277.634C245.466 277.668 245.051 277.804 244.685 278.03C244.319 278.256 244.012 278.565 243.791 278.933C243.566 279.252 243.409 279.614 243.328 279.995C243.247 280.377 243.244 280.77 243.318 281.153C243.393 281.535 243.544 281.899 243.764 282.222C243.982 282.545 244.265 282.82 244.592 283.032C246.395 284.431 255.911 287.33 263.224 287.33H288.467C289.168 281.532 288.867 276.734 287.565 272.636C274.743 274.435 276.847 267.837 263.925 269.837L262.322 273.735Z" fill="#FFC619"/>
<path d="M243.991 282.432C243.59 281.832 244.091 281.532 245.293 281.532C249.3 281.532 261.12 287.03 278.349 287.33H288.467C288.467 287.33 288.567 286.231 288.667 284.431C280.854 284.431 272.64 284.331 264.626 281.732C256.612 279.133 251.203 277.034 245.894 277.734C245.471 277.74 245.056 277.853 244.688 278.063C244.32 278.273 244.011 278.572 243.791 278.933C243.437 279.458 243.265 280.085 243.302 280.717C243.338 281.348 243.58 281.951 243.991 282.432Z" fill="white"/>
<path d="M202.22 274.435L200.017 273.636C196.647 272.744 193.116 272.642 189.699 273.336C186.694 274.035 186.293 275.835 186.694 278.134C186.288 278.156 185.893 278.277 185.544 278.487C185.194 278.696 184.902 278.987 184.69 279.334C184.485 279.641 184.342 279.987 184.271 280.35C184.2 280.713 184.202 281.087 184.276 281.45C184.351 281.813 184.496 282.157 184.705 282.462C184.914 282.768 185.181 283.03 185.492 283.232C187.195 284.532 196.21 287.331 203.222 287.331H225.56C226.361 280.733 225.46 277.134 224.458 271.836C217.647 274.035 210.935 270.337 205.826 270.737L202.22 274.435Z" fill="#FFC619"/>
<path d="M184.891 282.632C184.49 282.132 184.891 281.832 186.093 281.832C189.899 281.832 201.118 287.131 217.546 287.331H225.56C225.56 287.331 225.66 286.231 225.76 284.631C218.348 284.631 212.037 284.432 204.524 282.032C197.011 279.633 191.702 277.534 186.694 278.134C186.288 278.156 185.892 278.277 185.544 278.486C185.194 278.696 184.902 278.986 184.69 279.333C184.353 279.827 184.19 280.42 184.226 281.017C184.262 281.614 184.496 282.182 184.891 282.632Z" fill="white"/>
<path d="M258.115 154.978C256.11 156.396 253.64 157.004 251.203 156.677C247.944 156.32 244.939 154.75 242.789 152.279" stroke="#2A88E6" stroke-width="1.99929" stroke-linecap="round" stroke-linejoin="round"/>
<path d="M269.835 147.08H270.135C270.305 147.082 270.47 147.022 270.598 146.912C270.727 146.801 270.812 146.649 270.837 146.481C273.596 139.414 277.869 133.034 283.358 127.787C283.242 127.093 283.175 126.392 283.157 125.688C276.993 131.255 272.253 138.213 269.334 145.981C269.266 146.194 269.279 146.424 269.372 146.628C269.464 146.83 269.629 146.991 269.835 147.08Z" fill="black"/>
<path d="M237.18 178.369L233.474 176.17" stroke="black" stroke-width="1.99929" stroke-linecap="round" stroke-linejoin="round"/>
<path d="M271.938 215.156C271.892 215.058 271.827 214.969 271.747 214.896C271.667 214.823 271.572 214.766 271.47 214.729C271.368 214.692 271.259 214.675 271.151 214.68C271.041 214.685 270.935 214.711 270.836 214.757C270.738 214.803 270.649 214.867 270.576 214.947C270.502 215.027 270.444 215.121 270.407 215.223C270.37 215.325 270.353 215.434 270.358 215.542C270.363 215.651 270.389 215.758 270.435 215.856C272.138 219.155 274.342 224.553 276.946 230.851L278.349 234.25H280.152L278.449 230.251C275.845 223.953 273.541 218.455 271.938 215.156Z" fill="black"/>
<path d="M228.064 220.155C228.039 219.934 227.933 219.73 227.767 219.582C227.6 219.435 227.384 219.354 227.162 219.355C226.761 219.455 226.361 219.855 226.461 220.255C226.561 222.454 226.761 227.152 227.062 234.25H228.665C228.464 227.052 228.164 222.354 228.064 220.155Z" fill="black"/>
<path d="M159.046 38.2197C161.751 30.9223 168.662 30.3225 170.666 30.9223C172.669 31.5221 173.37 34.621 168.863 35.1208C164.355 35.6207 162.452 35.7206 159.046 38.2197Z" fill="#FF78B9"/>
<path d="M171.367 148.08C194.492 148.08 213.238 129.372 213.238 106.295C213.238 83.218 194.492 64.5103 171.367 64.5103C148.242 64.5103 129.496 83.218 129.496 106.295C129.496 129.372 148.242 148.08 171.367 148.08Z" fill="#EB459F"/>
<path d="M137.109 95.3989C124.187 84.2029 118.878 71.2075 117.877 64.0101C116.875 56.8127 128.795 62.0108 138.411 88.7013L137.109 95.3989Z" fill="#3DDB7F"/>
<path d="M121.282 67.5093C125.089 75.6064 134.505 88.002 134.505 88.002" stroke="black" stroke-width="1.99929" stroke-linecap="round" stroke-linejoin="round"/>
<path d="M138.412 118.49C147.706 118.49 155.24 110.971 155.24 101.696C155.24 92.4213 147.706 84.9023 138.412 84.9023C129.117 84.9023 121.583 92.4213 121.583 101.696C121.583 110.971 129.117 118.49 138.412 118.49Z" fill="#3DDB7F"/>
<path d="M172.97 84.1029C184.79 72.2071 190.8 58.512 194.406 51.3146C198.012 44.1171 201.118 46.3164 200.917 57.4124C200.717 68.5084 195.408 84.0029 177.878 90.1007L172.97 84.1029Z" fill="#3DDB7F"/>
<path d="M198.013 55.1133C193.004 70.1079 182.486 85.0026 182.486 85.0026" stroke="black" stroke-width="1.99929" stroke-linecap="round" stroke-linejoin="round"/>
<path d="M184.992 116.791C194.784 116.791 202.722 108.869 202.722 99.0975C202.722 89.3255 194.784 81.4038 184.992 81.4038C175.199 81.4038 167.262 89.3255 167.262 99.0975C167.262 108.869 175.199 116.791 184.992 116.791Z" fill="#3DDB7F"/>
<path d="M213.238 106.295C213.216 113.872 211.135 121.3 207.216 127.79C203.298 134.279 197.688 139.586 190.987 143.146C184.284 146.706 176.74 148.384 169.157 148.003C161.575 147.623 154.238 145.196 147.928 140.983H147.827C145.355 139.148 143.103 137.034 141.116 134.685C135.306 122.989 134.605 109.994 139.012 100.897C138.111 96.8986 137.31 93.1999 136.608 89.7011C136.219 87.9849 135.918 86.2499 135.707 84.503C133.403 70.8079 134.004 60.6115 141.016 53.1142C150.632 42.8179 170.566 45.0171 178.179 56.8129C179.908 59.5441 181.034 62.6108 181.484 65.8097C181.796 67.3596 181.996 68.9297 182.085 70.508C182.436 75.8406 182.303 81.1939 181.685 86.5023L198.413 106.395C201.919 101.797 206.126 99.6976 210.334 99.3977H212.637C213.029 101.676 213.23 103.983 213.238 106.295Z" fill="#3DDB7F"/>
<path d="M212.638 99.1974C200.718 98.3977 193.706 105.595 179.782 123.089C165.858 140.583 144.623 142.082 138.412 129.487H136.509C141.036 136.233 147.431 141.521 154.916 144.707C162.399 147.893 170.65 148.839 178.664 147.43C186.678 146.022 194.107 142.319 200.051 136.772C205.994 131.226 210.193 124.076 212.137 116.192C213.01 112.963 213.48 109.639 213.539 106.295C213.498 103.903 213.197 101.523 212.638 99.1974Z" fill="#0C1AAD"/>
<path d="M141.016 54.8131C141.817 61.6107 161.951 52.214 173.471 51.6143L145.623 49.415C144.368 50.1582 143.193 51.0293 142.117 52.0141C141.703 52.3425 141.383 52.7743 141.19 53.2658C140.996 53.7573 140.936 54.291 141.016 54.8131Z" fill="black"/>
<path d="M172.87 101.097C177.378 105.396 174.373 112.193 165.558 113.093C156.743 113.993 145.624 108.695 141.016 104.396C136.408 100.097 139.914 95.799 148.629 94.8993C157.344 93.9996 168.262 96.7986 172.87 101.097Z" fill="#990F61"/>
<path d="M171.467 99.9972C166.258 96.2985 156.642 94.0993 148.629 94.899C146.33 95.0716 144.086 95.6824 142.018 96.6984C142.018 100.797 145.724 104.496 153.537 103.996C155.44 103.796 156.542 101.397 156.542 101.397C168.061 104.096 171.467 104.896 171.467 99.9972Z" fill="white"/>
<path d="M156.542 101.397C147.227 98.9975 141.817 100.297 148.929 103.296C156.041 106.295 156.542 101.397 156.542 101.397Z" fill="#8CD9FF"/>
<path d="M148.93 114.492C152.581 114.492 155.541 111.538 155.541 107.895C155.541 104.251 152.581 101.297 148.93 101.297C145.278 101.297 142.318 104.251 142.318 107.895C142.318 111.538 145.278 114.492 148.93 114.492Z" fill="#FFE75C"/>
<path d="M141.316 116.191C144.082 116.191 146.325 113.953 146.325 111.193C146.325 108.432 144.082 106.195 141.316 106.195C138.55 106.195 136.308 108.432 136.308 111.193C136.308 113.953 138.55 116.191 141.316 116.191Z" fill="#FFE75C"/>
<path d="M141.317 109.494C143.309 109.494 144.923 107.882 144.923 105.895C144.923 103.908 143.309 102.296 141.317 102.296C139.325 102.296 137.711 103.908 137.711 105.895C137.711 107.882 139.325 109.494 141.317 109.494Z" fill="#FFE75C"/>
<path d="M160.149 131.486C162.141 131.486 163.755 129.875 163.755 127.887C163.755 125.9 162.141 124.289 160.149 124.289C158.157 124.289 156.543 125.9 156.543 127.887C156.543 129.875 158.157 131.486 160.149 131.486Z" fill="#FFE75C"/>
<path d="M154.839 139.983C157.495 139.983 159.647 137.835 159.647 135.185C159.647 132.535 157.495 130.387 154.839 130.387C152.184 130.387 150.031 132.535 150.031 135.185C150.031 137.835 152.184 139.983 154.839 139.983Z" fill="#FFE75C"/>
<path d="M179.583 140.983C182.238 140.983 184.391 138.835 184.391 136.185C184.391 133.534 182.238 131.386 179.583 131.386C176.927 131.386 174.774 133.534 174.774 136.185C174.774 138.835 176.927 140.983 179.583 140.983Z" fill="#FFE75C"/>
<path d="M121.082 137.884C123.737 137.884 125.89 135.735 125.89 133.085C125.89 130.435 123.737 128.287 121.082 128.287C118.426 128.287 116.273 130.435 116.273 133.085C116.273 135.735 118.426 137.884 121.082 137.884Z" fill="#FFE75C"/>
<path d="M169.566 144.482C170.561 144.482 171.369 143.676 171.369 142.682C171.369 141.689 170.561 140.883 169.566 140.883C168.569 140.883 167.763 141.689 167.763 142.682C167.763 143.676 168.569 144.482 169.566 144.482Z" fill="#FFE75C"/>
<path d="M167.762 119.29C169.09 119.29 170.166 118.216 170.166 116.891C170.166 115.566 169.09 114.492 167.762 114.492C166.434 114.492 165.357 115.566 165.357 116.891C165.357 118.216 166.434 119.29 167.762 119.29Z" fill="#FFE75C"/>
<path d="M161.75 160.876C162.746 160.876 163.553 160.07 163.553 159.076C163.553 158.083 162.746 157.277 161.75 157.277C160.755 157.277 159.947 158.083 159.947 159.076C159.947 160.07 160.755 160.876 161.75 160.876Z" fill="#FFE75C"/>
<path d="M168.063 204.46C169.059 204.46 169.866 203.654 169.866 202.661C169.866 201.667 169.059 200.861 168.063 200.861C167.066 200.861 166.26 201.667 166.26 202.661C166.26 203.654 167.066 204.46 168.063 204.46Z" fill="#FFE75C"/>
<path d="M154.84 133.086C156.831 133.086 158.446 131.474 158.446 129.487C158.446 127.5 156.831 125.888 154.84 125.888C152.848 125.888 151.233 127.5 151.233 129.487C151.233 131.474 152.848 133.086 154.84 133.086Z" fill="#FFE75C"/>
<path d="M161.751 119.391C165.182 119.391 167.962 116.616 167.962 113.193C167.962 109.77 165.182 106.995 161.751 106.995C158.321 106.995 155.541 109.77 155.541 113.193C155.541 116.616 158.321 119.391 161.751 119.391Z" fill="#FFE75C"/>
<path d="M143.921 123.589C147.352 123.589 150.132 120.814 150.132 117.391C150.132 113.968 147.352 111.193 143.921 111.193C140.491 111.193 137.711 113.968 137.711 117.391C137.711 120.814 140.491 123.589 143.921 123.589Z" fill="#FFE75C"/>
<path d="M157.644 116.392C161.074 116.392 163.855 113.617 163.855 110.194C163.855 106.771 161.074 103.996 157.644 103.996C154.214 103.996 151.434 106.771 151.434 110.194C151.434 113.617 154.214 116.392 157.644 116.392Z" fill="#FFE75C"/>
<path d="M144.422 69.4082L142.519 67.209" stroke="black" stroke-width="1.99929" stroke-linecap="round" stroke-linejoin="round"/>
<path d="M144.422 71.9071L141.617 71.1074" stroke="black" stroke-width="1.99929" stroke-linecap="round" stroke-linejoin="round"/>
<path d="M148.282 78.843C150.358 78.5148 151.592 75.4197 151.038 71.9297C150.484 68.4399 148.352 65.8769 146.276 66.2051C144.199 66.5333 142.965 69.6283 143.519 73.1182C144.073 76.6082 146.205 79.1711 148.282 78.843Z" fill="white"/>
<path d="M147.098 74.8977C148.034 74.7979 148.649 73.382 148.472 71.7351C148.296 70.0883 147.395 68.834 146.46 68.9338C145.525 69.0334 144.91 70.4493 145.086 72.0963C145.262 73.7432 146.163 74.9974 147.098 74.8977Z" fill="black"/>
<path d="M162.452 68.6087L164.856 66.3096" stroke="black" stroke-width="1.99929" stroke-linecap="round" stroke-linejoin="round"/>
<path d="M163.354 71.2075L166.659 70.8076" stroke="black" stroke-width="1.99929" stroke-linecap="round" stroke-linejoin="round"/>
<path d="M161.426 78.7949C163.83 78.415 165.331 75.2778 164.777 71.7879C164.223 68.2981 161.825 65.7771 159.421 66.157C157.016 66.5371 155.516 69.6742 156.07 73.164C156.624 76.654 159.022 79.175 161.426 78.7949Z" fill="white"/>
<path d="M170.866 40.6187C165.056 37.02 153.436 32.1217 145.122 35.4206C136.808 38.7194 139.913 45.2171 143.62 50.7151L173.47 51.6148C176.375 47.4163 176.375 44.0175 170.866 40.6187Z" fill="#0C1AAD"/>
<path d="M173.472 51.6144C161.964 52.7444 150.352 52.1718 139.012 49.915C129.596 48.0157 126.591 45.7165 138.011 46.3163C149.43 46.9161 157.945 48.7155 173.472 51.6144Z" fill="white"/>
<path d="M205.225 160.376C206.227 162.975 205.726 164.574 204.023 165.674C202.32 166.773 200.818 164.974 199.215 162.375C197.615 159.842 195.696 157.524 193.505 155.477C192.661 157.745 191.365 159.819 189.699 161.575C191.001 163.674 192.303 165.074 192.804 166.673C193.305 168.273 192.904 169.572 190.901 169.772C188.897 169.972 188.096 169.772 185.592 166.873C183.087 163.974 181.785 162.875 182.486 161.275C181.468 162.201 180.398 163.069 179.281 163.874L179.682 167.173C180.082 170.572 179.381 171.772 177.678 171.772C175.975 171.772 175.274 170.972 174.573 168.373C173.872 165.774 173.571 164.574 173.872 163.375C174.172 162.175 176.075 160.076 179.882 155.177C178.273 156.115 176.509 156.759 174.673 157.077C170.766 157.877 169.865 157.177 169.665 155.977C169.464 154.778 169.865 153.878 173.671 152.279C175.642 151.404 177.289 149.936 178.379 148.08L178.78 147.48C179.181 146.78 179.682 145.981 180.182 144.981C179.381 133.785 178.379 130.786 180.383 125.588C182.987 118.79 190.901 118.091 212.137 116.191C210.452 122.963 207.114 129.213 202.42 134.385L199.315 137.484C199.916 145.881 197.712 150.179 197.712 150.179C202.821 155.777 204.223 157.777 205.225 160.376Z" fill="#3DDB7F"/>
<path d="M199.515 128.487C199.495 128.38 199.451 128.28 199.386 128.193C199.321 128.106 199.236 128.037 199.139 127.989C199.043 127.94 198.935 127.915 198.826 127.915C198.718 127.915 198.611 127.94 198.514 127.988C198.315 128.055 198.153 128.198 198.059 128.385C197.966 128.572 197.949 128.788 198.013 128.987C198.788 131.756 199.226 134.61 199.315 137.484L200.818 136.085C200.709 133.508 200.271 130.954 199.515 128.487Z" fill="black"/>
<path d="M166.659 121.689C165.958 124.788 165.157 127.188 163.955 128.287C162.753 129.387 161.45 129.187 156.141 129.487C155.641 132.586 154.138 134.385 151.033 135.185C149.966 137.08 148.796 138.915 147.527 140.683C150.109 142.422 152.861 143.896 155.741 145.081C146.725 151.679 140.014 154.778 134.605 154.778C129.196 154.778 126.09 151.479 125.89 147.48C125.589 141.482 130.197 135.085 135.606 127.987C136.808 126.288 138.211 124.588 139.413 122.789C140.173 121.786 140.648 120.599 140.789 119.35C140.93 118.101 140.732 116.837 140.214 115.692C139.566 114.325 138.794 113.021 137.91 111.793C136.808 110.094 137.209 108.394 139.112 106.395C141.016 104.396 142.017 103.396 143.62 104.496C145.223 105.595 143.82 107.994 143.019 109.394L144.221 111.093C144.822 111.793 145.523 111.793 149.129 110.094C154.639 107.495 159.146 105.995 162.452 105.795C165.758 105.595 166.459 106.995 166.659 107.994C166.86 108.994 166.158 109.594 162.452 111.293C158.746 112.993 154.839 115.092 154.839 115.092C159.146 114.992 164.255 115.492 165.958 116.191C167.661 116.891 167.26 118.591 166.659 121.689Z" fill="#3DDB7F"/>
<path d="M155.741 145.081C152.861 143.895 150.109 142.422 147.527 140.683L145.824 143.082C149.43 145.481 150.031 147.48 149.831 149.08C151.734 147.98 153.638 146.581 155.741 145.081Z" fill="black"/>
<path d="M145.224 114.492C147.127 115.392 146.927 116.691 146.526 118.491C146.125 120.29 146.526 120.89 147.628 122.989C148.73 125.088 148.028 126.188 147.327 128.287" stroke="#19B375" stroke-width="1.99929" stroke-linecap="round" stroke-linejoin="round"/>
<path d="M160.111 75.2588C161.155 75.1419 161.836 73.5793 161.633 71.7689C161.43 69.9583 160.418 68.5854 159.373 68.7023C158.328 68.8192 157.647 70.3818 157.85 72.1922C158.054 74.0028 159.066 75.3758 160.111 75.2588Z" fill="black"/>
<path d="M137.109 96.7982C138.287 95.2196 139.707 93.8364 141.317 92.6997" stroke="#19B375" stroke-width="1.99929" stroke-linecap="round" stroke-linejoin="round"/>
<path d="M172.771 92.3003C173.271 95.0993 175.876 102.397 181.986 106.495" stroke="#19B375" stroke-width="1.99929" stroke-linecap="round" stroke-linejoin="round"/>
<path d="M166.459 122.29H155.14C154.928 122.29 154.724 122.374 154.574 122.523C154.423 122.673 154.339 122.877 154.339 123.089C154.361 123.294 154.452 123.485 154.598 123.63C154.744 123.776 154.935 123.867 155.14 123.889H166.159L166.459 122.29Z" fill="black"/>
<path d="M155.54 114.892L154.138 115.192" stroke="black" stroke-width="1.99929" stroke-linecap="round" stroke-linejoin="round"/>
<path d="M182.486 160.076C183.688 158.177 185.491 154.378 185.491 154.378" stroke="black" stroke-width="1.99929" stroke-linecap="round" stroke-linejoin="round"/>
<path d="M180.984 152.079C180.809 152.001 180.611 151.988 180.428 152.043C180.244 152.098 180.086 152.217 179.982 152.379C179.209 153.739 178.339 155.042 177.378 156.277C178.265 156.044 179.111 155.674 179.882 155.178L181.285 153.178C181.339 153.086 181.373 152.985 181.387 152.88C181.401 152.775 181.393 152.668 181.366 152.566C181.338 152.464 181.29 152.368 181.223 152.284C181.158 152.201 181.077 152.131 180.984 152.079Z" fill="black"/>
<path d="M269.935 278.134C268.032 271.336 268.533 262.839 281.354 259.74C279.852 241.447 280.052 237.648 294.577 227.352C296.782 225.77 298.444 223.55 299.341 220.993C300.236 218.435 300.322 215.664 299.585 213.057C298.415 209.106 297.611 205.058 297.181 200.961C296.872 197.666 297.26 194.344 298.322 191.209C299.383 188.074 301.094 185.196 303.343 182.764C305.591 180.332 308.326 178.398 311.372 177.09C314.419 175.782 317.706 175.127 321.022 175.17C327.149 175.215 333.061 177.431 337.703 181.422C342.345 185.414 345.415 190.922 346.365 196.963C347.511 204.553 347.17 212.293 345.363 219.755C353.978 218.655 357.283 226.652 353.377 233.25C364.696 238.848 368.302 240.447 366.099 267.737L367.801 268.137C369.047 268.404 370.213 268.957 371.207 269.751C372.202 270.544 372.998 271.559 373.532 272.713C374.067 273.866 374.324 275.128 374.286 276.398C374.248 277.669 373.914 278.913 373.311 280.033L372.91 281.033L378.319 283.732C378.627 283.921 378.881 284.186 379.057 284.5C379.232 284.815 379.323 285.17 379.321 285.531C379.321 286.035 379.121 286.518 378.764 286.874C378.406 287.23 377.923 287.43 377.418 287.43H269.935C269.137 287.449 268.352 287.224 267.686 286.785C267.02 286.345 266.505 285.712 266.211 284.971C265.916 284.231 265.855 283.418 266.038 282.642C266.221 281.866 266.636 281.166 267.23 280.633L269.935 278.134Z" fill="#3DDB7F"/>
<path d="M306.297 200.562C305.295 199.462 303.292 197.763 303.292 197.763" stroke="#19B375" stroke-width="1.99929" stroke-linecap="round" stroke-linejoin="round"/>
<path d="M333.643 196.863C332.311 196.883 331.01 197.267 329.88 197.971C328.75 198.676 327.834 199.675 327.232 200.861" stroke="#19B375" stroke-width="1.99929" stroke-linecap="round" stroke-linejoin="round"/>
<path d="M316.614 193.664C315.867 191.67 315.596 189.529 315.821 187.412C316.047 185.296 316.765 183.261 317.917 181.468" stroke="#19B375" stroke-width="1.99929" stroke-linecap="round" stroke-linejoin="round"/>
<path d="M292.373 235.149C288.166 241.947 289.167 248.344 290.67 259.14C292.173 269.937 294.376 257.641 295.979 247.045C297.582 236.449 295.979 229.451 292.373 235.149Z" fill="black"/>
<path d="M338.352 235.149C343.861 236.348 343.26 238.548 343.56 253.342C343.861 268.137 337.65 251.743 337.049 245.845C336.751 242.228 337.194 238.589 338.352 235.149Z" fill="black"/>
<path d="M309.803 243.446C310.304 237.848 311.305 230.051 316.314 225.253C316.414 231.651 318.818 242.347 318.818 242.347" stroke="black" stroke-width="1.99929" stroke-linecap="round" stroke-linejoin="round"/>
<path d="M337.249 248.144L335.847 247.844L324.828 243.746L318.217 237.048C319.353 235.689 320.556 234.388 321.823 233.15C324.928 229.951 326.631 230.65 329.536 232.05C332.314 233.49 335.282 234.534 338.351 235.149C338.97 235.277 339.548 235.553 340.037 235.954C340.526 236.354 340.909 236.867 341.156 237.448C341.702 238.959 341.922 240.569 341.801 242.171C341.681 243.774 341.222 245.332 340.455 246.745C340.133 247.283 339.651 247.707 339.077 247.958C338.502 248.209 337.863 248.274 337.249 248.144Z" fill="#3091F0"/>
<path d="M324.828 239.048L325.93 235.449" stroke="black" stroke-width="1.99929" stroke-linecap="round" stroke-linejoin="round"/>
<path d="M297.582 233.95H318.317C319.46 233.968 320.586 234.226 321.622 234.708C322.658 235.19 323.58 235.886 324.327 236.749L330.638 244.446C331.321 245.297 331.693 246.354 331.693 247.445C331.693 248.536 331.321 249.593 330.638 250.444C329.856 251.375 328.749 251.975 327.541 252.124C326.332 252.272 325.112 251.957 324.127 251.244L318.918 247.245H303.492L302.59 249.344C302.286 250.161 301.739 250.867 301.024 251.366C300.308 251.866 299.457 252.137 298.584 252.143C298.001 252.157 297.422 252.052 296.881 251.836C296.34 251.62 295.849 251.297 295.436 250.886C295.024 250.474 294.7 249.984 294.484 249.444C294.267 248.904 294.162 248.327 294.176 247.745V237.448C294.176 236.538 294.532 235.662 295.168 235.009C295.803 234.356 296.669 233.976 297.582 233.95Z" fill="white"/>
<path d="M334.445 236.349L326.632 236.749C326.632 236.749 325.33 241.347 324.829 242.646C323.58 243.05 322.309 243.384 321.022 243.646C320.482 243.735 319.968 243.943 319.518 244.254C319.068 244.565 318.692 244.972 318.418 245.445C318.226 245.816 318.123 246.227 318.117 246.645C318.068 247.024 318.107 247.41 318.23 247.772C318.355 248.133 318.559 248.462 318.83 248.732C319.101 249.003 319.43 249.208 319.793 249.331C320.156 249.454 320.542 249.493 320.922 249.444C325.33 249.044 328.735 248.644 330.639 244.446C329.21 247.349 328.392 250.513 328.234 253.742C328.207 254.087 328.252 254.433 328.365 254.76C328.478 255.087 328.658 255.387 328.894 255.64C329.129 255.894 329.415 256.096 329.732 256.234C330.05 256.372 330.393 256.443 330.739 256.442C331.076 256.469 331.415 256.428 331.735 256.321C332.057 256.214 332.352 256.043 332.605 255.819C332.857 255.594 333.063 255.321 333.206 255.016C333.35 254.711 333.431 254.379 333.443 254.042C333.744 250.244 334.946 248.344 337.049 245.845C339.153 243.346 337.25 236.249 334.445 236.349Z" fill="#3091F0"/>
<path d="M296.079 255.342C296.423 255.608 296.846 255.75 297.281 255.742C297.885 255.718 298.457 255.468 298.884 255.042C299.202 254.633 299.359 254.12 299.322 253.604C299.285 253.088 299.057 252.603 298.683 252.243H298.483C297.919 252.25 297.359 252.137 296.841 251.913C296.323 251.689 295.86 251.359 295.478 250.943C294.893 250.367 294.477 249.64 294.276 248.844H299.785C302.79 248.844 302.991 247.345 301.689 245.945C300.386 244.546 299.585 244.046 298.483 244.046H294.176V237.548C294.176 236.637 294.531 235.762 295.167 235.109C295.804 234.455 296.669 234.075 297.582 234.049H303.291C302.891 233.35 302.29 232.35 301.789 231.25C301.288 230.151 300.487 229.151 298.984 229.051C298.439 229.043 297.899 229.166 297.411 229.41C296.922 229.653 296.501 230.01 296.179 230.451C295.519 231.475 294.627 232.331 293.575 232.95C291.271 234.249 291.171 235.349 290.47 238.148C289.768 240.947 289.568 242.146 289.167 243.746C287.565 250.244 290.369 251.343 296.079 255.342Z" fill="#3091F0"/>
<path d="M309.002 239.148H304.995C304.23 239.157 303.475 238.979 302.793 238.63C302.113 238.282 301.527 237.773 301.088 237.149C300.888 236.949 301.088 236.549 301.389 236.549H312.408C312.522 236.521 312.642 236.533 312.748 236.585C312.854 236.636 312.939 236.724 312.986 236.831C313.034 236.939 313.043 237.059 313.01 237.172C312.978 237.285 312.906 237.383 312.808 237.449L312.308 237.948C311.387 238.734 310.213 239.16 309.002 239.148Z" fill="#3442D9"/>
<path d="M318.818 238.148C318.818 237.265 318.123 236.549 317.266 236.549C316.408 236.549 315.713 237.265 315.713 238.148V239.888C315.713 240.77 316.408 241.487 317.266 241.487C318.123 241.487 318.818 240.77 318.818 239.888V238.148Z" fill="#FFE75C"/>
<path d="M299.185 238.148C299.185 237.265 298.49 236.549 297.633 236.549C296.775 236.549 296.08 237.265 296.08 238.148V239.888C296.08 240.77 296.775 241.487 297.633 241.487C298.49 241.487 299.185 240.77 299.185 239.888V238.148Z" fill="#FFE75C"/>
<path d="M288.367 287.43H344.663L326.532 270.037L298.985 255.342C297.855 254.731 296.615 254.349 295.337 254.22C294.058 254.09 292.767 254.215 291.537 254.587C290.308 254.959 289.164 255.571 288.172 256.386C287.182 257.202 286.362 258.206 285.762 259.34L282.857 264.738L288.367 287.43Z" fill="#3091F0"/>
<path d="M290.67 287.43L317.315 270.437L332.441 287.43H290.67Z" fill="black"/>
<path d="M297.482 262.14C298.089 264.88 298.557 267.649 298.885 270.437" stroke="black" stroke-width="1.99929" stroke-linecap="round" stroke-linejoin="round"/>
<path d="M278.256 273.971L295.028 282.946L299.971 273.748L283.197 264.773L278.256 273.971Z" fill="white"/>
<path d="M299.731 273.929C301.352 270.913 298.911 266.458 294.279 263.98C289.648 261.502 284.579 261.937 282.958 264.954C281.337 267.971 283.778 272.426 288.409 274.904C293.041 277.382 298.11 276.946 299.731 273.929Z" fill="white"/>
<path d="M281.555 267.138C283.158 264.139 288.267 263.739 292.874 266.138C297.482 268.537 299.987 273.136 298.384 276.134L297.082 278.534C298.684 275.535 296.28 271.036 291.572 268.537C286.864 266.038 281.956 266.538 280.253 269.537L281.555 267.138Z" fill="#3442D9"/>
<path d="M292.273 287.431H282.456C276.747 287.431 272.339 285.831 269.134 283.232C263.123 278.134 264.325 275.135 266.429 272.736C268.533 270.337 273.14 268.438 277.949 273.936L294.777 282.932L292.273 287.431Z" fill="#F54C9D"/>
<path d="M265.027 274.835C265.215 274.309 265.518 273.83 265.912 273.434C266.307 273.038 266.785 272.734 267.311 272.543C267.836 272.352 268.398 272.279 268.956 272.33C269.513 272.381 270.053 272.553 270.536 272.836C274.743 275.135 278.249 282.632 280.653 284.231C283.057 285.831 287.064 286.531 292.774 286.531L292.273 287.43H282.456C276.747 287.43 272.339 285.831 269.134 283.232C265.928 280.633 264.225 276.834 265.027 274.835Z" fill="#FFF2A6"/>
<path d="M294.816 283.092C296.436 280.076 293.996 275.621 289.364 273.143C284.732 270.665 279.664 271.101 278.042 274.117C276.421 277.134 278.862 281.589 283.494 284.067C288.126 286.546 293.195 286.109 294.816 283.092Z" fill="#F54C9D"/>
<path d="M275.044 281.433C277.749 286.331 282.457 287.43 288.367 287.43H282.457C276.747 287.43 272.34 285.831 269.134 283.232C265.929 280.633 264.927 278.534 264.727 276.934C264.827 272.836 270.436 273.236 275.044 281.433Z" fill="black"/>
<path d="M324.828 192.664C331.64 197.463 332.741 207.259 327.032 213.057L316.514 223.853L307.298 210.058C305.74 207.759 304.965 205.018 305.091 202.245C305.218 199.471 306.237 196.812 307.999 194.664C310.043 192.286 312.907 190.761 316.024 190.391C319.14 190.02 322.283 190.832 324.828 192.664Z" fill="#3091F0"/>
<path d="M311.706 207.859H322.925C325.249 207.859 327.132 205.978 327.132 203.66V203.65C327.132 201.331 325.249 199.452 322.925 199.452H311.706C309.383 199.452 307.499 201.331 307.499 203.65V203.66C307.499 205.978 309.383 207.859 311.706 207.859Z" fill="#3E4EE8"/>
<path d="M322.825 202.561L321.122 204.061" stroke="black" stroke-width="1.99929" stroke-linecap="round" stroke-linejoin="round"/>
<path d="M311.906 204.061L310.904 202.561" stroke="black" stroke-width="1.99929" stroke-linecap="round" stroke-linejoin="round"/>
<path d="M315.512 278.134C322.224 284.931 324.728 287.43 335.046 287.43H344.662V270.037L317.215 255.342C316.089 254.717 314.848 254.324 313.567 254.188C312.285 254.051 310.989 254.173 309.755 254.546C308.522 254.919 307.376 255.536 306.387 256.359C305.396 257.182 304.583 258.197 303.993 259.34L301.288 264.339L315.512 278.134Z" fill="#3091F0"/>
<path d="M314.711 277.234L319.92 267.638" stroke="black" stroke-width="1.99929" stroke-linecap="round" stroke-linejoin="round"/>
<path d="M296.369 273.875L313.142 282.851L318.296 273.257L301.524 264.282L296.369 273.875Z" fill="white"/>
<path d="M310.505 287.431H300.688C294.878 287.431 290.471 285.831 287.365 283.232C281.255 278.134 282.457 275.135 284.561 272.736C286.664 270.337 291.272 268.438 296.08 273.936L312.909 282.932L310.505 287.431Z" fill="#FF78B9"/>
<path d="M283.258 274.835C283.434 274.312 283.726 273.835 284.11 273.439C284.496 273.042 284.965 272.737 285.483 272.545C286.002 272.354 286.557 272.28 287.108 272.33C287.659 272.381 288.191 272.553 288.667 272.836C292.874 275.135 296.48 282.632 298.884 284.232C301.288 285.831 305.195 286.531 311.005 286.531L310.504 287.431H300.687C294.877 287.431 290.47 285.831 287.365 283.232C284.259 280.633 282.356 276.835 283.258 274.835Z" fill="#FFF2A6"/>
<path d="M282.857 276.934C283.058 278.533 284.26 280.633 287.365 283.132C290.47 285.631 294.878 287.43 300.688 287.43H302.992C299.185 287.33 296.581 286.531 293.175 281.432C288.066 273.635 283.058 272.835 282.857 276.934Z" fill="black"/>
<path d="M329.437 261.84L331.34 262.839C332.843 263.646 334.102 264.843 334.984 266.302C335.864 267.763 336.336 269.432 336.348 271.137V279.334C336.325 280.621 336.603 281.898 337.159 283.06C337.715 284.223 338.535 285.239 339.554 286.031C341.055 287.048 342.851 287.54 344.662 287.431H347.968V263.639L329.437 261.84Z" fill="#3DDB7F"/>
<path d="M318.205 273.524C319.826 270.508 317.385 266.053 312.753 263.575C308.121 261.097 303.052 261.533 301.432 264.55C299.811 267.567 302.252 272.021 306.884 274.499C311.516 276.977 316.584 276.541 318.205 273.524Z" fill="white"/>
<path d="M313 283.141C314.621 280.124 312.18 275.67 307.548 273.191C302.916 270.713 297.847 271.148 296.227 274.165C294.606 277.182 297.046 281.637 301.678 284.116C306.31 286.594 311.379 286.157 313 283.141Z" fill="#FF78B9"/>
<path d="M299.986 266.838C301.589 263.739 306.597 263.339 311.305 265.838C316.013 268.337 318.317 272.736 316.714 275.735L315.412 278.134C317.115 275.135 314.611 270.736 310.003 268.237C305.395 265.738 300.286 266.138 298.684 269.237L299.986 266.838Z" fill="#3442D9"/>
<path d="M316.314 225.253C311.306 220.054 308.2 219.954 309.202 225.253C310.204 230.551 311.506 228.052 316.314 225.253Z" stroke="black" stroke-width="1.99929" stroke-linecap="round" stroke-linejoin="round"/>
<path d="M316.313 225.252C322.624 221.354 327.332 220.454 324.828 225.252C322.324 230.051 321.522 230.651 316.313 225.252Z" stroke="black" stroke-width="1.99929" stroke-linecap="round" stroke-linejoin="round"/>
<path d="M371.609 278.934C367.001 280.433 361.191 284.232 356.583 285.331" stroke="#19B375" stroke-width="1.99929" stroke-linecap="round" stroke-linejoin="round"/>
<path d="M345.363 219.754C342.255 220.266 339.346 221.615 336.949 223.653L336.348 223.853C336.216 223.857 336.085 223.832 335.963 223.781C335.842 223.729 335.734 223.651 335.647 223.553C335.567 223.471 335.507 223.373 335.468 223.266C335.429 223.158 335.414 223.044 335.423 222.93C335.433 222.817 335.468 222.706 335.523 222.607C335.579 222.507 335.655 222.421 335.747 222.354C338.589 219.95 342.069 218.422 345.764 217.955C345.664 218.555 345.464 219.155 345.363 219.754Z" fill="#19B375"/>
<path d="M316.714 215.556C319.646 215.556 322.023 213.408 322.023 210.758C322.023 208.108 319.646 205.959 316.714 205.959C313.782 205.959 311.405 208.108 311.405 210.758C311.405 213.408 313.782 215.556 316.714 215.556Z" fill="#3E4EE8"/>
<path d="M318.417 209.558C318.162 210.418 317.576 211.142 316.787 211.572C316 212.002 315.073 212.105 314.21 211.857" stroke="black" stroke-width="1.99929" stroke-linecap="round" stroke-linejoin="round"/>
<path d="M329.035 176.47C326.02 175.792 322.868 176.072 320.02 177.269C319.26 177.514 318.549 177.886 317.916 178.369H302.39C301.31 178.368 300.254 178.056 299.347 177.471C298.442 176.885 297.724 176.052 297.281 175.07C296.648 173.74 296.209 172.326 295.979 170.872C295.478 167.573 296.88 164.874 299.986 162.974L278.148 133.485C288.165 122.589 293.575 113.492 305.094 125.688C316.614 137.883 324.627 153.378 329.035 160.775C332.541 166.573 333.042 171.571 329.035 176.47Z" fill="#459FF7"/>
<path d="M299.284 161.875L289.067 148.18C288.954 148.039 288.8 147.935 288.626 147.882C288.453 147.829 288.268 147.83 288.094 147.884C287.921 147.938 287.769 148.043 287.657 148.185C287.543 148.327 287.477 148.499 287.464 148.68C286.963 167.873 287.965 177.37 297.381 178.37L295.378 167.473L296.981 164.275L299.284 161.875Z" fill="black"/>
<path d="M317.014 160.676C314.401 159.378 311.506 158.744 308.588 158.832C305.669 158.919 302.818 159.724 300.286 161.175C295.678 163.874 293.474 169.273 297.581 175.17" stroke="black" stroke-width="1.99929" stroke-linecap="round" stroke-linejoin="round"/>
<path d="M320.021 177.27C319.262 177.515 318.55 177.887 317.917 178.369C316.396 179.29 315.149 180.602 314.311 182.168L299.686 192.164C297.282 193.564 294.578 193.564 294.177 192.164C293.914 190.882 293.78 189.575 293.776 188.266C292.539 186.952 291.401 185.549 290.37 184.067C288.868 181.968 290.17 179.869 291.973 175.97C292.878 173.974 294.252 172.225 295.98 170.872C297.749 169.609 299.666 168.569 301.69 167.773C307.399 165.274 314.812 166.873 316.815 168.373C318.819 169.872 319.921 171.672 320.021 177.27Z" fill="#FF8CC4"/>
<path d="M298.182 186.766C297.307 184.163 296.67 181.487 296.278 178.769" stroke="black" stroke-width="1.99929" stroke-linecap="round" stroke-linejoin="round"/>
<path d="M315.713 174.871L297.582 175.17C296.581 186.666 298.183 189.865 298.884 192.964C299.586 196.063 301.088 196.263 302.19 196.263H308.701C311.406 196.263 312.808 196.363 313.81 194.963C314.812 193.564 314.211 191.465 313.009 187.466C312.832 186.924 312.767 186.353 312.819 185.786C312.87 185.219 313.038 184.668 313.309 184.167C314.949 181.347 315.78 178.13 315.713 174.871Z" fill="#FF8CC4"/>
<path d="M308.099 196.263H306.296C303.992 189.066 303.091 185.267 303.191 182.768C303.427 180.185 303.795 177.616 304.293 175.071C304.299 174.956 304.332 174.843 304.392 174.744C304.451 174.645 304.534 174.562 304.634 174.503C304.733 174.443 304.845 174.409 304.96 174.404C305.075 174.398 305.19 174.421 305.295 174.471C305.448 174.479 305.594 174.53 305.718 174.619C305.843 174.707 305.94 174.83 305.996 174.971C306.04 175.047 306.063 175.133 306.063 175.22C306.063 175.308 306.04 175.394 305.996 175.47C305.498 177.912 305.163 180.383 304.994 182.868C304.894 185.167 305.795 189.166 308.099 196.263Z" fill="black"/>
<path d="M393.044 226.352C392.143 224.011 391.986 221.45 392.596 219.018C393.205 216.585 394.551 214.399 396.45 212.757C407.97 202.661 424.298 195.563 424.899 195.263C426.734 194.489 428.801 194.463 430.655 195.191C432.51 195.92 434.003 197.346 434.816 199.162C435.588 200.979 435.611 203.027 434.88 204.861C434.148 206.695 432.721 208.168 430.909 208.959C424.519 211.931 418.358 215.372 412.478 219.255H417.887C419.879 219.255 421.79 220.045 423.199 221.451C424.608 222.857 425.399 224.764 425.399 226.752C425.399 228.741 424.608 230.648 423.199 232.053C421.79 233.46 419.879 234.25 417.887 234.25H404.564C402.069 234.253 399.631 233.499 397.574 232.088C395.517 230.678 393.937 228.678 393.044 226.352Z" fill="#19B375"/>
<path d="M408.372 219.955C405.485 218.255 402.387 216.944 399.156 216.056" stroke="black" stroke-width="1.99929" stroke-linecap="round" stroke-linejoin="round"/>
<path d="M401.459 180.569C403.069 180.574 404.632 180.018 405.876 178.995C407.119 177.974 407.967 176.55 408.27 174.971C410.674 162.575 415.583 155.478 423.196 147.281C424.444 145.928 425.104 144.137 425.029 142.299C424.953 140.462 424.149 138.73 422.795 137.484C421.44 136.237 419.645 135.58 417.803 135.655C415.962 135.73 414.226 136.531 412.978 137.884C404.163 147.381 397.652 156.877 394.647 172.372C394.322 174.172 394.717 176.027 395.747 177.541C396.777 179.054 398.359 180.106 400.156 180.469L401.459 180.569Z" fill="#19B375"/>
<path d="M401.459 180.569C403.054 180.577 404.607 180.049 405.866 179.069C408.771 176.781 411.93 174.836 415.282 173.271C416.149 172.929 416.936 172.416 417.598 171.762C418.26 171.107 418.783 170.327 419.135 169.467C419.487 168.606 419.662 167.682 419.648 166.754C419.633 165.824 419.43 164.906 419.053 164.058C418.674 163.208 418.128 162.443 417.446 161.811C416.764 161.177 415.96 160.688 415.085 160.372C414.208 160.056 413.278 159.92 412.347 159.972C411.418 160.024 410.508 160.264 409.673 160.676C405.19 162.722 400.956 165.271 397.051 168.273C395.64 169.459 394.753 171.153 394.584 172.987C394.416 174.821 394.978 176.647 396.15 178.07C396.797 178.849 397.607 179.477 398.525 179.91C399.442 180.342 400.444 180.567 401.459 180.569Z" fill="#19B375"/>
<path d="M413.481 159.976C410.075 158.377 405.267 160.576 399.657 165.674" stroke="black" stroke-width="1.99929" stroke-linecap="round" stroke-linejoin="round"/>
<path d="M410.174 91.5999C410.025 92.616 410.103 93.6522 410.402 94.6349C410.701 95.6175 411.212 96.5226 411.901 97.2859C412.589 98.0492 413.437 98.6519 414.386 99.0512C415.333 99.4507 416.357 99.637 417.386 99.597H421.493C423.708 99.5678 425.838 98.7434 427.494 97.2748C429.149 95.8062 430.22 93.7916 430.508 91.5999L432.011 77.5049C432.158 76.4887 432.08 75.4525 431.781 74.4699C431.483 73.4871 430.972 72.5821 430.284 71.8188C429.595 71.0556 428.747 70.4529 427.799 70.0535C426.851 69.6541 425.826 69.4678 424.798 69.5077H420.691C418.477 69.5369 416.346 70.3614 414.69 71.8299C413.034 73.2986 411.965 75.3132 411.676 77.5049L410.174 91.5999Z" fill="#9CA4FF"/>
<path d="M419.59 80.904H426.902L428.405 67.0089C428.81 63.8427 430.333 60.9248 432.702 58.7805C435.071 56.6362 438.129 55.4066 441.327 55.3131H462.463C463.917 55.2866 465.36 55.5733 466.692 56.1535C468.025 56.7338 469.217 57.594 470.187 58.6756C471.157 59.7571 471.882 61.0345 472.312 62.421C472.742 63.8073 472.867 65.2698 472.68 66.709L471.178 80.904H481.094L482.797 65.7094C483.044 63.8225 482.878 61.9048 482.312 60.0878C481.746 58.2708 480.792 56.5976 479.517 55.1827C478.242 53.7679 476.675 52.645 474.925 51.8911C473.174 51.1372 471.281 50.7699 469.375 50.8147H437.921C433.822 50.9005 429.889 52.4507 426.838 55.1838C423.787 57.917 421.82 61.6516 421.293 65.7094L419.59 80.904Z" fill="#9CA4FF"/>
<path d="M413.48 91.5999C413.349 92.613 413.44 93.6422 413.746 94.6173C414.05 95.5922 414.563 96.49 415.248 97.2493C415.933 98.0085 416.773 98.6113 417.713 99.0164C418.652 99.4217 419.669 99.6197 420.692 99.597H424.899C427.097 99.5441 429.203 98.7091 430.838 97.2427C432.473 95.7762 433.529 93.7749 433.814 91.5999L435.317 77.5049C435.465 76.4887 435.387 75.4525 435.088 74.4699C434.79 73.4871 434.278 72.5821 433.59 71.8188C432.902 71.0556 432.053 70.4529 431.105 70.0535C430.157 69.6541 429.133 69.4678 428.104 69.5077H423.997C421.789 69.5573 419.669 70.3887 418.018 71.8536C416.366 73.3186 415.291 75.3215 414.982 77.5049L413.48 91.5999Z" fill="black"/>
<path d="M388.437 133.186H420.191C421.244 133.308 422.31 133.206 423.32 132.887C424.331 132.569 425.263 132.04 426.054 131.338C426.845 130.634 427.478 129.771 427.912 128.806C428.346 127.842 428.569 126.796 428.569 125.739C428.569 124.681 428.346 123.635 427.912 122.671C427.478 121.706 426.845 120.843 426.054 120.14C425.263 119.437 424.331 118.908 423.32 118.589C422.31 118.271 421.244 118.169 420.191 118.291H388.437C387.384 118.169 386.317 118.271 385.307 118.589C384.297 118.908 383.365 119.437 382.574 120.14C381.783 120.843 381.149 121.706 380.716 122.671C380.282 123.635 380.058 124.681 380.058 125.739C380.058 126.796 380.282 127.842 380.716 128.806C381.149 129.771 381.783 130.634 382.574 131.338C383.365 132.04 384.297 132.569 385.307 132.887C386.317 133.206 387.384 133.308 388.437 133.186Z" fill="#19B375"/>
<path d="M475.602 99.4749C480.491 82.8976 471.547 65.6681 455.626 60.9919C439.704 56.3156 422.833 65.9631 417.945 82.5404C413.056 99.1177 421.999 116.347 437.921 121.024C453.842 125.7 470.713 116.052 475.602 99.4749Z" fill="#3DDB7F"/>
<path d="M409.472 137.184C409.268 141.718 409.992 146.247 411.601 150.492C413.209 154.739 415.668 158.612 418.827 161.877C421.988 165.143 425.781 167.731 429.976 169.483C434.172 171.236 438.682 172.116 443.23 172.071C462.663 172.071 479.091 156.477 479.792 137.184C480.493 117.891 475.485 102.296 446.435 102.296C417.386 102.296 410.274 117.891 409.472 137.184Z" fill="#3DDB7F"/>
<path d="M461.962 120.79C463.865 126.688 467.071 133.685 469.675 132.086C472.279 130.486 471.378 124.988 468.874 120.79C466.369 116.591 461.962 120.79 461.962 120.79Z" fill="black"/>
<path d="M415.184 157.277C417.718 153.831 420.837 150.854 424.399 148.48C424.528 148.352 424.686 148.256 424.858 148.198C425.03 148.14 425.214 148.121 425.394 148.144C425.574 148.167 425.748 148.23 425.9 148.33C426.052 148.429 426.18 148.561 426.273 148.717C426.368 148.873 426.424 149.048 426.44 149.229C426.456 149.41 426.431 149.592 426.367 149.762C426.301 149.931 426.199 150.084 426.066 150.209C425.934 150.332 425.775 150.425 425.601 150.479C422.055 152.804 418.993 155.791 416.586 159.276C416.062 158.651 415.592 157.982 415.184 157.277Z" fill="black"/>
<path d="M458.455 146.881C458.519 146.748 458.61 146.629 458.72 146.532C458.831 146.434 458.96 146.36 459.1 146.313C459.241 146.266 459.389 146.248 459.536 146.26C459.683 146.272 459.827 146.313 459.958 146.381C465.054 148.738 469.541 152.225 473.08 156.577C472.671 157.251 472.201 157.886 471.678 158.477C468.299 154.193 463.981 150.739 459.056 148.38C458.914 148.326 458.785 148.243 458.677 148.136C458.569 148.03 458.483 147.902 458.427 147.761C458.371 147.62 458.344 147.47 458.349 147.319C458.354 147.167 458.39 147.018 458.455 146.881Z" fill="black"/>
<path d="M410.175 177.969C409.971 182.57 410.708 187.163 412.342 191.47C413.974 195.776 416.471 199.705 419.677 203.016C422.883 206.327 426.731 208.952 430.987 210.731C435.245 212.508 439.819 213.402 444.433 213.357C453.408 213.413 462.05 209.961 468.509 203.74C474.968 197.518 478.731 189.022 478.992 180.069C479.393 161.775 464.567 146.081 445.735 145.081C426.903 144.081 411.076 158.676 410.175 177.969Z" fill="#3DDB7F"/>
<path d="M430.909 205.16C428.505 225.952 443.731 242.547 464.266 242.047C484.801 241.547 501.429 225.253 503.332 205.76C505.236 186.267 490.711 169.872 470.977 169.273C451.244 168.673 433.313 184.667 430.909 205.16Z" fill="#3DDB7F"/>
<path d="M480.495 193.364C480.377 193.549 480.213 193.7 480.021 193.805C479.828 193.91 479.612 193.965 479.393 193.964H478.892C478.616 193.815 478.408 193.565 478.315 193.266C478.222 192.967 478.249 192.643 478.391 192.364C481.706 186.376 486.412 181.268 492.115 177.47L493.918 179.069C488.288 182.606 483.665 187.529 480.495 193.364Z" fill="black"/>
<path d="M396.951 222.553C397.917 221.424 399.16 220.562 400.557 220.054C401.919 219.484 403.388 219.211 404.864 219.255H417.085V234.249H404.564C402.695 234.254 400.847 233.844 399.155 233.05C398.194 232.627 397.348 231.981 396.687 231.166C396.025 230.353 395.568 229.392 395.352 228.366C395.137 227.341 395.17 226.278 395.447 225.267C395.726 224.256 396.241 223.326 396.951 222.553Z" fill="white"/>
<path d="M416.686 219.155L418.689 216.956C418.978 216.669 419.322 216.441 419.701 216.287C420.078 216.132 420.484 216.054 420.893 216.056C423.096 216.156 425.3 217.256 427.604 219.255C428.643 220.176 429.933 220.768 431.31 220.954C435.217 221.354 438.322 222.654 439.524 225.653C440.726 228.652 437.721 234.25 433.314 234.25H417.787C419.789 234.25 421.71 233.463 423.136 232.06C424.56 230.657 425.373 228.75 425.4 226.752C425.4 224.737 424.598 222.805 423.171 221.38C421.742 219.956 419.806 219.155 417.787 219.155H416.686Z" fill="#8CD9FF"/>
<path d="M418.688 216.956C418.977 216.669 419.322 216.441 419.7 216.287C420.078 216.132 420.483 216.054 420.892 216.056C423.095 216.156 425.299 217.256 427.603 219.255C428.643 220.176 429.932 220.768 431.309 220.954C435.216 221.354 438.321 222.654 439.523 225.653C440.092 227.14 440.056 228.791 439.423 230.251C440.024 227.952 438.822 225.253 434.915 224.053C431.009 222.854 428.104 222.454 424.798 219.855C421.493 217.256 418.688 216.956 417.586 218.255L418.688 216.956Z" fill="#808AFF"/>
<path d="M476.086 207.259C473.782 226.852 488.206 242.546 507.639 242.047C527.072 241.547 542.799 226.152 544.502 207.759C546.205 189.365 532.582 173.871 513.95 173.271C495.318 172.671 478.39 187.766 476.086 207.259Z" fill="#3DDB7F"/>
<path d="M373.211 245.945H580.664V234.25H373.211V245.945Z" fill="#66BCFF"/>
<path d="M491.312 287.631H492.914C494.843 287.176 496.522 285.998 497.602 284.342C498.684 282.685 499.086 280.677 498.724 278.734C491.111 242.847 495.419 237.948 504.634 226.952C505.791 225.416 506.312 223.494 506.091 221.585C505.868 219.676 504.921 217.924 503.442 216.693C501.964 215.461 500.068 214.844 498.146 214.967C496.224 215.091 494.423 215.945 493.115 217.356C480.193 232.55 475.785 242.747 483.999 281.833C484.383 283.481 485.315 284.951 486.643 286.003C487.97 287.056 489.616 287.63 491.312 287.631Z" fill="#19B375"/>
<path d="M495.218 244.446C494.517 250.444 494.818 258.541 497.222 271.336L482.297 273.236C480.093 260.84 479.291 251.743 480.093 244.546C480.193 243.346 479.993 242.347 482.797 241.747C486.565 241.011 490.436 240.978 494.217 241.647C495.719 241.947 495.419 242.646 495.218 244.446Z" fill="white"/>
<path d="M444.232 287.63H445.734C446.702 287.429 447.619 287.038 448.436 286.481C449.252 285.924 449.949 285.212 450.489 284.386C451.029 283.559 451.4 282.634 451.581 281.665C451.762 280.695 451.749 279.698 451.544 278.734C444.031 242.846 448.238 237.948 457.454 226.952C458.475 225.419 458.896 223.563 458.634 221.74C458.372 219.918 457.447 218.254 456.036 217.068C454.624 215.882 452.825 215.255 450.98 215.308C449.136 215.361 447.375 216.09 446.035 217.356C433.113 232.55 428.705 242.746 436.919 281.833C437.287 283.489 438.213 284.969 439.545 286.025C440.877 287.081 442.531 287.647 444.232 287.63Z" fill="#19B375"/>
<path d="M448.138 244.446C447.437 250.444 447.738 258.541 450.142 271.336L435.216 273.236C433.013 260.84 432.211 251.743 433.013 244.546C433.113 243.346 432.913 242.347 435.717 241.747C439.485 241.011 443.356 240.978 447.137 241.647C448.639 241.947 448.239 242.646 448.138 244.446Z" fill="white"/>
<path d="M483.8 173.871C485.117 173.874 486.417 173.589 487.611 173.036C488.805 172.484 489.864 171.677 490.712 170.672C491.913 169.311 492.678 167.622 492.911 165.823C493.142 164.024 492.831 162.196 492.014 160.576C487.7 151.972 482.13 144.055 475.486 137.084C474.861 136.421 474.111 135.888 473.279 135.514C472.448 135.14 471.551 134.933 470.64 134.905C469.728 134.878 468.82 135.029 467.967 135.352C467.114 135.674 466.334 136.16 465.669 136.784C465.004 137.408 464.47 138.156 464.096 138.985C463.721 139.815 463.514 140.711 463.486 141.621C463.458 142.53 463.61 143.437 463.932 144.288C464.256 145.138 464.744 145.918 465.369 146.581C468.498 149.834 471.346 153.345 473.883 157.077C466.286 155.309 458.538 154.271 450.744 153.978H450.644C448.939 154.17 447.364 154.978 446.217 156.25C445.069 157.522 444.429 159.17 444.416 160.882C444.404 162.593 445.021 164.249 446.15 165.538C447.279 166.827 448.842 167.657 450.544 167.873C460.837 168.266 471.023 170.117 480.795 173.371C481.767 173.682 482.78 173.851 483.8 173.871Z" fill="#19B375"/>
<path d="M500.427 133.185H511.145C512.198 133.307 513.265 133.205 514.274 132.887C515.285 132.569 516.217 132.04 517.008 131.337C517.799 130.633 518.432 129.771 518.866 128.806C519.3 127.841 519.524 126.796 519.524 125.738C519.524 124.68 519.3 123.635 518.866 122.67C518.432 121.705 517.799 120.843 517.008 120.139C516.217 119.436 515.285 118.907 514.274 118.59C513.265 118.271 512.198 118.169 511.145 118.291H501.328C495.518 118.291 484.7 118.291 472.579 111.793C471.717 111.31 470.764 111.006 469.781 110.901C468.797 110.796 467.802 110.891 466.856 111.181C465.91 111.471 465.033 111.949 464.278 112.587C463.523 113.224 462.905 114.009 462.462 114.892C461.988 115.751 461.69 116.694 461.585 117.668C461.479 118.643 461.57 119.628 461.849 120.567C462.128 121.506 462.592 122.381 463.213 123.14C463.834 123.899 464.601 124.527 465.467 124.988C476.227 130.656 488.263 133.478 500.427 133.185Z" fill="#19B375"/>
<path d="M443.831 94.0997C444.343 93.4153 444.643 92.5972 444.696 91.7452C444.751 90.8932 444.554 90.0441 444.132 89.3014C439.924 82.204 436.118 81.9041 433.313 82.104C430.508 82.304 428.505 84.8031 430.809 91.3007C427.603 94.7995 428.906 97.8984 433.513 98.3982C438.121 98.898 440.525 98.4982 443.831 94.0997Z" fill="#91FFAD"/>
<path d="M434.916 90.7006H420.191C410.274 90.7006 403.563 89.9009 400.157 85.9023C396.751 81.9037 400.057 77.3054 404.264 80.0044C408.471 82.7035 411.977 89.8009 406.468 93.2997C403.663 95.099 397.252 95.8987 391.342 92.5C385.432 89.1012 390.24 84.103 394.748 87.9016C399.255 91.7002 398.554 99.4975 391.943 100.697C388.437 101.297 383.929 100.097 381.625 97.3982C379.321 94.6992 380.724 92.7998 383.028 92.5C385.332 92.2001 392.344 94.9991 392.344 111.193" stroke="#FF78B9" stroke-width="1.99929" stroke-miterlimit="10" stroke-linecap="round"/>
<path d="M433.815 88.6011C434.337 89.3789 435.017 90.0388 435.81 90.5381C436.604 91.0374 437.494 91.3651 438.423 91.5C434.716 91.0002 433.214 93.0995 433.214 93.0995" stroke="black" stroke-width="1.99929" stroke-linecap="round" stroke-linejoin="round"/>
<path d="M457.054 74.3065C456.954 69.9081 454.349 66.5093 451.044 66.5093C447.738 66.5093 445.033 70.208 444.833 74.7064C444.633 79.2048 447.237 82.9034 450.743 82.8035C454.249 82.7035 457.054 78.9049 457.054 74.3065Z" fill="white"/>
<path d="M452.847 74.5064C452.847 72.5072 451.545 70.9077 450.042 70.9077C448.539 70.9077 447.337 72.6071 447.237 74.7064C447.137 76.8056 448.339 78.505 449.942 78.505C451.545 78.505 452.847 76.6057 452.847 74.5064Z" fill="black"/>
<path d="M435.417 74.3063C436.819 70.3077 435.818 67.1089 433.313 67.1089C430.809 67.1089 427.604 70.5077 426.001 74.7062C424.398 78.9047 425.3 82.3035 428.004 82.2035C430.709 82.1035 434.015 78.6048 435.417 74.3063Z" fill="white"/>
<path d="M431.81 74.5065C432.411 72.7071 432.011 71.3076 430.909 71.3076C429.807 71.3076 428.405 72.8071 427.703 74.7064C427.002 76.6057 427.403 78.0052 428.505 78.0052C429.607 78.0052 431.209 76.4058 431.81 74.5065Z" fill="black"/>
<path d="M451.043 66.5093C453.848 66.5093 456.152 69.0083 456.853 72.4071C452.446 72.0072 448.639 71.8074 445.434 71.7074C446.435 68.7085 448.639 66.5093 451.043 66.5093Z" fill="#3442D9"/>
<path d="M433.314 67.1089C435.317 67.1089 436.319 69.2081 436.018 72.1071C432.735 72.4329 429.484 73.0348 426.302 73.9065C428.005 70.1078 431.01 67.1089 433.314 67.1089Z" fill="#3442D9"/>
<path d="M456.252 66.5096C453.848 66.0098 449.441 65.51 446.436 66.3097" stroke="black" stroke-width="2.99893" stroke-linecap="round" stroke-linejoin="round"/>
<path d="M436.019 66.5092C433.746 66.1401 431.42 66.2766 429.207 66.909" stroke="black" stroke-width="2.99893" stroke-linecap="round" stroke-linejoin="round"/>
<path d="M466.269 91.5999C466.121 92.616 466.199 93.6522 466.498 94.6349C466.796 95.6175 467.308 96.5226 467.996 97.2859C468.684 98.0492 469.533 98.6519 470.481 99.0512C471.429 99.4507 472.453 99.637 473.482 99.597H477.589C479.803 99.5678 481.934 98.7434 483.59 97.2748C485.245 95.8062 486.315 93.7916 486.604 91.5999L488.106 77.5049C488.254 76.4887 488.176 75.4525 487.877 74.4699C487.579 73.4871 487.068 72.5821 486.38 71.8188C485.69 71.0556 484.843 70.4529 483.894 70.0535C482.947 69.6541 481.922 69.4678 480.894 69.5077H476.787C474.572 69.5369 472.442 70.3614 470.786 71.8299C469.13 73.2986 468.06 75.3132 467.772 77.5049L466.269 91.5999Z" fill="black"/>
<path d="M470.877 91.6006C470.73 92.6167 470.808 93.6529 471.106 94.6356C471.405 95.6183 471.917 96.5233 472.605 97.2866C473.293 98.0499 474.142 98.6525 475.089 99.0519C476.037 99.4514 477.062 99.6377 478.089 99.5977C480.287 99.5448 482.394 98.7098 484.028 97.2433C485.663 95.7769 486.719 93.7756 487.004 91.6006L488.607 77.5056C488.72 76.4954 488.618 75.4728 488.307 74.5051C487.995 73.5374 487.482 72.6464 486.801 71.8909C486.12 71.1354 485.286 70.5325 484.354 70.1218C483.422 69.7112 482.414 69.5021 481.395 69.5084C479.18 69.5376 477.05 70.362 475.395 71.8306C473.739 73.2993 472.669 75.3139 472.38 77.5056L470.877 91.6006Z" fill="#9CA4FF"/>
<path d="M484.301 136.085L489.409 129.387C493.917 123.19 496.321 123.689 501.73 123.689C511.948 123.689 512.448 130.987 509.944 135.485C508.706 137.381 508.109 139.624 508.241 141.883C509.944 143.482 511.847 145.082 511.647 146.281C511.447 147.481 510.145 148.68 508.141 147.581C506.138 146.481 504.034 145.981 503.533 142.982C503.257 144.431 503.157 145.908 503.233 147.381C503.233 150.88 499.627 151.279 495.52 151.279C491.413 151.279 487.907 150.98 487.907 144.682C487.936 142.942 488.07 141.207 488.307 139.484C487.533 139.983 486.623 140.227 485.703 140.183C485.312 140.205 484.925 140.112 484.586 139.918C484.248 139.723 483.974 139.433 483.8 139.084C483.607 138.585 483.552 138.043 483.64 137.516C483.729 136.99 483.956 136.495 484.301 136.085Z" fill="#3DDB7F"/>
<path d="M375.715 111.193H404.364L398.654 145.681H381.425L375.715 111.193Z" fill="white"/>
<path d="M380.924 111.193H396.55L393.445 145.681H384.029L380.924 111.193Z" fill="#FFF2A6"/>
<path d="M375.114 108.495H404.965L406.668 111.194H373.512L375.114 108.495Z" fill="#8CD9FF"/>
<path d="M376.716 117.091C373.911 117.391 373.911 119.291 373.511 121.59C373.11 123.889 373.411 124.988 375.714 126.688C378.018 128.387 380.623 128.887 383.928 128.987C384.292 129.004 384.656 128.942 384.993 128.804C385.331 128.667 385.634 128.458 385.882 128.191C386.13 127.924 386.316 127.608 386.429 127.262C386.542 126.916 386.577 126.549 386.533 126.188C386.633 124.988 386.433 123.389 380.923 122.289C379.675 121.997 378.465 121.561 377.317 120.99L376.716 117.091Z" fill="#3DDB7F"/>
<path d="M375.615 126.088C374.313 128.587 374.212 130.086 374.513 131.486C374.813 132.885 375.915 133.485 377.418 134.385C378.92 135.285 381.425 135.684 382.627 134.785C382.99 134.558 383.284 134.235 383.473 133.85C383.662 133.466 383.741 133.037 383.699 132.612C383.657 132.186 383.497 131.78 383.237 131.44C382.977 131.099 382.627 130.838 382.226 130.686C380.122 129.587 378.62 128.987 378.62 128.987L378.219 126.388L375.615 126.088Z" fill="#3DDB7F"/>
<path d="M377.118 133.386C376.116 135.185 375.315 136.984 376.717 138.884C378.119 140.783 379.422 139.783 380.323 139.084L379.422 133.386H377.118Z" fill="#3DDB7F"/>
<path d="M432.412 154.378C432.88 153.263 433.642 152.297 434.615 151.579C436.871 150.043 439.503 149.144 442.228 148.98C441.178 147.254 440.337 145.407 439.724 143.482C439.577 142.937 439.627 142.357 439.864 141.846C440.103 141.334 440.514 140.922 441.026 140.683C441.546 140.476 442.126 140.475 442.647 140.679C443.168 140.884 443.592 141.278 443.831 141.783C444.612 143.33 445.482 144.832 446.435 146.281C448.356 149.336 451.249 151.66 454.649 152.879C455.17 153.061 455.609 153.422 455.885 153.899C456.16 154.377 456.255 154.937 456.152 155.478L454.249 167.373C454.151 167.921 453.848 168.411 453.402 168.745C452.956 169.079 452.4 169.232 451.845 169.173C448.239 168.773 445.334 167.273 443.931 164.974C440.773 164.866 437.639 165.554 434.816 166.974C433.013 167.873 431.21 168.073 430.809 164.674C430.445 161.162 430.997 157.615 432.412 154.378Z" fill="#91FFAD"/>
<path d="M411.176 170.972C413.677 169.713 416.339 168.805 419.089 168.273C419.617 168.231 420.114 168.01 420.496 167.646C420.88 167.281 421.125 166.797 421.193 166.273C421.96 162.506 423.42 158.913 425.5 155.677C425.59 155.54 425.652 155.387 425.68 155.226C425.709 155.065 425.705 154.901 425.667 154.742C425.63 154.582 425.56 154.433 425.463 154.301C425.365 154.17 425.241 154.06 425.099 153.978C423.296 152.878 419.89 152.978 413.98 157.876C412.834 158.934 411.885 160.187 411.176 161.575C407.77 163.175 405.866 165.974 405.967 170.272C406.067 174.57 410.474 175.07 410.474 175.07C410.474 175.07 410.775 172.571 411.176 170.972Z" fill="#91FFAD"/>
<path d="M481.094 265.838C481.595 269.437 482.296 273.336 483.198 277.734C476.887 274.135 472.279 275.535 470.576 277.734C468.873 279.933 469.675 280.733 470.877 281.733C470.176 283.132 470.075 283.832 470.877 284.732C471.678 285.631 475.284 287.631 479.191 287.631H497.622C497.936 287.635 498.239 287.526 498.479 287.323C498.718 287.121 498.876 286.84 498.925 286.531C499.198 283.901 499.13 281.247 498.724 278.634C497.722 273.836 496.42 266.638 496.02 264.039C495.974 263.773 495.842 263.53 495.642 263.348C495.443 263.167 495.187 263.058 494.918 263.039C490.527 262.43 486.055 262.91 481.896 264.439C481.611 264.531 481.372 264.726 481.224 264.985C481.076 265.243 481.029 265.547 481.094 265.838Z" fill="#66BCFF"/>
<path d="M434.014 265.838C434.515 269.437 435.216 273.336 436.118 277.734C429.707 274.135 425.199 275.535 423.496 277.734C421.794 279.933 422.595 280.733 423.697 281.733C423.096 283.132 422.996 283.832 423.797 284.732C424.598 285.631 428.204 287.631 432.011 287.631H450.542C450.845 287.632 451.136 287.519 451.359 287.316C451.581 287.112 451.719 286.832 451.744 286.531C452.069 283.903 452.002 281.242 451.544 278.634C450.542 273.836 449.34 266.638 448.94 264.039C448.896 263.773 448.762 263.53 448.563 263.348C448.363 263.167 448.107 263.058 447.838 263.039C443.448 262.43 438.975 262.91 434.816 264.439C434.532 264.531 434.293 264.726 434.145 264.985C433.996 265.243 433.95 265.547 434.014 265.838Z" fill="#66BCFF"/>
<path d="M426.802 234.25H414.682C412.689 234.25 410.778 233.46 409.37 232.053C407.96 230.648 407.169 228.74 407.169 226.752C407.169 224.764 407.96 222.857 409.37 221.451C410.778 220.045 412.689 219.255 414.682 219.255H421.493C422.902 219.255 424.252 219.813 425.248 220.806C426.243 221.8 426.802 223.147 426.802 224.553V234.35V234.25Z" fill="#8CD9FF"/>
<path d="M450.543 160.276C450.944 156.477 452.446 153.978 455.451 154.178L460.46 154.778L457.855 168.373L453.047 167.873C450.743 167.773 450.142 164.175 450.543 160.276Z" fill="#19B375"/>
<path d="M486.804 278.234C486.946 278.28 487.065 278.377 487.14 278.507C487.214 278.636 487.237 278.788 487.205 278.934C487.004 279.533 486.303 279.234 486.303 279.234L483.198 277.734L482.897 276.435L486.804 278.234Z" fill="black"/>
<path d="M439.724 278.234C439.793 278.255 439.857 278.292 439.911 278.34C439.965 278.388 440.007 278.448 440.037 278.515C440.065 278.581 440.079 278.653 440.077 278.726C440.075 278.798 440.057 278.869 440.025 278.934C439.924 279.533 439.223 279.234 439.223 279.234L436.118 277.734L435.817 276.435L439.724 278.234Z" fill="black"/>
<path d="M446.33 272.765C447.436 272.409 447.876 270.714 447.316 268.981C446.755 267.247 445.403 266.13 444.297 266.487C443.193 266.843 442.751 268.537 443.312 270.271C443.873 272.005 445.224 273.121 446.33 272.765Z" fill="#FFE75C"/>
<path d="M478.49 90.1009L483.198 83.4033H476.387L478.49 90.1009Z" fill="#FFF2A6"/>
<path d="M468.874 95.5986C460.96 103.396 451.043 103.396 446.436 103.396" stroke="black" stroke-width="1.99929" stroke-linecap="round" stroke-linejoin="round"/>
<path d="M444.934 105.096H448.04C448.979 105.096 449.743 104.335 449.743 103.397V103.357C449.743 102.418 448.979 101.657 448.04 101.657H444.934C443.994 101.657 443.231 102.418 443.231 103.357V103.397C443.231 104.335 443.994 105.096 444.934 105.096Z" fill="white"/>
<path d="M446.235 183.368C446.53 183.258 446.854 183.258 447.15 183.368C447.444 183.478 447.689 183.691 447.838 183.967C447.943 184.247 447.939 184.556 447.828 184.833C447.717 185.11 447.506 185.336 447.237 185.467C434.916 191.665 430.609 202.661 430.609 210.558L428.305 209.458C428.705 200.961 433.514 189.765 446.235 183.368Z" fill="black"/>
<path d="M484.501 160.276C484.732 160.278 484.96 160.213 485.155 160.088C485.35 159.964 485.506 159.786 485.603 159.576C485.701 159.284 485.683 158.965 485.553 158.686C485.422 158.407 485.189 158.188 484.902 158.076C480.449 156.382 475.857 155.077 471.178 154.178C471.04 154.133 470.893 154.118 470.749 154.135C470.604 154.152 470.465 154.201 470.341 154.277C470.217 154.353 470.111 154.455 470.031 154.576C469.95 154.697 469.897 154.833 469.876 154.977C469.83 155.121 469.815 155.274 469.832 155.424C469.848 155.575 469.895 155.72 469.97 155.852C470.045 155.983 470.148 156.097 470.269 156.188C470.391 156.278 470.529 156.343 470.677 156.377C475.244 157.291 479.732 158.56 484.1 160.176L484.501 160.276Z" fill="black"/>
<path d="M443.33 154.878C443.33 155.196 443.204 155.501 442.978 155.725C442.753 155.95 442.446 156.077 442.128 156.077C434.815 156.077 431.51 158.177 430.809 160.276C430.909 159.476 431.109 158.676 431.309 157.777C431.477 157.119 431.801 156.512 432.255 156.007C432.708 155.503 433.278 155.115 433.914 154.878C436.571 154.056 439.348 153.685 442.128 153.778C442.43 153.777 442.722 153.889 442.944 154.093C443.168 154.297 443.305 154.577 443.33 154.878Z" fill="black"/>
<path d="M413.681 161.975L414.181 161.175C414.547 160.645 415.026 160.202 415.584 159.876C421.694 156.877 422.395 158.376 423.097 160.276L422.495 161.775C420.491 159.776 418.788 159.876 413.98 162.475C412.978 162.975 413.681 161.975 413.681 161.975Z" fill="black"/>
<path d="M403.363 273.235C407.37 277.734 418.189 276.334 415.183 289.13" stroke="#FF8C19" stroke-width="1.99929" stroke-linecap="round" stroke-linejoin="round"/>
<path d="M411.376 286.631C408.771 277.234 399.656 278.434 394.747 279.034C389.839 279.633 385.632 277.434 384.43 275.735" stroke="#FF8C19" stroke-width="1.99929" stroke-linecap="round" stroke-linejoin="round"/>
<path d="M518.156 311.822C517.477 311.81 516.816 311.602 516.253 311.222C505.635 304.625 505.635 293.529 505.635 286.231V275.835L492.112 302.125C491.902 302.526 491.614 302.881 491.267 303.17C490.919 303.46 490.517 303.678 490.085 303.813C489.652 303.948 489.197 303.996 488.745 303.955C488.295 303.914 487.856 303.785 487.454 303.575C487.054 303.365 486.698 303.078 486.407 302.731C486.117 302.383 485.899 301.983 485.763 301.551C485.629 301.12 485.581 300.665 485.621 300.215C485.662 299.765 485.791 299.328 486.002 298.927L500.827 270.137C501.45 268.88 502.487 267.877 503.764 267.295C505.041 266.712 506.481 266.586 507.839 266.938C509.2 267.253 510.414 268.016 511.287 269.104C512.159 270.192 512.639 271.542 512.647 272.936V286.231C512.647 293.029 512.647 300.726 519.959 305.424C520.356 305.659 520.702 305.972 520.973 306.344C521.245 306.716 521.438 307.139 521.541 307.588C521.644 308.036 521.655 308.501 521.572 308.954C521.49 309.407 521.317 309.839 521.061 310.223C520.748 310.707 520.318 311.108 519.811 311.387C519.304 311.666 518.735 311.815 518.156 311.822Z" fill="#EB459F"/>
<path d="M506.338 266.738C501.73 266.738 499.326 270.037 496.221 274.435C493.115 278.833 485.001 291.729 481.996 296.527C481.289 297.633 480.908 298.914 480.895 300.226C480.895 302.055 481.623 303.81 482.919 305.103C484.215 306.397 485.973 307.123 487.806 307.123H491.513C492.205 307.113 492.879 306.899 493.449 306.509C494.02 306.117 494.462 305.566 494.718 304.924L507.34 277.034L506.338 266.738Z" fill="#EB459F"/>
<path d="M92.9342 160.676C92.0029 160.072 91.2095 159.279 90.6054 158.349C90.0014 157.419 89.6003 156.372 89.4282 155.278L88.8272 151.479C88.8272 151.279 88.6268 151.179 88.4265 151.179C88.3468 151.179 88.2703 151.211 88.214 151.267C88.1576 151.323 88.126 151.399 88.126 151.479L87.525 155.278C87.3529 156.372 86.9517 157.419 86.3477 158.349C85.7436 159.279 84.9502 160.072 84.019 160.676L83.5181 160.976C83.418 160.976 83.418 161.176 83.418 161.276C83.418 161.376 83.418 161.576 83.5181 161.576L84.019 161.875C84.9502 162.479 85.7436 163.272 86.3477 164.202C86.9517 165.132 87.3529 166.179 87.525 167.273L88.126 171.072C88.126 171.151 88.1576 171.228 88.214 171.284C88.2703 171.34 88.3468 171.372 88.4265 171.372C88.6268 171.372 88.8272 171.272 88.8272 171.072L89.4282 167.273C89.6003 166.179 90.0014 165.132 90.6054 164.202C91.2095 163.272 92.0029 162.479 92.9342 161.875L93.3348 161.576C93.5352 161.576 93.5352 161.376 93.5352 161.276C93.5352 161.176 93.5352 160.976 93.3348 160.976L92.9342 160.676Z" fill="#FF78B9"/>
<path d="M403.162 10.4293C402.431 9.936 401.806 9.30149 401.324 8.56324C400.842 7.82498 400.513 6.99793 400.357 6.13085L399.956 3.13192C399.889 2.932 399.789 2.83203 399.656 2.83203C399.576 2.83203 399.5 2.86363 399.443 2.91987C399.387 2.97611 399.355 3.05239 399.355 3.13192L398.854 6.13085C398.698 6.99793 398.37 7.82498 397.888 8.56324C397.406 9.30149 396.781 9.936 396.05 10.4293L395.649 10.6293C395.649 10.7292 395.549 10.8292 395.549 10.9291V11.1291L395.95 11.429C396.689 11.9136 397.32 12.5456 397.803 13.2854C398.285 14.0251 398.609 14.8566 398.754 15.7274L399.255 18.7264C399.255 18.8059 399.287 18.8822 399.343 18.9384C399.399 18.9947 399.476 19.0263 399.556 19.0263L399.856 18.7264L400.257 15.7274C400.402 14.8566 400.726 14.0251 401.208 13.2854C401.691 12.5456 402.322 11.9136 403.062 11.429L403.462 11.1291C403.562 11.1291 403.563 11.0291 403.563 10.9291C403.568 10.875 403.56 10.8205 403.543 10.7689C403.526 10.7173 403.498 10.6698 403.462 10.6293L403.162 10.4293Z" fill="#FFE75C"/>
</g>
<defs>
<clipPath id="clip0">
<rect width="486" height="278" fill="white"/>
</clipPath>
</defs>
</svg>
